%TF.GenerationSoftware,KiCad,Pcbnew,7.0.10*%
%TF.CreationDate,2025-11-30T18:16:03+01:00*%
%TF.ProjectId,open_thermostat,6f70656e-5f74-4686-9572-6d6f73746174,rev?*%
%TF.SameCoordinates,Original*%
%TF.FileFunction,Legend,Bot*%
%TF.FilePolarity,Positive*%
%FSLAX46Y46*%
G04 Gerber Fmt 4.6, Leading zero omitted, Abs format (unit mm)*
G04 Created by KiCad (PCBNEW 7.0.10) date 2025-11-30 18:16:03*
%MOMM*%
%LPD*%
G01*
G04 APERTURE LIST*
%ADD10C,0.250000*%
G04 APERTURE END LIST*
D10*
X132485715Y-97923071D02*
X132414286Y-97994500D01*
X132414286Y-97994500D02*
X132485715Y-98065928D01*
X132485715Y-98065928D02*
X132557143Y-97994500D01*
X132557143Y-97994500D02*
X132485715Y-97923071D01*
X132485715Y-97923071D02*
X132485715Y-98065928D01*
X132485715Y-97494500D02*
X132557143Y-96637357D01*
X132557143Y-96637357D02*
X132485715Y-96565928D01*
X132485715Y-96565928D02*
X132414286Y-96637357D01*
X132414286Y-96637357D02*
X132485715Y-97494500D01*
X132485715Y-97494500D02*
X132485715Y-96565928D01*
X131771429Y-98065928D02*
X131771429Y-96565928D01*
X131771429Y-97280214D02*
X130914286Y-97280214D01*
X130914286Y-98065928D02*
X130914286Y-96565928D01*
X130200000Y-98065928D02*
X130200000Y-96565928D01*
X128699999Y-96637357D02*
X128842857Y-96565928D01*
X128842857Y-96565928D02*
X129057142Y-96565928D01*
X129057142Y-96565928D02*
X129271428Y-96637357D01*
X129271428Y-96637357D02*
X129414285Y-96780214D01*
X129414285Y-96780214D02*
X129485714Y-96923071D01*
X129485714Y-96923071D02*
X129557142Y-97208785D01*
X129557142Y-97208785D02*
X129557142Y-97423071D01*
X129557142Y-97423071D02*
X129485714Y-97708785D01*
X129485714Y-97708785D02*
X129414285Y-97851642D01*
X129414285Y-97851642D02*
X129271428Y-97994500D01*
X129271428Y-97994500D02*
X129057142Y-98065928D01*
X129057142Y-98065928D02*
X128914285Y-98065928D01*
X128914285Y-98065928D02*
X128699999Y-97994500D01*
X128699999Y-97994500D02*
X128628571Y-97923071D01*
X128628571Y-97923071D02*
X128628571Y-97423071D01*
X128628571Y-97423071D02*
X128914285Y-97423071D01*
X127985714Y-98065928D02*
X127985714Y-96565928D01*
X127985714Y-97280214D02*
X127128571Y-97280214D01*
X127128571Y-98065928D02*
X127128571Y-96565928D01*
X125485713Y-96565928D02*
X124985713Y-98065928D01*
X124985713Y-98065928D02*
X124485713Y-96565928D01*
X123699999Y-96565928D02*
X123414285Y-96565928D01*
X123414285Y-96565928D02*
X123271428Y-96637357D01*
X123271428Y-96637357D02*
X123128571Y-96780214D01*
X123128571Y-96780214D02*
X123057142Y-97065928D01*
X123057142Y-97065928D02*
X123057142Y-97565928D01*
X123057142Y-97565928D02*
X123128571Y-97851642D01*
X123128571Y-97851642D02*
X123271428Y-97994500D01*
X123271428Y-97994500D02*
X123414285Y-98065928D01*
X123414285Y-98065928D02*
X123699999Y-98065928D01*
X123699999Y-98065928D02*
X123842857Y-97994500D01*
X123842857Y-97994500D02*
X123985714Y-97851642D01*
X123985714Y-97851642D02*
X124057142Y-97565928D01*
X124057142Y-97565928D02*
X124057142Y-97065928D01*
X124057142Y-97065928D02*
X123985714Y-96780214D01*
X123985714Y-96780214D02*
X123842857Y-96637357D01*
X123842857Y-96637357D02*
X123699999Y-96565928D01*
X121699999Y-98065928D02*
X122414285Y-98065928D01*
X122414285Y-98065928D02*
X122414285Y-96565928D01*
X121414284Y-96565928D02*
X120557142Y-96565928D01*
X120985713Y-98065928D02*
X120985713Y-96565928D01*
X120128570Y-97637357D02*
X119414285Y-97637357D01*
X120271427Y-98065928D02*
X119771427Y-96565928D01*
X119771427Y-96565928D02*
X119271427Y-98065928D01*
X117985713Y-96637357D02*
X118128571Y-96565928D01*
X118128571Y-96565928D02*
X118342856Y-96565928D01*
X118342856Y-96565928D02*
X118557142Y-96637357D01*
X118557142Y-96637357D02*
X118699999Y-96780214D01*
X118699999Y-96780214D02*
X118771428Y-96923071D01*
X118771428Y-96923071D02*
X118842856Y-97208785D01*
X118842856Y-97208785D02*
X118842856Y-97423071D01*
X118842856Y-97423071D02*
X118771428Y-97708785D01*
X118771428Y-97708785D02*
X118699999Y-97851642D01*
X118699999Y-97851642D02*
X118557142Y-97994500D01*
X118557142Y-97994500D02*
X118342856Y-98065928D01*
X118342856Y-98065928D02*
X118199999Y-98065928D01*
X118199999Y-98065928D02*
X117985713Y-97994500D01*
X117985713Y-97994500D02*
X117914285Y-97923071D01*
X117914285Y-97923071D02*
X117914285Y-97423071D01*
X117914285Y-97423071D02*
X118199999Y-97423071D01*
X117271428Y-97280214D02*
X116771428Y-97280214D01*
X116557142Y-98065928D02*
X117271428Y-98065928D01*
X117271428Y-98065928D02*
X117271428Y-96565928D01*
X117271428Y-96565928D02*
X116557142Y-96565928D01*
X115914285Y-97923071D02*
X115842856Y-97994500D01*
X115842856Y-97994500D02*
X115914285Y-98065928D01*
X115914285Y-98065928D02*
X115985713Y-97994500D01*
X115985713Y-97994500D02*
X115914285Y-97923071D01*
X115914285Y-97923071D02*
X115914285Y-98065928D01*
X115914285Y-97494500D02*
X115985713Y-96637357D01*
X115985713Y-96637357D02*
X115914285Y-96565928D01*
X115914285Y-96565928D02*
X115842856Y-96637357D01*
X115842856Y-96637357D02*
X115914285Y-97494500D01*
X115914285Y-97494500D02*
X115914285Y-96565928D01*
X128664284Y-100052357D02*
X127949999Y-100052357D01*
X128807141Y-100480928D02*
X128307141Y-98980928D01*
X128307141Y-98980928D02*
X127807141Y-100480928D01*
X126449999Y-100338071D02*
X126521427Y-100409500D01*
X126521427Y-100409500D02*
X126735713Y-100480928D01*
X126735713Y-100480928D02*
X126878570Y-100480928D01*
X126878570Y-100480928D02*
X127092856Y-100409500D01*
X127092856Y-100409500D02*
X127235713Y-100266642D01*
X127235713Y-100266642D02*
X127307142Y-100123785D01*
X127307142Y-100123785D02*
X127378570Y-99838071D01*
X127378570Y-99838071D02*
X127378570Y-99623785D01*
X127378570Y-99623785D02*
X127307142Y-99338071D01*
X127307142Y-99338071D02*
X127235713Y-99195214D01*
X127235713Y-99195214D02*
X127092856Y-99052357D01*
X127092856Y-99052357D02*
X126878570Y-98980928D01*
X126878570Y-98980928D02*
X126735713Y-98980928D01*
X126735713Y-98980928D02*
X126521427Y-99052357D01*
X126521427Y-99052357D02*
X126449999Y-99123785D01*
X124735713Y-99123785D02*
X124664285Y-99052357D01*
X124664285Y-99052357D02*
X124521428Y-98980928D01*
X124521428Y-98980928D02*
X124164285Y-98980928D01*
X124164285Y-98980928D02*
X124021428Y-99052357D01*
X124021428Y-99052357D02*
X123949999Y-99123785D01*
X123949999Y-99123785D02*
X123878570Y-99266642D01*
X123878570Y-99266642D02*
X123878570Y-99409500D01*
X123878570Y-99409500D02*
X123949999Y-99623785D01*
X123949999Y-99623785D02*
X124807142Y-100480928D01*
X124807142Y-100480928D02*
X123878570Y-100480928D01*
X123307142Y-99123785D02*
X123235714Y-99052357D01*
X123235714Y-99052357D02*
X123092857Y-98980928D01*
X123092857Y-98980928D02*
X122735714Y-98980928D01*
X122735714Y-98980928D02*
X122592857Y-99052357D01*
X122592857Y-99052357D02*
X122521428Y-99123785D01*
X122521428Y-99123785D02*
X122449999Y-99266642D01*
X122449999Y-99266642D02*
X122449999Y-99409500D01*
X122449999Y-99409500D02*
X122521428Y-99623785D01*
X122521428Y-99623785D02*
X123378571Y-100480928D01*
X123378571Y-100480928D02*
X122449999Y-100480928D01*
X121521428Y-98980928D02*
X121378571Y-98980928D01*
X121378571Y-98980928D02*
X121235714Y-99052357D01*
X121235714Y-99052357D02*
X121164286Y-99123785D01*
X121164286Y-99123785D02*
X121092857Y-99266642D01*
X121092857Y-99266642D02*
X121021428Y-99552357D01*
X121021428Y-99552357D02*
X121021428Y-99909500D01*
X121021428Y-99909500D02*
X121092857Y-100195214D01*
X121092857Y-100195214D02*
X121164286Y-100338071D01*
X121164286Y-100338071D02*
X121235714Y-100409500D01*
X121235714Y-100409500D02*
X121378571Y-100480928D01*
X121378571Y-100480928D02*
X121521428Y-100480928D01*
X121521428Y-100480928D02*
X121664286Y-100409500D01*
X121664286Y-100409500D02*
X121735714Y-100338071D01*
X121735714Y-100338071D02*
X121807143Y-100195214D01*
X121807143Y-100195214D02*
X121878571Y-99909500D01*
X121878571Y-99909500D02*
X121878571Y-99552357D01*
X121878571Y-99552357D02*
X121807143Y-99266642D01*
X121807143Y-99266642D02*
X121735714Y-99123785D01*
X121735714Y-99123785D02*
X121664286Y-99052357D01*
X121664286Y-99052357D02*
X121521428Y-98980928D01*
X120592857Y-98980928D02*
X120092857Y-100480928D01*
X120092857Y-100480928D02*
X119592857Y-98980928D01*
X132985713Y-101395928D02*
X132128571Y-101395928D01*
X132557142Y-102895928D02*
X132557142Y-101395928D01*
X131699999Y-102467357D02*
X130985714Y-102467357D01*
X131842856Y-102895928D02*
X131342856Y-101395928D01*
X131342856Y-101395928D02*
X130842856Y-102895928D01*
X130342857Y-102895928D02*
X130342857Y-101395928D01*
X130342857Y-101395928D02*
X129771428Y-101395928D01*
X129771428Y-101395928D02*
X129628571Y-101467357D01*
X129628571Y-101467357D02*
X129557142Y-101538785D01*
X129557142Y-101538785D02*
X129485714Y-101681642D01*
X129485714Y-101681642D02*
X129485714Y-101895928D01*
X129485714Y-101895928D02*
X129557142Y-102038785D01*
X129557142Y-102038785D02*
X129628571Y-102110214D01*
X129628571Y-102110214D02*
X129771428Y-102181642D01*
X129771428Y-102181642D02*
X130342857Y-102181642D01*
X128842857Y-102110214D02*
X128342857Y-102110214D01*
X128128571Y-102895928D02*
X128842857Y-102895928D01*
X128842857Y-102895928D02*
X128842857Y-101395928D01*
X128842857Y-101395928D02*
X128128571Y-101395928D01*
X126557142Y-101395928D02*
X125700000Y-101395928D01*
X126128571Y-102895928D02*
X126128571Y-101395928D01*
X125200000Y-102895928D02*
X125200000Y-101395928D01*
X125200000Y-102110214D02*
X124342857Y-102110214D01*
X124342857Y-102895928D02*
X124342857Y-101395928D01*
X123628571Y-102895928D02*
X123628571Y-101395928D01*
X122985713Y-102824500D02*
X122771428Y-102895928D01*
X122771428Y-102895928D02*
X122414285Y-102895928D01*
X122414285Y-102895928D02*
X122271428Y-102824500D01*
X122271428Y-102824500D02*
X122199999Y-102753071D01*
X122199999Y-102753071D02*
X122128570Y-102610214D01*
X122128570Y-102610214D02*
X122128570Y-102467357D01*
X122128570Y-102467357D02*
X122199999Y-102324500D01*
X122199999Y-102324500D02*
X122271428Y-102253071D01*
X122271428Y-102253071D02*
X122414285Y-102181642D01*
X122414285Y-102181642D02*
X122699999Y-102110214D01*
X122699999Y-102110214D02*
X122842856Y-102038785D01*
X122842856Y-102038785D02*
X122914285Y-101967357D01*
X122914285Y-101967357D02*
X122985713Y-101824500D01*
X122985713Y-101824500D02*
X122985713Y-101681642D01*
X122985713Y-101681642D02*
X122914285Y-101538785D01*
X122914285Y-101538785D02*
X122842856Y-101467357D01*
X122842856Y-101467357D02*
X122699999Y-101395928D01*
X122699999Y-101395928D02*
X122342856Y-101395928D01*
X122342856Y-101395928D02*
X122128570Y-101467357D01*
X120414285Y-102467357D02*
X119700000Y-102467357D01*
X120557142Y-102895928D02*
X120057142Y-101395928D01*
X120057142Y-101395928D02*
X119557142Y-102895928D01*
X118200000Y-102895928D02*
X118700000Y-102181642D01*
X119057143Y-102895928D02*
X119057143Y-101395928D01*
X119057143Y-101395928D02*
X118485714Y-101395928D01*
X118485714Y-101395928D02*
X118342857Y-101467357D01*
X118342857Y-101467357D02*
X118271428Y-101538785D01*
X118271428Y-101538785D02*
X118200000Y-101681642D01*
X118200000Y-101681642D02*
X118200000Y-101895928D01*
X118200000Y-101895928D02*
X118271428Y-102038785D01*
X118271428Y-102038785D02*
X118342857Y-102110214D01*
X118342857Y-102110214D02*
X118485714Y-102181642D01*
X118485714Y-102181642D02*
X119057143Y-102181642D01*
X117557143Y-102110214D02*
X117057143Y-102110214D01*
X116842857Y-102895928D02*
X117557143Y-102895928D01*
X117557143Y-102895928D02*
X117557143Y-101395928D01*
X117557143Y-101395928D02*
X116842857Y-101395928D01*
X116271428Y-102467357D02*
X115557143Y-102467357D01*
X116414285Y-102895928D02*
X115914285Y-101395928D01*
X115914285Y-101395928D02*
X115414285Y-102895928D01*
M02*
