%TF.GenerationSoftware,KiCad,Pcbnew,7.0.10*%
%TF.CreationDate,2025-11-30T18:16:03+01:00*%
%TF.ProjectId,open_thermostat,6f70656e-5f74-4686-9572-6d6f73746174,rev?*%
%TF.SameCoordinates,Original*%
%TF.FileFunction,Legend,Top*%
%TF.FilePolarity,Positive*%
%FSLAX46Y46*%
G04 Gerber Fmt 4.6, Leading zero omitted, Abs format (unit mm)*
G04 Created by KiCad (PCBNEW 7.0.10) date 2025-11-30 18:16:03*
%MOMM*%
%LPD*%
G01*
G04 APERTURE LIST*
%ADD10C,0.300000*%
%ADD11C,0.250000*%
%ADD12C,0.150000*%
%ADD13C,0.200000*%
%ADD14C,0.120000*%
G04 APERTURE END LIST*
D10*
X80585716Y-131470828D02*
X80871430Y-131470828D01*
X80871430Y-131470828D02*
X81014287Y-131542257D01*
X81014287Y-131542257D02*
X81157144Y-131685114D01*
X81157144Y-131685114D02*
X81228573Y-131970828D01*
X81228573Y-131970828D02*
X81228573Y-132470828D01*
X81228573Y-132470828D02*
X81157144Y-132756542D01*
X81157144Y-132756542D02*
X81014287Y-132899400D01*
X81014287Y-132899400D02*
X80871430Y-132970828D01*
X80871430Y-132970828D02*
X80585716Y-132970828D01*
X80585716Y-132970828D02*
X80442859Y-132899400D01*
X80442859Y-132899400D02*
X80300001Y-132756542D01*
X80300001Y-132756542D02*
X80228573Y-132470828D01*
X80228573Y-132470828D02*
X80228573Y-131970828D01*
X80228573Y-131970828D02*
X80300001Y-131685114D01*
X80300001Y-131685114D02*
X80442859Y-131542257D01*
X80442859Y-131542257D02*
X80585716Y-131470828D01*
X81871430Y-131970828D02*
X81871430Y-133470828D01*
X81871430Y-132042257D02*
X82014288Y-131970828D01*
X82014288Y-131970828D02*
X82300002Y-131970828D01*
X82300002Y-131970828D02*
X82442859Y-132042257D01*
X82442859Y-132042257D02*
X82514288Y-132113685D01*
X82514288Y-132113685D02*
X82585716Y-132256542D01*
X82585716Y-132256542D02*
X82585716Y-132685114D01*
X82585716Y-132685114D02*
X82514288Y-132827971D01*
X82514288Y-132827971D02*
X82442859Y-132899400D01*
X82442859Y-132899400D02*
X82300002Y-132970828D01*
X82300002Y-132970828D02*
X82014288Y-132970828D01*
X82014288Y-132970828D02*
X81871430Y-132899400D01*
X83800002Y-132899400D02*
X83657145Y-132970828D01*
X83657145Y-132970828D02*
X83371431Y-132970828D01*
X83371431Y-132970828D02*
X83228573Y-132899400D01*
X83228573Y-132899400D02*
X83157145Y-132756542D01*
X83157145Y-132756542D02*
X83157145Y-132185114D01*
X83157145Y-132185114D02*
X83228573Y-132042257D01*
X83228573Y-132042257D02*
X83371431Y-131970828D01*
X83371431Y-131970828D02*
X83657145Y-131970828D01*
X83657145Y-131970828D02*
X83800002Y-132042257D01*
X83800002Y-132042257D02*
X83871431Y-132185114D01*
X83871431Y-132185114D02*
X83871431Y-132327971D01*
X83871431Y-132327971D02*
X83157145Y-132470828D01*
X84514287Y-131970828D02*
X84514287Y-132970828D01*
X84514287Y-132113685D02*
X84585716Y-132042257D01*
X84585716Y-132042257D02*
X84728573Y-131970828D01*
X84728573Y-131970828D02*
X84942859Y-131970828D01*
X84942859Y-131970828D02*
X85085716Y-132042257D01*
X85085716Y-132042257D02*
X85157145Y-132185114D01*
X85157145Y-132185114D02*
X85157145Y-132970828D01*
X86800002Y-131470828D02*
X87657145Y-131470828D01*
X87228573Y-132970828D02*
X87228573Y-131470828D01*
X88157144Y-132970828D02*
X88157144Y-131470828D01*
X88800002Y-132970828D02*
X88800002Y-132185114D01*
X88800002Y-132185114D02*
X88728573Y-132042257D01*
X88728573Y-132042257D02*
X88585716Y-131970828D01*
X88585716Y-131970828D02*
X88371430Y-131970828D01*
X88371430Y-131970828D02*
X88228573Y-132042257D01*
X88228573Y-132042257D02*
X88157144Y-132113685D01*
X90085716Y-132899400D02*
X89942859Y-132970828D01*
X89942859Y-132970828D02*
X89657145Y-132970828D01*
X89657145Y-132970828D02*
X89514287Y-132899400D01*
X89514287Y-132899400D02*
X89442859Y-132756542D01*
X89442859Y-132756542D02*
X89442859Y-132185114D01*
X89442859Y-132185114D02*
X89514287Y-132042257D01*
X89514287Y-132042257D02*
X89657145Y-131970828D01*
X89657145Y-131970828D02*
X89942859Y-131970828D01*
X89942859Y-131970828D02*
X90085716Y-132042257D01*
X90085716Y-132042257D02*
X90157145Y-132185114D01*
X90157145Y-132185114D02*
X90157145Y-132327971D01*
X90157145Y-132327971D02*
X89442859Y-132470828D01*
X90800001Y-132970828D02*
X90800001Y-131970828D01*
X90800001Y-132256542D02*
X90871430Y-132113685D01*
X90871430Y-132113685D02*
X90942859Y-132042257D01*
X90942859Y-132042257D02*
X91085716Y-131970828D01*
X91085716Y-131970828D02*
X91228573Y-131970828D01*
X91728572Y-132970828D02*
X91728572Y-131970828D01*
X91728572Y-132113685D02*
X91800001Y-132042257D01*
X91800001Y-132042257D02*
X91942858Y-131970828D01*
X91942858Y-131970828D02*
X92157144Y-131970828D01*
X92157144Y-131970828D02*
X92300001Y-132042257D01*
X92300001Y-132042257D02*
X92371430Y-132185114D01*
X92371430Y-132185114D02*
X92371430Y-132970828D01*
X92371430Y-132185114D02*
X92442858Y-132042257D01*
X92442858Y-132042257D02*
X92585715Y-131970828D01*
X92585715Y-131970828D02*
X92800001Y-131970828D01*
X92800001Y-131970828D02*
X92942858Y-132042257D01*
X92942858Y-132042257D02*
X93014287Y-132185114D01*
X93014287Y-132185114D02*
X93014287Y-132970828D01*
X93942858Y-132970828D02*
X93800001Y-132899400D01*
X93800001Y-132899400D02*
X93728572Y-132827971D01*
X93728572Y-132827971D02*
X93657144Y-132685114D01*
X93657144Y-132685114D02*
X93657144Y-132256542D01*
X93657144Y-132256542D02*
X93728572Y-132113685D01*
X93728572Y-132113685D02*
X93800001Y-132042257D01*
X93800001Y-132042257D02*
X93942858Y-131970828D01*
X93942858Y-131970828D02*
X94157144Y-131970828D01*
X94157144Y-131970828D02*
X94300001Y-132042257D01*
X94300001Y-132042257D02*
X94371430Y-132113685D01*
X94371430Y-132113685D02*
X94442858Y-132256542D01*
X94442858Y-132256542D02*
X94442858Y-132685114D01*
X94442858Y-132685114D02*
X94371430Y-132827971D01*
X94371430Y-132827971D02*
X94300001Y-132899400D01*
X94300001Y-132899400D02*
X94157144Y-132970828D01*
X94157144Y-132970828D02*
X93942858Y-132970828D01*
X95014287Y-132899400D02*
X95157144Y-132970828D01*
X95157144Y-132970828D02*
X95442858Y-132970828D01*
X95442858Y-132970828D02*
X95585715Y-132899400D01*
X95585715Y-132899400D02*
X95657144Y-132756542D01*
X95657144Y-132756542D02*
X95657144Y-132685114D01*
X95657144Y-132685114D02*
X95585715Y-132542257D01*
X95585715Y-132542257D02*
X95442858Y-132470828D01*
X95442858Y-132470828D02*
X95228573Y-132470828D01*
X95228573Y-132470828D02*
X95085715Y-132399400D01*
X95085715Y-132399400D02*
X95014287Y-132256542D01*
X95014287Y-132256542D02*
X95014287Y-132185114D01*
X95014287Y-132185114D02*
X95085715Y-132042257D01*
X95085715Y-132042257D02*
X95228573Y-131970828D01*
X95228573Y-131970828D02*
X95442858Y-131970828D01*
X95442858Y-131970828D02*
X95585715Y-132042257D01*
X96085716Y-131970828D02*
X96657144Y-131970828D01*
X96300001Y-131470828D02*
X96300001Y-132756542D01*
X96300001Y-132756542D02*
X96371430Y-132899400D01*
X96371430Y-132899400D02*
X96514287Y-132970828D01*
X96514287Y-132970828D02*
X96657144Y-132970828D01*
X97800002Y-132970828D02*
X97800002Y-132185114D01*
X97800002Y-132185114D02*
X97728573Y-132042257D01*
X97728573Y-132042257D02*
X97585716Y-131970828D01*
X97585716Y-131970828D02*
X97300002Y-131970828D01*
X97300002Y-131970828D02*
X97157144Y-132042257D01*
X97800002Y-132899400D02*
X97657144Y-132970828D01*
X97657144Y-132970828D02*
X97300002Y-132970828D01*
X97300002Y-132970828D02*
X97157144Y-132899400D01*
X97157144Y-132899400D02*
X97085716Y-132756542D01*
X97085716Y-132756542D02*
X97085716Y-132613685D01*
X97085716Y-132613685D02*
X97157144Y-132470828D01*
X97157144Y-132470828D02*
X97300002Y-132399400D01*
X97300002Y-132399400D02*
X97657144Y-132399400D01*
X97657144Y-132399400D02*
X97800002Y-132327971D01*
X98300002Y-131970828D02*
X98871430Y-131970828D01*
X98514287Y-131470828D02*
X98514287Y-132756542D01*
X98514287Y-132756542D02*
X98585716Y-132899400D01*
X98585716Y-132899400D02*
X98728573Y-132970828D01*
X98728573Y-132970828D02*
X98871430Y-132970828D01*
X100514287Y-132970828D02*
X100514287Y-131970828D01*
X100514287Y-132256542D02*
X100585716Y-132113685D01*
X100585716Y-132113685D02*
X100657145Y-132042257D01*
X100657145Y-132042257D02*
X100800002Y-131970828D01*
X100800002Y-131970828D02*
X100942859Y-131970828D01*
X102014287Y-132899400D02*
X101871430Y-132970828D01*
X101871430Y-132970828D02*
X101585716Y-132970828D01*
X101585716Y-132970828D02*
X101442858Y-132899400D01*
X101442858Y-132899400D02*
X101371430Y-132756542D01*
X101371430Y-132756542D02*
X101371430Y-132185114D01*
X101371430Y-132185114D02*
X101442858Y-132042257D01*
X101442858Y-132042257D02*
X101585716Y-131970828D01*
X101585716Y-131970828D02*
X101871430Y-131970828D01*
X101871430Y-131970828D02*
X102014287Y-132042257D01*
X102014287Y-132042257D02*
X102085716Y-132185114D01*
X102085716Y-132185114D02*
X102085716Y-132327971D01*
X102085716Y-132327971D02*
X101371430Y-132470828D01*
X102585715Y-131970828D02*
X102942858Y-132970828D01*
X102942858Y-132970828D02*
X103300001Y-131970828D01*
X105800001Y-132970828D02*
X104942858Y-132970828D01*
X105371429Y-132970828D02*
X105371429Y-131470828D01*
X105371429Y-131470828D02*
X105228572Y-131685114D01*
X105228572Y-131685114D02*
X105085715Y-131827971D01*
X105085715Y-131827971D02*
X104942858Y-131899400D01*
X107585714Y-132399400D02*
X108728572Y-132399400D01*
X110514286Y-131613685D02*
X110585714Y-131542257D01*
X110585714Y-131542257D02*
X110728572Y-131470828D01*
X110728572Y-131470828D02*
X111085714Y-131470828D01*
X111085714Y-131470828D02*
X111228572Y-131542257D01*
X111228572Y-131542257D02*
X111300000Y-131613685D01*
X111300000Y-131613685D02*
X111371429Y-131756542D01*
X111371429Y-131756542D02*
X111371429Y-131899400D01*
X111371429Y-131899400D02*
X111300000Y-132113685D01*
X111300000Y-132113685D02*
X110442857Y-132970828D01*
X110442857Y-132970828D02*
X111371429Y-132970828D01*
X112300000Y-131470828D02*
X112442857Y-131470828D01*
X112442857Y-131470828D02*
X112585714Y-131542257D01*
X112585714Y-131542257D02*
X112657143Y-131613685D01*
X112657143Y-131613685D02*
X112728571Y-131756542D01*
X112728571Y-131756542D02*
X112800000Y-132042257D01*
X112800000Y-132042257D02*
X112800000Y-132399400D01*
X112800000Y-132399400D02*
X112728571Y-132685114D01*
X112728571Y-132685114D02*
X112657143Y-132827971D01*
X112657143Y-132827971D02*
X112585714Y-132899400D01*
X112585714Y-132899400D02*
X112442857Y-132970828D01*
X112442857Y-132970828D02*
X112300000Y-132970828D01*
X112300000Y-132970828D02*
X112157143Y-132899400D01*
X112157143Y-132899400D02*
X112085714Y-132827971D01*
X112085714Y-132827971D02*
X112014285Y-132685114D01*
X112014285Y-132685114D02*
X111942857Y-132399400D01*
X111942857Y-132399400D02*
X111942857Y-132042257D01*
X111942857Y-132042257D02*
X112014285Y-131756542D01*
X112014285Y-131756542D02*
X112085714Y-131613685D01*
X112085714Y-131613685D02*
X112157143Y-131542257D01*
X112157143Y-131542257D02*
X112300000Y-131470828D01*
X113371428Y-131613685D02*
X113442856Y-131542257D01*
X113442856Y-131542257D02*
X113585714Y-131470828D01*
X113585714Y-131470828D02*
X113942856Y-131470828D01*
X113942856Y-131470828D02*
X114085714Y-131542257D01*
X114085714Y-131542257D02*
X114157142Y-131613685D01*
X114157142Y-131613685D02*
X114228571Y-131756542D01*
X114228571Y-131756542D02*
X114228571Y-131899400D01*
X114228571Y-131899400D02*
X114157142Y-132113685D01*
X114157142Y-132113685D02*
X113299999Y-132970828D01*
X113299999Y-132970828D02*
X114228571Y-132970828D01*
X115585713Y-131470828D02*
X114871427Y-131470828D01*
X114871427Y-131470828D02*
X114799999Y-132185114D01*
X114799999Y-132185114D02*
X114871427Y-132113685D01*
X114871427Y-132113685D02*
X115014285Y-132042257D01*
X115014285Y-132042257D02*
X115371427Y-132042257D01*
X115371427Y-132042257D02*
X115514285Y-132113685D01*
X115514285Y-132113685D02*
X115585713Y-132185114D01*
X115585713Y-132185114D02*
X115657142Y-132327971D01*
X115657142Y-132327971D02*
X115657142Y-132685114D01*
X115657142Y-132685114D02*
X115585713Y-132827971D01*
X115585713Y-132827971D02*
X115514285Y-132899400D01*
X115514285Y-132899400D02*
X115371427Y-132970828D01*
X115371427Y-132970828D02*
X115014285Y-132970828D01*
X115014285Y-132970828D02*
X114871427Y-132899400D01*
X114871427Y-132899400D02*
X114799999Y-132827971D01*
X116299998Y-132399400D02*
X117442856Y-132399400D01*
X118942856Y-132970828D02*
X118085713Y-132970828D01*
X118514284Y-132970828D02*
X118514284Y-131470828D01*
X118514284Y-131470828D02*
X118371427Y-131685114D01*
X118371427Y-131685114D02*
X118228570Y-131827971D01*
X118228570Y-131827971D02*
X118085713Y-131899400D01*
X119514284Y-131613685D02*
X119585712Y-131542257D01*
X119585712Y-131542257D02*
X119728570Y-131470828D01*
X119728570Y-131470828D02*
X120085712Y-131470828D01*
X120085712Y-131470828D02*
X120228570Y-131542257D01*
X120228570Y-131542257D02*
X120299998Y-131613685D01*
X120299998Y-131613685D02*
X120371427Y-131756542D01*
X120371427Y-131756542D02*
X120371427Y-131899400D01*
X120371427Y-131899400D02*
X120299998Y-132113685D01*
X120299998Y-132113685D02*
X119442855Y-132970828D01*
X119442855Y-132970828D02*
X120371427Y-132970828D01*
X73049997Y-135385828D02*
X73049997Y-133885828D01*
X73692855Y-135385828D02*
X73692855Y-134600114D01*
X73692855Y-134600114D02*
X73621426Y-134457257D01*
X73621426Y-134457257D02*
X73478569Y-134385828D01*
X73478569Y-134385828D02*
X73264283Y-134385828D01*
X73264283Y-134385828D02*
X73121426Y-134457257D01*
X73121426Y-134457257D02*
X73049997Y-134528685D01*
X74192855Y-134385828D02*
X74764283Y-134385828D01*
X74407140Y-133885828D02*
X74407140Y-135171542D01*
X74407140Y-135171542D02*
X74478569Y-135314400D01*
X74478569Y-135314400D02*
X74621426Y-135385828D01*
X74621426Y-135385828D02*
X74764283Y-135385828D01*
X75049998Y-134385828D02*
X75621426Y-134385828D01*
X75264283Y-133885828D02*
X75264283Y-135171542D01*
X75264283Y-135171542D02*
X75335712Y-135314400D01*
X75335712Y-135314400D02*
X75478569Y-135385828D01*
X75478569Y-135385828D02*
X75621426Y-135385828D01*
X76121426Y-134385828D02*
X76121426Y-135885828D01*
X76121426Y-134457257D02*
X76264284Y-134385828D01*
X76264284Y-134385828D02*
X76549998Y-134385828D01*
X76549998Y-134385828D02*
X76692855Y-134457257D01*
X76692855Y-134457257D02*
X76764284Y-134528685D01*
X76764284Y-134528685D02*
X76835712Y-134671542D01*
X76835712Y-134671542D02*
X76835712Y-135100114D01*
X76835712Y-135100114D02*
X76764284Y-135242971D01*
X76764284Y-135242971D02*
X76692855Y-135314400D01*
X76692855Y-135314400D02*
X76549998Y-135385828D01*
X76549998Y-135385828D02*
X76264284Y-135385828D01*
X76264284Y-135385828D02*
X76121426Y-135314400D01*
X77407141Y-135314400D02*
X77549998Y-135385828D01*
X77549998Y-135385828D02*
X77835712Y-135385828D01*
X77835712Y-135385828D02*
X77978569Y-135314400D01*
X77978569Y-135314400D02*
X78049998Y-135171542D01*
X78049998Y-135171542D02*
X78049998Y-135100114D01*
X78049998Y-135100114D02*
X77978569Y-134957257D01*
X77978569Y-134957257D02*
X77835712Y-134885828D01*
X77835712Y-134885828D02*
X77621427Y-134885828D01*
X77621427Y-134885828D02*
X77478569Y-134814400D01*
X77478569Y-134814400D02*
X77407141Y-134671542D01*
X77407141Y-134671542D02*
X77407141Y-134600114D01*
X77407141Y-134600114D02*
X77478569Y-134457257D01*
X77478569Y-134457257D02*
X77621427Y-134385828D01*
X77621427Y-134385828D02*
X77835712Y-134385828D01*
X77835712Y-134385828D02*
X77978569Y-134457257D01*
X78692855Y-135242971D02*
X78764284Y-135314400D01*
X78764284Y-135314400D02*
X78692855Y-135385828D01*
X78692855Y-135385828D02*
X78621427Y-135314400D01*
X78621427Y-135314400D02*
X78692855Y-135242971D01*
X78692855Y-135242971D02*
X78692855Y-135385828D01*
X78692855Y-134457257D02*
X78764284Y-134528685D01*
X78764284Y-134528685D02*
X78692855Y-134600114D01*
X78692855Y-134600114D02*
X78621427Y-134528685D01*
X78621427Y-134528685D02*
X78692855Y-134457257D01*
X78692855Y-134457257D02*
X78692855Y-134600114D01*
X80478570Y-133814400D02*
X79192856Y-135742971D01*
X82049999Y-133814400D02*
X80764285Y-135742971D01*
X83192857Y-134385828D02*
X83192857Y-135600114D01*
X83192857Y-135600114D02*
X83121428Y-135742971D01*
X83121428Y-135742971D02*
X83049999Y-135814400D01*
X83049999Y-135814400D02*
X82907142Y-135885828D01*
X82907142Y-135885828D02*
X82692857Y-135885828D01*
X82692857Y-135885828D02*
X82549999Y-135814400D01*
X83192857Y-135314400D02*
X83049999Y-135385828D01*
X83049999Y-135385828D02*
X82764285Y-135385828D01*
X82764285Y-135385828D02*
X82621428Y-135314400D01*
X82621428Y-135314400D02*
X82549999Y-135242971D01*
X82549999Y-135242971D02*
X82478571Y-135100114D01*
X82478571Y-135100114D02*
X82478571Y-134671542D01*
X82478571Y-134671542D02*
X82549999Y-134528685D01*
X82549999Y-134528685D02*
X82621428Y-134457257D01*
X82621428Y-134457257D02*
X82764285Y-134385828D01*
X82764285Y-134385828D02*
X83049999Y-134385828D01*
X83049999Y-134385828D02*
X83192857Y-134457257D01*
X83907142Y-135385828D02*
X83907142Y-134385828D01*
X83907142Y-133885828D02*
X83835714Y-133957257D01*
X83835714Y-133957257D02*
X83907142Y-134028685D01*
X83907142Y-134028685D02*
X83978571Y-133957257D01*
X83978571Y-133957257D02*
X83907142Y-133885828D01*
X83907142Y-133885828D02*
X83907142Y-134028685D01*
X84407143Y-134385828D02*
X84978571Y-134385828D01*
X84621428Y-133885828D02*
X84621428Y-135171542D01*
X84621428Y-135171542D02*
X84692857Y-135314400D01*
X84692857Y-135314400D02*
X84835714Y-135385828D01*
X84835714Y-135385828D02*
X84978571Y-135385828D01*
X85478571Y-135385828D02*
X85478571Y-133885828D01*
X86121429Y-135385828D02*
X86121429Y-134600114D01*
X86121429Y-134600114D02*
X86050000Y-134457257D01*
X86050000Y-134457257D02*
X85907143Y-134385828D01*
X85907143Y-134385828D02*
X85692857Y-134385828D01*
X85692857Y-134385828D02*
X85550000Y-134457257D01*
X85550000Y-134457257D02*
X85478571Y-134528685D01*
X87478572Y-134385828D02*
X87478572Y-135385828D01*
X86835714Y-134385828D02*
X86835714Y-135171542D01*
X86835714Y-135171542D02*
X86907143Y-135314400D01*
X86907143Y-135314400D02*
X87050000Y-135385828D01*
X87050000Y-135385828D02*
X87264286Y-135385828D01*
X87264286Y-135385828D02*
X87407143Y-135314400D01*
X87407143Y-135314400D02*
X87478572Y-135242971D01*
X88192857Y-135385828D02*
X88192857Y-133885828D01*
X88192857Y-134457257D02*
X88335715Y-134385828D01*
X88335715Y-134385828D02*
X88621429Y-134385828D01*
X88621429Y-134385828D02*
X88764286Y-134457257D01*
X88764286Y-134457257D02*
X88835715Y-134528685D01*
X88835715Y-134528685D02*
X88907143Y-134671542D01*
X88907143Y-134671542D02*
X88907143Y-135100114D01*
X88907143Y-135100114D02*
X88835715Y-135242971D01*
X88835715Y-135242971D02*
X88764286Y-135314400D01*
X88764286Y-135314400D02*
X88621429Y-135385828D01*
X88621429Y-135385828D02*
X88335715Y-135385828D01*
X88335715Y-135385828D02*
X88192857Y-135314400D01*
X89550000Y-135242971D02*
X89621429Y-135314400D01*
X89621429Y-135314400D02*
X89550000Y-135385828D01*
X89550000Y-135385828D02*
X89478572Y-135314400D01*
X89478572Y-135314400D02*
X89550000Y-135242971D01*
X89550000Y-135242971D02*
X89550000Y-135385828D01*
X90907144Y-135314400D02*
X90764286Y-135385828D01*
X90764286Y-135385828D02*
X90478572Y-135385828D01*
X90478572Y-135385828D02*
X90335715Y-135314400D01*
X90335715Y-135314400D02*
X90264286Y-135242971D01*
X90264286Y-135242971D02*
X90192858Y-135100114D01*
X90192858Y-135100114D02*
X90192858Y-134671542D01*
X90192858Y-134671542D02*
X90264286Y-134528685D01*
X90264286Y-134528685D02*
X90335715Y-134457257D01*
X90335715Y-134457257D02*
X90478572Y-134385828D01*
X90478572Y-134385828D02*
X90764286Y-134385828D01*
X90764286Y-134385828D02*
X90907144Y-134457257D01*
X91764286Y-135385828D02*
X91621429Y-135314400D01*
X91621429Y-135314400D02*
X91550000Y-135242971D01*
X91550000Y-135242971D02*
X91478572Y-135100114D01*
X91478572Y-135100114D02*
X91478572Y-134671542D01*
X91478572Y-134671542D02*
X91550000Y-134528685D01*
X91550000Y-134528685D02*
X91621429Y-134457257D01*
X91621429Y-134457257D02*
X91764286Y-134385828D01*
X91764286Y-134385828D02*
X91978572Y-134385828D01*
X91978572Y-134385828D02*
X92121429Y-134457257D01*
X92121429Y-134457257D02*
X92192858Y-134528685D01*
X92192858Y-134528685D02*
X92264286Y-134671542D01*
X92264286Y-134671542D02*
X92264286Y-135100114D01*
X92264286Y-135100114D02*
X92192858Y-135242971D01*
X92192858Y-135242971D02*
X92121429Y-135314400D01*
X92121429Y-135314400D02*
X91978572Y-135385828D01*
X91978572Y-135385828D02*
X91764286Y-135385828D01*
X92907143Y-135385828D02*
X92907143Y-134385828D01*
X92907143Y-134528685D02*
X92978572Y-134457257D01*
X92978572Y-134457257D02*
X93121429Y-134385828D01*
X93121429Y-134385828D02*
X93335715Y-134385828D01*
X93335715Y-134385828D02*
X93478572Y-134457257D01*
X93478572Y-134457257D02*
X93550001Y-134600114D01*
X93550001Y-134600114D02*
X93550001Y-135385828D01*
X93550001Y-134600114D02*
X93621429Y-134457257D01*
X93621429Y-134457257D02*
X93764286Y-134385828D01*
X93764286Y-134385828D02*
X93978572Y-134385828D01*
X93978572Y-134385828D02*
X94121429Y-134457257D01*
X94121429Y-134457257D02*
X94192858Y-134600114D01*
X94192858Y-134600114D02*
X94192858Y-135385828D01*
X95978572Y-133814400D02*
X94692858Y-135742971D01*
X96478572Y-135385828D02*
X96478572Y-133885828D01*
X96478572Y-133885828D02*
X97050001Y-133885828D01*
X97050001Y-133885828D02*
X97192858Y-133957257D01*
X97192858Y-133957257D02*
X97264287Y-134028685D01*
X97264287Y-134028685D02*
X97335715Y-134171542D01*
X97335715Y-134171542D02*
X97335715Y-134385828D01*
X97335715Y-134385828D02*
X97264287Y-134528685D01*
X97264287Y-134528685D02*
X97192858Y-134600114D01*
X97192858Y-134600114D02*
X97050001Y-134671542D01*
X97050001Y-134671542D02*
X96478572Y-134671542D01*
X97978572Y-135385828D02*
X97978572Y-134385828D01*
X97978572Y-133885828D02*
X97907144Y-133957257D01*
X97907144Y-133957257D02*
X97978572Y-134028685D01*
X97978572Y-134028685D02*
X98050001Y-133957257D01*
X98050001Y-133957257D02*
X97978572Y-133885828D01*
X97978572Y-133885828D02*
X97978572Y-134028685D01*
X98692858Y-135385828D02*
X98692858Y-134385828D01*
X98692858Y-134528685D02*
X98764287Y-134457257D01*
X98764287Y-134457257D02*
X98907144Y-134385828D01*
X98907144Y-134385828D02*
X99121430Y-134385828D01*
X99121430Y-134385828D02*
X99264287Y-134457257D01*
X99264287Y-134457257D02*
X99335716Y-134600114D01*
X99335716Y-134600114D02*
X99335716Y-135385828D01*
X99335716Y-134600114D02*
X99407144Y-134457257D01*
X99407144Y-134457257D02*
X99550001Y-134385828D01*
X99550001Y-134385828D02*
X99764287Y-134385828D01*
X99764287Y-134385828D02*
X99907144Y-134457257D01*
X99907144Y-134457257D02*
X99978573Y-134600114D01*
X99978573Y-134600114D02*
X99978573Y-135385828D01*
X101264287Y-135314400D02*
X101121430Y-135385828D01*
X101121430Y-135385828D02*
X100835716Y-135385828D01*
X100835716Y-135385828D02*
X100692858Y-135314400D01*
X100692858Y-135314400D02*
X100621430Y-135171542D01*
X100621430Y-135171542D02*
X100621430Y-134600114D01*
X100621430Y-134600114D02*
X100692858Y-134457257D01*
X100692858Y-134457257D02*
X100835716Y-134385828D01*
X100835716Y-134385828D02*
X101121430Y-134385828D01*
X101121430Y-134385828D02*
X101264287Y-134457257D01*
X101264287Y-134457257D02*
X101335716Y-134600114D01*
X101335716Y-134600114D02*
X101335716Y-134742971D01*
X101335716Y-134742971D02*
X100621430Y-134885828D01*
X101978572Y-134385828D02*
X101978572Y-135385828D01*
X101978572Y-134528685D02*
X102050001Y-134457257D01*
X102050001Y-134457257D02*
X102192858Y-134385828D01*
X102192858Y-134385828D02*
X102407144Y-134385828D01*
X102407144Y-134385828D02*
X102550001Y-134457257D01*
X102550001Y-134457257D02*
X102621430Y-134600114D01*
X102621430Y-134600114D02*
X102621430Y-135385828D01*
X103121430Y-134385828D02*
X103692858Y-134385828D01*
X103335715Y-133885828D02*
X103335715Y-135171542D01*
X103335715Y-135171542D02*
X103407144Y-135314400D01*
X103407144Y-135314400D02*
X103550001Y-135385828D01*
X103550001Y-135385828D02*
X103692858Y-135385828D01*
X104407144Y-135385828D02*
X104264287Y-135314400D01*
X104264287Y-135314400D02*
X104192858Y-135242971D01*
X104192858Y-135242971D02*
X104121430Y-135100114D01*
X104121430Y-135100114D02*
X104121430Y-134671542D01*
X104121430Y-134671542D02*
X104192858Y-134528685D01*
X104192858Y-134528685D02*
X104264287Y-134457257D01*
X104264287Y-134457257D02*
X104407144Y-134385828D01*
X104407144Y-134385828D02*
X104621430Y-134385828D01*
X104621430Y-134385828D02*
X104764287Y-134457257D01*
X104764287Y-134457257D02*
X104835716Y-134528685D01*
X104835716Y-134528685D02*
X104907144Y-134671542D01*
X104907144Y-134671542D02*
X104907144Y-135100114D01*
X104907144Y-135100114D02*
X104835716Y-135242971D01*
X104835716Y-135242971D02*
X104764287Y-135314400D01*
X104764287Y-135314400D02*
X104621430Y-135385828D01*
X104621430Y-135385828D02*
X104407144Y-135385828D01*
X105478573Y-135314400D02*
X105621430Y-135385828D01*
X105621430Y-135385828D02*
X105907144Y-135385828D01*
X105907144Y-135385828D02*
X106050001Y-135314400D01*
X106050001Y-135314400D02*
X106121430Y-135171542D01*
X106121430Y-135171542D02*
X106121430Y-135100114D01*
X106121430Y-135100114D02*
X106050001Y-134957257D01*
X106050001Y-134957257D02*
X105907144Y-134885828D01*
X105907144Y-134885828D02*
X105692859Y-134885828D01*
X105692859Y-134885828D02*
X105550001Y-134814400D01*
X105550001Y-134814400D02*
X105478573Y-134671542D01*
X105478573Y-134671542D02*
X105478573Y-134600114D01*
X105478573Y-134600114D02*
X105550001Y-134457257D01*
X105550001Y-134457257D02*
X105692859Y-134385828D01*
X105692859Y-134385828D02*
X105907144Y-134385828D01*
X105907144Y-134385828D02*
X106050001Y-134457257D01*
X106978573Y-135385828D02*
X106835716Y-135314400D01*
X106835716Y-135314400D02*
X106764287Y-135242971D01*
X106764287Y-135242971D02*
X106692859Y-135100114D01*
X106692859Y-135100114D02*
X106692859Y-134671542D01*
X106692859Y-134671542D02*
X106764287Y-134528685D01*
X106764287Y-134528685D02*
X106835716Y-134457257D01*
X106835716Y-134457257D02*
X106978573Y-134385828D01*
X106978573Y-134385828D02*
X107192859Y-134385828D01*
X107192859Y-134385828D02*
X107335716Y-134457257D01*
X107335716Y-134457257D02*
X107407145Y-134528685D01*
X107407145Y-134528685D02*
X107478573Y-134671542D01*
X107478573Y-134671542D02*
X107478573Y-135100114D01*
X107478573Y-135100114D02*
X107407145Y-135242971D01*
X107407145Y-135242971D02*
X107335716Y-135314400D01*
X107335716Y-135314400D02*
X107192859Y-135385828D01*
X107192859Y-135385828D02*
X106978573Y-135385828D01*
X109192859Y-133814400D02*
X107907145Y-135742971D01*
X109907145Y-135385828D02*
X109764288Y-135314400D01*
X109764288Y-135314400D02*
X109692859Y-135242971D01*
X109692859Y-135242971D02*
X109621431Y-135100114D01*
X109621431Y-135100114D02*
X109621431Y-134671542D01*
X109621431Y-134671542D02*
X109692859Y-134528685D01*
X109692859Y-134528685D02*
X109764288Y-134457257D01*
X109764288Y-134457257D02*
X109907145Y-134385828D01*
X109907145Y-134385828D02*
X110121431Y-134385828D01*
X110121431Y-134385828D02*
X110264288Y-134457257D01*
X110264288Y-134457257D02*
X110335717Y-134528685D01*
X110335717Y-134528685D02*
X110407145Y-134671542D01*
X110407145Y-134671542D02*
X110407145Y-135100114D01*
X110407145Y-135100114D02*
X110335717Y-135242971D01*
X110335717Y-135242971D02*
X110264288Y-135314400D01*
X110264288Y-135314400D02*
X110121431Y-135385828D01*
X110121431Y-135385828D02*
X109907145Y-135385828D01*
X111050002Y-134385828D02*
X111050002Y-135885828D01*
X111050002Y-134457257D02*
X111192860Y-134385828D01*
X111192860Y-134385828D02*
X111478574Y-134385828D01*
X111478574Y-134385828D02*
X111621431Y-134457257D01*
X111621431Y-134457257D02*
X111692860Y-134528685D01*
X111692860Y-134528685D02*
X111764288Y-134671542D01*
X111764288Y-134671542D02*
X111764288Y-135100114D01*
X111764288Y-135100114D02*
X111692860Y-135242971D01*
X111692860Y-135242971D02*
X111621431Y-135314400D01*
X111621431Y-135314400D02*
X111478574Y-135385828D01*
X111478574Y-135385828D02*
X111192860Y-135385828D01*
X111192860Y-135385828D02*
X111050002Y-135314400D01*
X112978574Y-135314400D02*
X112835717Y-135385828D01*
X112835717Y-135385828D02*
X112550003Y-135385828D01*
X112550003Y-135385828D02*
X112407145Y-135314400D01*
X112407145Y-135314400D02*
X112335717Y-135171542D01*
X112335717Y-135171542D02*
X112335717Y-134600114D01*
X112335717Y-134600114D02*
X112407145Y-134457257D01*
X112407145Y-134457257D02*
X112550003Y-134385828D01*
X112550003Y-134385828D02*
X112835717Y-134385828D01*
X112835717Y-134385828D02*
X112978574Y-134457257D01*
X112978574Y-134457257D02*
X113050003Y-134600114D01*
X113050003Y-134600114D02*
X113050003Y-134742971D01*
X113050003Y-134742971D02*
X112335717Y-134885828D01*
X113692859Y-134385828D02*
X113692859Y-135385828D01*
X113692859Y-134528685D02*
X113764288Y-134457257D01*
X113764288Y-134457257D02*
X113907145Y-134385828D01*
X113907145Y-134385828D02*
X114121431Y-134385828D01*
X114121431Y-134385828D02*
X114264288Y-134457257D01*
X114264288Y-134457257D02*
X114335717Y-134600114D01*
X114335717Y-134600114D02*
X114335717Y-135385828D01*
X114692860Y-135528685D02*
X115835717Y-135528685D01*
X115978574Y-134385828D02*
X116550002Y-134385828D01*
X116192859Y-133885828D02*
X116192859Y-135171542D01*
X116192859Y-135171542D02*
X116264288Y-135314400D01*
X116264288Y-135314400D02*
X116407145Y-135385828D01*
X116407145Y-135385828D02*
X116550002Y-135385828D01*
X117050002Y-135385828D02*
X117050002Y-133885828D01*
X117692860Y-135385828D02*
X117692860Y-134600114D01*
X117692860Y-134600114D02*
X117621431Y-134457257D01*
X117621431Y-134457257D02*
X117478574Y-134385828D01*
X117478574Y-134385828D02*
X117264288Y-134385828D01*
X117264288Y-134385828D02*
X117121431Y-134457257D01*
X117121431Y-134457257D02*
X117050002Y-134528685D01*
X118978574Y-135314400D02*
X118835717Y-135385828D01*
X118835717Y-135385828D02*
X118550003Y-135385828D01*
X118550003Y-135385828D02*
X118407145Y-135314400D01*
X118407145Y-135314400D02*
X118335717Y-135171542D01*
X118335717Y-135171542D02*
X118335717Y-134600114D01*
X118335717Y-134600114D02*
X118407145Y-134457257D01*
X118407145Y-134457257D02*
X118550003Y-134385828D01*
X118550003Y-134385828D02*
X118835717Y-134385828D01*
X118835717Y-134385828D02*
X118978574Y-134457257D01*
X118978574Y-134457257D02*
X119050003Y-134600114D01*
X119050003Y-134600114D02*
X119050003Y-134742971D01*
X119050003Y-134742971D02*
X118335717Y-134885828D01*
X119692859Y-135385828D02*
X119692859Y-134385828D01*
X119692859Y-134671542D02*
X119764288Y-134528685D01*
X119764288Y-134528685D02*
X119835717Y-134457257D01*
X119835717Y-134457257D02*
X119978574Y-134385828D01*
X119978574Y-134385828D02*
X120121431Y-134385828D01*
X120621430Y-135385828D02*
X120621430Y-134385828D01*
X120621430Y-134528685D02*
X120692859Y-134457257D01*
X120692859Y-134457257D02*
X120835716Y-134385828D01*
X120835716Y-134385828D02*
X121050002Y-134385828D01*
X121050002Y-134385828D02*
X121192859Y-134457257D01*
X121192859Y-134457257D02*
X121264288Y-134600114D01*
X121264288Y-134600114D02*
X121264288Y-135385828D01*
X121264288Y-134600114D02*
X121335716Y-134457257D01*
X121335716Y-134457257D02*
X121478573Y-134385828D01*
X121478573Y-134385828D02*
X121692859Y-134385828D01*
X121692859Y-134385828D02*
X121835716Y-134457257D01*
X121835716Y-134457257D02*
X121907145Y-134600114D01*
X121907145Y-134600114D02*
X121907145Y-135385828D01*
X122835716Y-135385828D02*
X122692859Y-135314400D01*
X122692859Y-135314400D02*
X122621430Y-135242971D01*
X122621430Y-135242971D02*
X122550002Y-135100114D01*
X122550002Y-135100114D02*
X122550002Y-134671542D01*
X122550002Y-134671542D02*
X122621430Y-134528685D01*
X122621430Y-134528685D02*
X122692859Y-134457257D01*
X122692859Y-134457257D02*
X122835716Y-134385828D01*
X122835716Y-134385828D02*
X123050002Y-134385828D01*
X123050002Y-134385828D02*
X123192859Y-134457257D01*
X123192859Y-134457257D02*
X123264288Y-134528685D01*
X123264288Y-134528685D02*
X123335716Y-134671542D01*
X123335716Y-134671542D02*
X123335716Y-135100114D01*
X123335716Y-135100114D02*
X123264288Y-135242971D01*
X123264288Y-135242971D02*
X123192859Y-135314400D01*
X123192859Y-135314400D02*
X123050002Y-135385828D01*
X123050002Y-135385828D02*
X122835716Y-135385828D01*
X123907145Y-135314400D02*
X124050002Y-135385828D01*
X124050002Y-135385828D02*
X124335716Y-135385828D01*
X124335716Y-135385828D02*
X124478573Y-135314400D01*
X124478573Y-135314400D02*
X124550002Y-135171542D01*
X124550002Y-135171542D02*
X124550002Y-135100114D01*
X124550002Y-135100114D02*
X124478573Y-134957257D01*
X124478573Y-134957257D02*
X124335716Y-134885828D01*
X124335716Y-134885828D02*
X124121431Y-134885828D01*
X124121431Y-134885828D02*
X123978573Y-134814400D01*
X123978573Y-134814400D02*
X123907145Y-134671542D01*
X123907145Y-134671542D02*
X123907145Y-134600114D01*
X123907145Y-134600114D02*
X123978573Y-134457257D01*
X123978573Y-134457257D02*
X124121431Y-134385828D01*
X124121431Y-134385828D02*
X124335716Y-134385828D01*
X124335716Y-134385828D02*
X124478573Y-134457257D01*
X124978574Y-134385828D02*
X125550002Y-134385828D01*
X125192859Y-133885828D02*
X125192859Y-135171542D01*
X125192859Y-135171542D02*
X125264288Y-135314400D01*
X125264288Y-135314400D02*
X125407145Y-135385828D01*
X125407145Y-135385828D02*
X125550002Y-135385828D01*
X126692860Y-135385828D02*
X126692860Y-134600114D01*
X126692860Y-134600114D02*
X126621431Y-134457257D01*
X126621431Y-134457257D02*
X126478574Y-134385828D01*
X126478574Y-134385828D02*
X126192860Y-134385828D01*
X126192860Y-134385828D02*
X126050002Y-134457257D01*
X126692860Y-135314400D02*
X126550002Y-135385828D01*
X126550002Y-135385828D02*
X126192860Y-135385828D01*
X126192860Y-135385828D02*
X126050002Y-135314400D01*
X126050002Y-135314400D02*
X125978574Y-135171542D01*
X125978574Y-135171542D02*
X125978574Y-135028685D01*
X125978574Y-135028685D02*
X126050002Y-134885828D01*
X126050002Y-134885828D02*
X126192860Y-134814400D01*
X126192860Y-134814400D02*
X126550002Y-134814400D01*
X126550002Y-134814400D02*
X126692860Y-134742971D01*
X127192860Y-134385828D02*
X127764288Y-134385828D01*
X127407145Y-133885828D02*
X127407145Y-135171542D01*
X127407145Y-135171542D02*
X127478574Y-135314400D01*
X127478574Y-135314400D02*
X127621431Y-135385828D01*
X127621431Y-135385828D02*
X127764288Y-135385828D01*
D11*
X130649619Y-104323808D02*
X129649619Y-104323808D01*
X129649619Y-104323808D02*
X130363904Y-103990475D01*
X130363904Y-103990475D02*
X129649619Y-103657142D01*
X129649619Y-103657142D02*
X130649619Y-103657142D01*
X130363904Y-103228570D02*
X130363904Y-102752380D01*
X130649619Y-103323808D02*
X129649619Y-102990475D01*
X129649619Y-102990475D02*
X130649619Y-102657142D01*
X130649619Y-102323808D02*
X129649619Y-102323808D01*
X130649619Y-101847618D02*
X129649619Y-101847618D01*
X129649619Y-101847618D02*
X130649619Y-101276190D01*
X130649619Y-101276190D02*
X129649619Y-101276190D01*
D12*
X115520363Y-120159580D02*
X115472744Y-120207200D01*
X115472744Y-120207200D02*
X115329887Y-120254819D01*
X115329887Y-120254819D02*
X115234649Y-120254819D01*
X115234649Y-120254819D02*
X115091792Y-120207200D01*
X115091792Y-120207200D02*
X114996554Y-120111961D01*
X114996554Y-120111961D02*
X114948935Y-120016723D01*
X114948935Y-120016723D02*
X114901316Y-119826247D01*
X114901316Y-119826247D02*
X114901316Y-119683390D01*
X114901316Y-119683390D02*
X114948935Y-119492914D01*
X114948935Y-119492914D02*
X114996554Y-119397676D01*
X114996554Y-119397676D02*
X115091792Y-119302438D01*
X115091792Y-119302438D02*
X115234649Y-119254819D01*
X115234649Y-119254819D02*
X115329887Y-119254819D01*
X115329887Y-119254819D02*
X115472744Y-119302438D01*
X115472744Y-119302438D02*
X115520363Y-119350057D01*
X116139411Y-119254819D02*
X116329887Y-119254819D01*
X116329887Y-119254819D02*
X116425125Y-119302438D01*
X116425125Y-119302438D02*
X116520363Y-119397676D01*
X116520363Y-119397676D02*
X116567982Y-119588152D01*
X116567982Y-119588152D02*
X116567982Y-119921485D01*
X116567982Y-119921485D02*
X116520363Y-120111961D01*
X116520363Y-120111961D02*
X116425125Y-120207200D01*
X116425125Y-120207200D02*
X116329887Y-120254819D01*
X116329887Y-120254819D02*
X116139411Y-120254819D01*
X116139411Y-120254819D02*
X116044173Y-120207200D01*
X116044173Y-120207200D02*
X115948935Y-120111961D01*
X115948935Y-120111961D02*
X115901316Y-119921485D01*
X115901316Y-119921485D02*
X115901316Y-119588152D01*
X115901316Y-119588152D02*
X115948935Y-119397676D01*
X115948935Y-119397676D02*
X116044173Y-119302438D01*
X116044173Y-119302438D02*
X116139411Y-119254819D01*
X116996554Y-120254819D02*
X116996554Y-119254819D01*
X116996554Y-119254819D02*
X117329887Y-119969104D01*
X117329887Y-119969104D02*
X117663220Y-119254819D01*
X117663220Y-119254819D02*
X117663220Y-120254819D01*
X116091792Y-125254819D02*
X116091792Y-124254819D01*
X116091792Y-124254819D02*
X116663220Y-125254819D01*
X116663220Y-125254819D02*
X116663220Y-124254819D01*
X117710839Y-125159580D02*
X117663220Y-125207200D01*
X117663220Y-125207200D02*
X117520363Y-125254819D01*
X117520363Y-125254819D02*
X117425125Y-125254819D01*
X117425125Y-125254819D02*
X117282268Y-125207200D01*
X117282268Y-125207200D02*
X117187030Y-125111961D01*
X117187030Y-125111961D02*
X117139411Y-125016723D01*
X117139411Y-125016723D02*
X117091792Y-124826247D01*
X117091792Y-124826247D02*
X117091792Y-124683390D01*
X117091792Y-124683390D02*
X117139411Y-124492914D01*
X117139411Y-124492914D02*
X117187030Y-124397676D01*
X117187030Y-124397676D02*
X117282268Y-124302438D01*
X117282268Y-124302438D02*
X117425125Y-124254819D01*
X117425125Y-124254819D02*
X117520363Y-124254819D01*
X117520363Y-124254819D02*
X117663220Y-124302438D01*
X117663220Y-124302438D02*
X117710839Y-124350057D01*
X116044173Y-115254819D02*
X116044173Y-114254819D01*
X116044173Y-114254819D02*
X116615601Y-115254819D01*
X116615601Y-115254819D02*
X116615601Y-114254819D01*
X117282268Y-114254819D02*
X117472744Y-114254819D01*
X117472744Y-114254819D02*
X117567982Y-114302438D01*
X117567982Y-114302438D02*
X117663220Y-114397676D01*
X117663220Y-114397676D02*
X117710839Y-114588152D01*
X117710839Y-114588152D02*
X117710839Y-114921485D01*
X117710839Y-114921485D02*
X117663220Y-115111961D01*
X117663220Y-115111961D02*
X117567982Y-115207200D01*
X117567982Y-115207200D02*
X117472744Y-115254819D01*
X117472744Y-115254819D02*
X117282268Y-115254819D01*
X117282268Y-115254819D02*
X117187030Y-115207200D01*
X117187030Y-115207200D02*
X117091792Y-115111961D01*
X117091792Y-115111961D02*
X117044173Y-114921485D01*
X117044173Y-114921485D02*
X117044173Y-114588152D01*
X117044173Y-114588152D02*
X117091792Y-114397676D01*
X117091792Y-114397676D02*
X117187030Y-114302438D01*
X117187030Y-114302438D02*
X117282268Y-114254819D01*
D11*
X130649619Y-122299999D02*
X129649619Y-122299999D01*
X130125809Y-122299999D02*
X130125809Y-121728571D01*
X130649619Y-121728571D02*
X129649619Y-121728571D01*
X130125809Y-121252380D02*
X130125809Y-120919047D01*
X130649619Y-120776190D02*
X130649619Y-121252380D01*
X130649619Y-121252380D02*
X129649619Y-121252380D01*
X129649619Y-121252380D02*
X129649619Y-120776190D01*
X130363904Y-120395237D02*
X130363904Y-119919047D01*
X130649619Y-120490475D02*
X129649619Y-120157142D01*
X129649619Y-120157142D02*
X130649619Y-119823809D01*
X129649619Y-119633332D02*
X129649619Y-119061904D01*
X130649619Y-119347618D02*
X129649619Y-119347618D01*
X130125809Y-118728570D02*
X130125809Y-118395237D01*
X130649619Y-118252380D02*
X130649619Y-118728570D01*
X130649619Y-118728570D02*
X129649619Y-118728570D01*
X129649619Y-118728570D02*
X129649619Y-118252380D01*
X130649619Y-117252380D02*
X130173428Y-117585713D01*
X130649619Y-117823808D02*
X129649619Y-117823808D01*
X129649619Y-117823808D02*
X129649619Y-117442856D01*
X129649619Y-117442856D02*
X129697238Y-117347618D01*
X129697238Y-117347618D02*
X129744857Y-117299999D01*
X129744857Y-117299999D02*
X129840095Y-117252380D01*
X129840095Y-117252380D02*
X129982952Y-117252380D01*
X129982952Y-117252380D02*
X130078190Y-117299999D01*
X130078190Y-117299999D02*
X130125809Y-117347618D01*
X130125809Y-117347618D02*
X130173428Y-117442856D01*
X130173428Y-117442856D02*
X130173428Y-117823808D01*
D12*
X98691667Y-116507200D02*
X98834524Y-116554819D01*
X98834524Y-116554819D02*
X99072619Y-116554819D01*
X99072619Y-116554819D02*
X99167857Y-116507200D01*
X99167857Y-116507200D02*
X99215476Y-116459580D01*
X99215476Y-116459580D02*
X99263095Y-116364342D01*
X99263095Y-116364342D02*
X99263095Y-116269104D01*
X99263095Y-116269104D02*
X99215476Y-116173866D01*
X99215476Y-116173866D02*
X99167857Y-116126247D01*
X99167857Y-116126247D02*
X99072619Y-116078628D01*
X99072619Y-116078628D02*
X98882143Y-116031009D01*
X98882143Y-116031009D02*
X98786905Y-115983390D01*
X98786905Y-115983390D02*
X98739286Y-115935771D01*
X98739286Y-115935771D02*
X98691667Y-115840533D01*
X98691667Y-115840533D02*
X98691667Y-115745295D01*
X98691667Y-115745295D02*
X98739286Y-115650057D01*
X98739286Y-115650057D02*
X98786905Y-115602438D01*
X98786905Y-115602438D02*
X98882143Y-115554819D01*
X98882143Y-115554819D02*
X99120238Y-115554819D01*
X99120238Y-115554819D02*
X99263095Y-115602438D01*
X99596429Y-115554819D02*
X99834524Y-116554819D01*
X99834524Y-116554819D02*
X100025000Y-115840533D01*
X100025000Y-115840533D02*
X100215476Y-116554819D01*
X100215476Y-116554819D02*
X100453572Y-115554819D01*
X101358333Y-116554819D02*
X100786905Y-116554819D01*
X101072619Y-116554819D02*
X101072619Y-115554819D01*
X101072619Y-115554819D02*
X100977381Y-115697676D01*
X100977381Y-115697676D02*
X100882143Y-115792914D01*
X100882143Y-115792914D02*
X100786905Y-115840533D01*
X117854819Y-82614285D02*
X116854819Y-82614285D01*
X116854819Y-82614285D02*
X116854819Y-82233333D01*
X116854819Y-82233333D02*
X116902438Y-82138095D01*
X116902438Y-82138095D02*
X116950057Y-82090476D01*
X116950057Y-82090476D02*
X117045295Y-82042857D01*
X117045295Y-82042857D02*
X117188152Y-82042857D01*
X117188152Y-82042857D02*
X117283390Y-82090476D01*
X117283390Y-82090476D02*
X117331009Y-82138095D01*
X117331009Y-82138095D02*
X117378628Y-82233333D01*
X117378628Y-82233333D02*
X117378628Y-82614285D01*
X117807200Y-81661904D02*
X117854819Y-81519047D01*
X117854819Y-81519047D02*
X117854819Y-81280952D01*
X117854819Y-81280952D02*
X117807200Y-81185714D01*
X117807200Y-81185714D02*
X117759580Y-81138095D01*
X117759580Y-81138095D02*
X117664342Y-81090476D01*
X117664342Y-81090476D02*
X117569104Y-81090476D01*
X117569104Y-81090476D02*
X117473866Y-81138095D01*
X117473866Y-81138095D02*
X117426247Y-81185714D01*
X117426247Y-81185714D02*
X117378628Y-81280952D01*
X117378628Y-81280952D02*
X117331009Y-81471428D01*
X117331009Y-81471428D02*
X117283390Y-81566666D01*
X117283390Y-81566666D02*
X117235771Y-81614285D01*
X117235771Y-81614285D02*
X117140533Y-81661904D01*
X117140533Y-81661904D02*
X117045295Y-81661904D01*
X117045295Y-81661904D02*
X116950057Y-81614285D01*
X116950057Y-81614285D02*
X116902438Y-81566666D01*
X116902438Y-81566666D02*
X116854819Y-81471428D01*
X116854819Y-81471428D02*
X116854819Y-81233333D01*
X116854819Y-81233333D02*
X116902438Y-81090476D01*
X117854819Y-80138095D02*
X117854819Y-80709523D01*
X117854819Y-80423809D02*
X116854819Y-80423809D01*
X116854819Y-80423809D02*
X116997676Y-80519047D01*
X116997676Y-80519047D02*
X117092914Y-80614285D01*
X117092914Y-80614285D02*
X117140533Y-80709523D01*
X127971428Y-69645180D02*
X127971428Y-70645180D01*
X127971428Y-70645180D02*
X127733333Y-70645180D01*
X127733333Y-70645180D02*
X127590476Y-70597561D01*
X127590476Y-70597561D02*
X127495238Y-70502323D01*
X127495238Y-70502323D02*
X127447619Y-70407085D01*
X127447619Y-70407085D02*
X127400000Y-70216609D01*
X127400000Y-70216609D02*
X127400000Y-70073752D01*
X127400000Y-70073752D02*
X127447619Y-69883276D01*
X127447619Y-69883276D02*
X127495238Y-69788038D01*
X127495238Y-69788038D02*
X127590476Y-69692800D01*
X127590476Y-69692800D02*
X127733333Y-69645180D01*
X127733333Y-69645180D02*
X127971428Y-69645180D01*
X126400000Y-69740419D02*
X126447619Y-69692800D01*
X126447619Y-69692800D02*
X126590476Y-69645180D01*
X126590476Y-69645180D02*
X126685714Y-69645180D01*
X126685714Y-69645180D02*
X126828571Y-69692800D01*
X126828571Y-69692800D02*
X126923809Y-69788038D01*
X126923809Y-69788038D02*
X126971428Y-69883276D01*
X126971428Y-69883276D02*
X127019047Y-70073752D01*
X127019047Y-70073752D02*
X127019047Y-70216609D01*
X127019047Y-70216609D02*
X126971428Y-70407085D01*
X126971428Y-70407085D02*
X126923809Y-70502323D01*
X126923809Y-70502323D02*
X126828571Y-70597561D01*
X126828571Y-70597561D02*
X126685714Y-70645180D01*
X126685714Y-70645180D02*
X126590476Y-70645180D01*
X126590476Y-70645180D02*
X126447619Y-70597561D01*
X126447619Y-70597561D02*
X126400000Y-70549942D01*
X125019047Y-70645180D02*
X124828571Y-70645180D01*
X124828571Y-70645180D02*
X124733333Y-70597561D01*
X124733333Y-70597561D02*
X124638095Y-70502323D01*
X124638095Y-70502323D02*
X124590476Y-70311847D01*
X124590476Y-70311847D02*
X124590476Y-69978514D01*
X124590476Y-69978514D02*
X124638095Y-69788038D01*
X124638095Y-69788038D02*
X124733333Y-69692800D01*
X124733333Y-69692800D02*
X124828571Y-69645180D01*
X124828571Y-69645180D02*
X125019047Y-69645180D01*
X125019047Y-69645180D02*
X125114285Y-69692800D01*
X125114285Y-69692800D02*
X125209523Y-69788038D01*
X125209523Y-69788038D02*
X125257142Y-69978514D01*
X125257142Y-69978514D02*
X125257142Y-70311847D01*
X125257142Y-70311847D02*
X125209523Y-70502323D01*
X125209523Y-70502323D02*
X125114285Y-70597561D01*
X125114285Y-70597561D02*
X125019047Y-70645180D01*
X124161904Y-70645180D02*
X124161904Y-69835657D01*
X124161904Y-69835657D02*
X124114285Y-69740419D01*
X124114285Y-69740419D02*
X124066666Y-69692800D01*
X124066666Y-69692800D02*
X123971428Y-69645180D01*
X123971428Y-69645180D02*
X123780952Y-69645180D01*
X123780952Y-69645180D02*
X123685714Y-69692800D01*
X123685714Y-69692800D02*
X123638095Y-69740419D01*
X123638095Y-69740419D02*
X123590476Y-69835657D01*
X123590476Y-69835657D02*
X123590476Y-70645180D01*
X123257142Y-70645180D02*
X122685714Y-70645180D01*
X122971428Y-69645180D02*
X122971428Y-70645180D01*
X118673866Y-68280951D02*
X118673866Y-67519047D01*
D13*
X115478571Y-92754957D02*
X116192857Y-92754957D01*
X115335714Y-93183528D02*
X115835714Y-91683528D01*
X115835714Y-91683528D02*
X116335714Y-93183528D01*
X117692856Y-93040671D02*
X117621428Y-93112100D01*
X117621428Y-93112100D02*
X117407142Y-93183528D01*
X117407142Y-93183528D02*
X117264285Y-93183528D01*
X117264285Y-93183528D02*
X117049999Y-93112100D01*
X117049999Y-93112100D02*
X116907142Y-92969242D01*
X116907142Y-92969242D02*
X116835713Y-92826385D01*
X116835713Y-92826385D02*
X116764285Y-92540671D01*
X116764285Y-92540671D02*
X116764285Y-92326385D01*
X116764285Y-92326385D02*
X116835713Y-92040671D01*
X116835713Y-92040671D02*
X116907142Y-91897814D01*
X116907142Y-91897814D02*
X117049999Y-91754957D01*
X117049999Y-91754957D02*
X117264285Y-91683528D01*
X117264285Y-91683528D02*
X117407142Y-91683528D01*
X117407142Y-91683528D02*
X117621428Y-91754957D01*
X117621428Y-91754957D02*
X117692856Y-91826385D01*
X119478570Y-93183528D02*
X119478570Y-91683528D01*
X120192856Y-93183528D02*
X120192856Y-91683528D01*
X120192856Y-91683528D02*
X121049999Y-93183528D01*
X121049999Y-93183528D02*
X121049999Y-91683528D01*
D12*
X132273866Y-68280951D02*
X132273866Y-67519047D01*
X132654819Y-67899999D02*
X131892914Y-67899999D01*
X125533333Y-63109580D02*
X125485714Y-63157200D01*
X125485714Y-63157200D02*
X125342857Y-63204819D01*
X125342857Y-63204819D02*
X125247619Y-63204819D01*
X125247619Y-63204819D02*
X125104762Y-63157200D01*
X125104762Y-63157200D02*
X125009524Y-63061961D01*
X125009524Y-63061961D02*
X124961905Y-62966723D01*
X124961905Y-62966723D02*
X124914286Y-62776247D01*
X124914286Y-62776247D02*
X124914286Y-62633390D01*
X124914286Y-62633390D02*
X124961905Y-62442914D01*
X124961905Y-62442914D02*
X125009524Y-62347676D01*
X125009524Y-62347676D02*
X125104762Y-62252438D01*
X125104762Y-62252438D02*
X125247619Y-62204819D01*
X125247619Y-62204819D02*
X125342857Y-62204819D01*
X125342857Y-62204819D02*
X125485714Y-62252438D01*
X125485714Y-62252438D02*
X125533333Y-62300057D01*
X126485714Y-63204819D02*
X125914286Y-63204819D01*
X126200000Y-63204819D02*
X126200000Y-62204819D01*
X126200000Y-62204819D02*
X126104762Y-62347676D01*
X126104762Y-62347676D02*
X126009524Y-62442914D01*
X126009524Y-62442914D02*
X125914286Y-62490533D01*
X102838095Y-146254819D02*
X102838095Y-147064342D01*
X102838095Y-147064342D02*
X102885714Y-147159580D01*
X102885714Y-147159580D02*
X102933333Y-147207200D01*
X102933333Y-147207200D02*
X103028571Y-147254819D01*
X103028571Y-147254819D02*
X103219047Y-147254819D01*
X103219047Y-147254819D02*
X103314285Y-147207200D01*
X103314285Y-147207200D02*
X103361904Y-147159580D01*
X103361904Y-147159580D02*
X103409523Y-147064342D01*
X103409523Y-147064342D02*
X103409523Y-146254819D01*
X103838095Y-146350057D02*
X103885714Y-146302438D01*
X103885714Y-146302438D02*
X103980952Y-146254819D01*
X103980952Y-146254819D02*
X104219047Y-146254819D01*
X104219047Y-146254819D02*
X104314285Y-146302438D01*
X104314285Y-146302438D02*
X104361904Y-146350057D01*
X104361904Y-146350057D02*
X104409523Y-146445295D01*
X104409523Y-146445295D02*
X104409523Y-146540533D01*
X104409523Y-146540533D02*
X104361904Y-146683390D01*
X104361904Y-146683390D02*
X103790476Y-147254819D01*
X103790476Y-147254819D02*
X104409523Y-147254819D01*
X80553333Y-72918153D02*
X80220000Y-72441962D01*
X79981905Y-72918153D02*
X79981905Y-71918153D01*
X79981905Y-71918153D02*
X80362857Y-71918153D01*
X80362857Y-71918153D02*
X80458095Y-71965772D01*
X80458095Y-71965772D02*
X80505714Y-72013391D01*
X80505714Y-72013391D02*
X80553333Y-72108629D01*
X80553333Y-72108629D02*
X80553333Y-72251486D01*
X80553333Y-72251486D02*
X80505714Y-72346724D01*
X80505714Y-72346724D02*
X80458095Y-72394343D01*
X80458095Y-72394343D02*
X80362857Y-72441962D01*
X80362857Y-72441962D02*
X79981905Y-72441962D01*
X81505714Y-72918153D02*
X80934286Y-72918153D01*
X81220000Y-72918153D02*
X81220000Y-71918153D01*
X81220000Y-71918153D02*
X81124762Y-72061010D01*
X81124762Y-72061010D02*
X81029524Y-72156248D01*
X81029524Y-72156248D02*
X80934286Y-72203867D01*
X78166666Y-103479819D02*
X78166666Y-104194104D01*
X78166666Y-104194104D02*
X78119047Y-104336961D01*
X78119047Y-104336961D02*
X78023809Y-104432200D01*
X78023809Y-104432200D02*
X77880952Y-104479819D01*
X77880952Y-104479819D02*
X77785714Y-104479819D01*
X78595238Y-103575057D02*
X78642857Y-103527438D01*
X78642857Y-103527438D02*
X78738095Y-103479819D01*
X78738095Y-103479819D02*
X78976190Y-103479819D01*
X78976190Y-103479819D02*
X79071428Y-103527438D01*
X79071428Y-103527438D02*
X79119047Y-103575057D01*
X79119047Y-103575057D02*
X79166666Y-103670295D01*
X79166666Y-103670295D02*
X79166666Y-103765533D01*
X79166666Y-103765533D02*
X79119047Y-103908390D01*
X79119047Y-103908390D02*
X78547619Y-104479819D01*
X78547619Y-104479819D02*
X79166666Y-104479819D01*
X80553333Y-78484819D02*
X80220000Y-78008628D01*
X79981905Y-78484819D02*
X79981905Y-77484819D01*
X79981905Y-77484819D02*
X80362857Y-77484819D01*
X80362857Y-77484819D02*
X80458095Y-77532438D01*
X80458095Y-77532438D02*
X80505714Y-77580057D01*
X80505714Y-77580057D02*
X80553333Y-77675295D01*
X80553333Y-77675295D02*
X80553333Y-77818152D01*
X80553333Y-77818152D02*
X80505714Y-77913390D01*
X80505714Y-77913390D02*
X80458095Y-77961009D01*
X80458095Y-77961009D02*
X80362857Y-78008628D01*
X80362857Y-78008628D02*
X79981905Y-78008628D01*
X80934286Y-77580057D02*
X80981905Y-77532438D01*
X80981905Y-77532438D02*
X81077143Y-77484819D01*
X81077143Y-77484819D02*
X81315238Y-77484819D01*
X81315238Y-77484819D02*
X81410476Y-77532438D01*
X81410476Y-77532438D02*
X81458095Y-77580057D01*
X81458095Y-77580057D02*
X81505714Y-77675295D01*
X81505714Y-77675295D02*
X81505714Y-77770533D01*
X81505714Y-77770533D02*
X81458095Y-77913390D01*
X81458095Y-77913390D02*
X80886667Y-78484819D01*
X80886667Y-78484819D02*
X81505714Y-78484819D01*
X118894819Y-103233333D02*
X119609104Y-103233333D01*
X119609104Y-103233333D02*
X119751961Y-103280952D01*
X119751961Y-103280952D02*
X119847200Y-103376190D01*
X119847200Y-103376190D02*
X119894819Y-103519047D01*
X119894819Y-103519047D02*
X119894819Y-103614285D01*
X119228152Y-102328571D02*
X119894819Y-102328571D01*
X118847200Y-102566666D02*
X119561485Y-102804761D01*
X119561485Y-102804761D02*
X119561485Y-102185714D01*
X118694819Y-120133333D02*
X119409104Y-120133333D01*
X119409104Y-120133333D02*
X119551961Y-120180952D01*
X119551961Y-120180952D02*
X119647200Y-120276190D01*
X119647200Y-120276190D02*
X119694819Y-120419047D01*
X119694819Y-120419047D02*
X119694819Y-120514285D01*
X119694819Y-119133333D02*
X119694819Y-119704761D01*
X119694819Y-119419047D02*
X118694819Y-119419047D01*
X118694819Y-119419047D02*
X118837676Y-119514285D01*
X118837676Y-119514285D02*
X118932914Y-119609523D01*
X118932914Y-119609523D02*
X118980533Y-119704761D01*
X102666905Y-80214819D02*
X102666905Y-79214819D01*
X102666905Y-79214819D02*
X102905000Y-79214819D01*
X102905000Y-79214819D02*
X103047857Y-79262438D01*
X103047857Y-79262438D02*
X103143095Y-79357676D01*
X103143095Y-79357676D02*
X103190714Y-79452914D01*
X103190714Y-79452914D02*
X103238333Y-79643390D01*
X103238333Y-79643390D02*
X103238333Y-79786247D01*
X103238333Y-79786247D02*
X103190714Y-79976723D01*
X103190714Y-79976723D02*
X103143095Y-80071961D01*
X103143095Y-80071961D02*
X103047857Y-80167200D01*
X103047857Y-80167200D02*
X102905000Y-80214819D01*
X102905000Y-80214819D02*
X102666905Y-80214819D01*
X103619286Y-79310057D02*
X103666905Y-79262438D01*
X103666905Y-79262438D02*
X103762143Y-79214819D01*
X103762143Y-79214819D02*
X104000238Y-79214819D01*
X104000238Y-79214819D02*
X104095476Y-79262438D01*
X104095476Y-79262438D02*
X104143095Y-79310057D01*
X104143095Y-79310057D02*
X104190714Y-79405295D01*
X104190714Y-79405295D02*
X104190714Y-79500533D01*
X104190714Y-79500533D02*
X104143095Y-79643390D01*
X104143095Y-79643390D02*
X103571667Y-80214819D01*
X103571667Y-80214819D02*
X104190714Y-80214819D01*
X80553333Y-88824819D02*
X80220000Y-88348628D01*
X79981905Y-88824819D02*
X79981905Y-87824819D01*
X79981905Y-87824819D02*
X80362857Y-87824819D01*
X80362857Y-87824819D02*
X80458095Y-87872438D01*
X80458095Y-87872438D02*
X80505714Y-87920057D01*
X80505714Y-87920057D02*
X80553333Y-88015295D01*
X80553333Y-88015295D02*
X80553333Y-88158152D01*
X80553333Y-88158152D02*
X80505714Y-88253390D01*
X80505714Y-88253390D02*
X80458095Y-88301009D01*
X80458095Y-88301009D02*
X80362857Y-88348628D01*
X80362857Y-88348628D02*
X79981905Y-88348628D01*
X81410476Y-88158152D02*
X81410476Y-88824819D01*
X81172381Y-87777200D02*
X80934286Y-88491485D01*
X80934286Y-88491485D02*
X81553333Y-88491485D01*
X88438095Y-90454819D02*
X88438095Y-91264342D01*
X88438095Y-91264342D02*
X88485714Y-91359580D01*
X88485714Y-91359580D02*
X88533333Y-91407200D01*
X88533333Y-91407200D02*
X88628571Y-91454819D01*
X88628571Y-91454819D02*
X88819047Y-91454819D01*
X88819047Y-91454819D02*
X88914285Y-91407200D01*
X88914285Y-91407200D02*
X88961904Y-91359580D01*
X88961904Y-91359580D02*
X89009523Y-91264342D01*
X89009523Y-91264342D02*
X89009523Y-90454819D01*
X90009523Y-91454819D02*
X89438095Y-91454819D01*
X89723809Y-91454819D02*
X89723809Y-90454819D01*
X89723809Y-90454819D02*
X89628571Y-90597676D01*
X89628571Y-90597676D02*
X89533333Y-90692914D01*
X89533333Y-90692914D02*
X89438095Y-90740533D01*
X80504761Y-64950057D02*
X80409523Y-64902438D01*
X80409523Y-64902438D02*
X80314285Y-64807200D01*
X80314285Y-64807200D02*
X80171428Y-64664342D01*
X80171428Y-64664342D02*
X80076190Y-64616723D01*
X80076190Y-64616723D02*
X79980952Y-64616723D01*
X80028571Y-64854819D02*
X79933333Y-64807200D01*
X79933333Y-64807200D02*
X79838095Y-64711961D01*
X79838095Y-64711961D02*
X79790476Y-64521485D01*
X79790476Y-64521485D02*
X79790476Y-64188152D01*
X79790476Y-64188152D02*
X79838095Y-63997676D01*
X79838095Y-63997676D02*
X79933333Y-63902438D01*
X79933333Y-63902438D02*
X80028571Y-63854819D01*
X80028571Y-63854819D02*
X80219047Y-63854819D01*
X80219047Y-63854819D02*
X80314285Y-63902438D01*
X80314285Y-63902438D02*
X80409523Y-63997676D01*
X80409523Y-63997676D02*
X80457142Y-64188152D01*
X80457142Y-64188152D02*
X80457142Y-64521485D01*
X80457142Y-64521485D02*
X80409523Y-64711961D01*
X80409523Y-64711961D02*
X80314285Y-64807200D01*
X80314285Y-64807200D02*
X80219047Y-64854819D01*
X80219047Y-64854819D02*
X80028571Y-64854819D01*
X81409523Y-64854819D02*
X80838095Y-64854819D01*
X81123809Y-64854819D02*
X81123809Y-63854819D01*
X81123809Y-63854819D02*
X81028571Y-63997676D01*
X81028571Y-63997676D02*
X80933333Y-64092914D01*
X80933333Y-64092914D02*
X80838095Y-64140533D01*
X107784819Y-81618094D02*
X106784819Y-81618094D01*
X106784819Y-81618094D02*
X106784819Y-81379999D01*
X106784819Y-81379999D02*
X106832438Y-81237142D01*
X106832438Y-81237142D02*
X106927676Y-81141904D01*
X106927676Y-81141904D02*
X107022914Y-81094285D01*
X107022914Y-81094285D02*
X107213390Y-81046666D01*
X107213390Y-81046666D02*
X107356247Y-81046666D01*
X107356247Y-81046666D02*
X107546723Y-81094285D01*
X107546723Y-81094285D02*
X107641961Y-81141904D01*
X107641961Y-81141904D02*
X107737200Y-81237142D01*
X107737200Y-81237142D02*
X107784819Y-81379999D01*
X107784819Y-81379999D02*
X107784819Y-81618094D01*
X107784819Y-80094285D02*
X107784819Y-80665713D01*
X107784819Y-80379999D02*
X106784819Y-80379999D01*
X106784819Y-80379999D02*
X106927676Y-80475237D01*
X106927676Y-80475237D02*
X107022914Y-80570475D01*
X107022914Y-80570475D02*
X107070533Y-80665713D01*
X108154819Y-86221904D02*
X107154819Y-86221904D01*
X108154819Y-85650476D02*
X107583390Y-86079047D01*
X107154819Y-85650476D02*
X107726247Y-86221904D01*
X113054819Y-63038094D02*
X112054819Y-63038094D01*
X113054819Y-62466666D02*
X112483390Y-62895237D01*
X112054819Y-62466666D02*
X112626247Y-63038094D01*
X113054819Y-61514285D02*
X113054819Y-62085713D01*
X113054819Y-61799999D02*
X112054819Y-61799999D01*
X112054819Y-61799999D02*
X112197676Y-61895237D01*
X112197676Y-61895237D02*
X112292914Y-61990475D01*
X112292914Y-61990475D02*
X112340533Y-62085713D01*
X78166666Y-114004819D02*
X78166666Y-114719104D01*
X78166666Y-114719104D02*
X78119047Y-114861961D01*
X78119047Y-114861961D02*
X78023809Y-114957200D01*
X78023809Y-114957200D02*
X77880952Y-115004819D01*
X77880952Y-115004819D02*
X77785714Y-115004819D01*
X78547619Y-114004819D02*
X79166666Y-114004819D01*
X79166666Y-114004819D02*
X78833333Y-114385771D01*
X78833333Y-114385771D02*
X78976190Y-114385771D01*
X78976190Y-114385771D02*
X79071428Y-114433390D01*
X79071428Y-114433390D02*
X79119047Y-114481009D01*
X79119047Y-114481009D02*
X79166666Y-114576247D01*
X79166666Y-114576247D02*
X79166666Y-114814342D01*
X79166666Y-114814342D02*
X79119047Y-114909580D01*
X79119047Y-114909580D02*
X79071428Y-114957200D01*
X79071428Y-114957200D02*
X78976190Y-115004819D01*
X78976190Y-115004819D02*
X78690476Y-115004819D01*
X78690476Y-115004819D02*
X78595238Y-114957200D01*
X78595238Y-114957200D02*
X78547619Y-114909580D01*
D14*
%TO.C,SW1*%
X96795000Y-116920000D02*
X103255000Y-116920000D01*
X96795000Y-116950000D02*
X96795000Y-116920000D01*
X96795000Y-118850000D02*
X96795000Y-121450000D01*
X96795000Y-123380000D02*
X96795000Y-123350000D01*
X96795000Y-123380000D02*
X103255000Y-123380000D01*
X103255000Y-116920000D02*
X103255000Y-116950000D01*
X103255000Y-118850000D02*
X103255000Y-121450000D01*
X103255000Y-123380000D02*
X103255000Y-123350000D01*
%TO.C,PS1*%
X113000000Y-96400000D02*
X113000000Y-91200000D01*
X118200000Y-96400000D02*
X113000000Y-96400000D01*
X133000000Y-66400000D02*
X133000000Y-71600000D01*
X133000000Y-66400000D02*
X127800000Y-66400000D01*
X114600000Y-96100000D02*
X122200000Y-96100000D01*
X122200000Y-96100000D02*
X122200000Y-93700000D01*
X122200000Y-93700000D02*
X114600000Y-93700000D01*
X114600000Y-93700000D02*
X114600000Y-96100000D01*
X119200000Y-69100000D02*
X131600000Y-69100000D01*
X131600000Y-69100000D02*
X131600000Y-66700000D01*
X131600000Y-66700000D02*
X119200000Y-66700000D01*
X119200000Y-66700000D02*
X119200000Y-69100000D01*
%TO.C,C1*%
X124988748Y-63690000D02*
X126411252Y-63690000D01*
X124988748Y-65510000D02*
X126411252Y-65510000D01*
%TO.C,U2*%
X101730000Y-144950000D02*
X98130000Y-144950000D01*
X99930000Y-149400000D02*
G75*
G03*
X101768478Y-144961522I0J2600000D01*
G01*
X98091522Y-144961522D02*
G75*
G03*
X99930000Y-149400000I1838478J-1838478D01*
G01*
%TO.C,R1*%
X76680000Y-74833334D02*
X77450000Y-74833334D01*
X77450000Y-73463334D02*
X77450000Y-76203334D01*
X77450000Y-76203334D02*
X83990000Y-76203334D01*
X83990000Y-73463334D02*
X77450000Y-73463334D01*
X83990000Y-76203334D02*
X83990000Y-73463334D01*
X84760000Y-74833334D02*
X83990000Y-74833334D01*
%TO.C,J2*%
X85100000Y-103225000D02*
X85100000Y-101975000D01*
X84810000Y-102935000D02*
X84810000Y-96965000D01*
X84810000Y-96965000D02*
X72190000Y-96965000D01*
X84800000Y-102925000D02*
X84800000Y-102175000D01*
X84800000Y-102175000D02*
X83000000Y-102175000D01*
X84800000Y-100675000D02*
X84050000Y-100675000D01*
X84050000Y-100675000D02*
X84050000Y-97725000D01*
X84050000Y-97725000D02*
X78500000Y-97725000D01*
X83850000Y-103225000D02*
X85100000Y-103225000D01*
X83000000Y-102925000D02*
X84800000Y-102925000D01*
X83000000Y-102175000D02*
X83000000Y-102925000D01*
X81500000Y-102925000D02*
X81500000Y-102175000D01*
X81500000Y-102175000D02*
X75500000Y-102175000D01*
X75500000Y-102925000D02*
X81500000Y-102925000D01*
X75500000Y-102175000D02*
X75500000Y-102925000D01*
X74000000Y-102925000D02*
X74000000Y-102175000D01*
X74000000Y-102175000D02*
X72200000Y-102175000D01*
X72950000Y-100675000D02*
X72950000Y-97725000D01*
X72950000Y-97725000D02*
X78500000Y-97725000D01*
X72200000Y-102925000D02*
X74000000Y-102925000D01*
X72200000Y-102175000D02*
X72200000Y-102925000D01*
X72200000Y-100675000D02*
X72950000Y-100675000D01*
X72190000Y-102935000D02*
X84810000Y-102935000D01*
X72190000Y-96965000D02*
X72190000Y-102935000D01*
%TO.C,R2*%
X76680000Y-80400000D02*
X77450000Y-80400000D01*
X77450000Y-79030000D02*
X77450000Y-81770000D01*
X77450000Y-81770000D02*
X83990000Y-81770000D01*
X83990000Y-79030000D02*
X77450000Y-79030000D01*
X83990000Y-81770000D02*
X83990000Y-79030000D01*
X84760000Y-80400000D02*
X83990000Y-80400000D01*
%TO.C,J4*%
X128360000Y-108200000D02*
X129100000Y-108200000D01*
X129100000Y-108200000D02*
X129100000Y-107700000D01*
X120440000Y-107960000D02*
X128860000Y-107960000D01*
X120440000Y-107960000D02*
X120440000Y-97840000D01*
X122499000Y-107960000D02*
X122499000Y-97840000D01*
X126800000Y-107960000D02*
X126800000Y-97840000D01*
X128300000Y-107960000D02*
X128300000Y-97840000D01*
X128860000Y-107960000D02*
X128860000Y-97840000D01*
X120500000Y-106400000D02*
X121500000Y-106400000D01*
X120500000Y-106400000D02*
X120500000Y-104400000D01*
X121500000Y-106400000D02*
X121500000Y-104400000D01*
X120500000Y-104400000D02*
X121500000Y-104400000D01*
X125823000Y-101627000D02*
X125869000Y-101674000D01*
X126039000Y-101434000D02*
X126074000Y-101469000D01*
X120500000Y-101400000D02*
X121500000Y-101400000D01*
X120500000Y-101400000D02*
X120500000Y-99400000D01*
X121500000Y-101400000D02*
X121500000Y-99400000D01*
X120500000Y-99400000D02*
X121500000Y-99400000D01*
X123525000Y-99330000D02*
X123561000Y-99365000D01*
X123731000Y-99125000D02*
X123777000Y-99172000D01*
X120440000Y-97840000D02*
X128860000Y-97840000D01*
X124116001Y-106934999D02*
G75*
G03*
X125483042Y-106935426I684000J1534992D01*
G01*
X123265001Y-104716001D02*
G75*
G03*
X123264574Y-106083042I1534992J-684000D01*
G01*
X126334999Y-106084000D02*
G75*
G03*
X126480252Y-105371195I-1535000J683999D01*
G01*
X126479999Y-105400000D02*
G75*
G03*
X126334755Y-104716682I-1679999J0D01*
G01*
X125484000Y-103865000D02*
G75*
G03*
X124116958Y-103864574I-684000J-1535000D01*
G01*
X126480000Y-100400000D02*
G75*
G03*
X123120000Y-100400000I-1680000J0D01*
G01*
X123120000Y-100400000D02*
G75*
G03*
X126480000Y-100400000I1680000J0D01*
G01*
%TO.C,J1*%
X128160000Y-127600000D02*
X128900000Y-127600000D01*
X128900000Y-127600000D02*
X128900000Y-127100000D01*
X120240000Y-127360000D02*
X128660000Y-127360000D01*
X120240000Y-127360000D02*
X120240000Y-112240000D01*
X122299000Y-127360000D02*
X122299000Y-112240000D01*
X126600000Y-127360000D02*
X126600000Y-112240000D01*
X128100000Y-127360000D02*
X128100000Y-112240000D01*
X128660000Y-127360000D02*
X128660000Y-112240000D01*
X120300000Y-125800000D02*
X121300000Y-125800000D01*
X120300000Y-125800000D02*
X120300000Y-123800000D01*
X121300000Y-125800000D02*
X121300000Y-123800000D01*
X120300000Y-123800000D02*
X121300000Y-123800000D01*
X125623000Y-121027000D02*
X125669000Y-121074000D01*
X125839000Y-120834000D02*
X125874000Y-120869000D01*
X120300000Y-120800000D02*
X121300000Y-120800000D01*
X120300000Y-120800000D02*
X120300000Y-118800000D01*
X121300000Y-120800000D02*
X121300000Y-118800000D01*
X120300000Y-118800000D02*
X121300000Y-118800000D01*
X123325000Y-118730000D02*
X123361000Y-118765000D01*
X123531000Y-118525000D02*
X123577000Y-118572000D01*
X125623000Y-116027000D02*
X125669000Y-116074000D01*
X125839000Y-115834000D02*
X125874000Y-115869000D01*
X120300000Y-115800000D02*
X121300000Y-115800000D01*
X120300000Y-115800000D02*
X120300000Y-113800000D01*
X121300000Y-115800000D02*
X121300000Y-113800000D01*
X120300000Y-113800000D02*
X121300000Y-113800000D01*
X123325000Y-113730000D02*
X123361000Y-113765000D01*
X123531000Y-113525000D02*
X123577000Y-113572000D01*
X120240000Y-112240000D02*
X128660000Y-112240000D01*
X123916001Y-126334999D02*
G75*
G03*
X125283042Y-126335426I684000J1534992D01*
G01*
X123065001Y-124116001D02*
G75*
G03*
X123064574Y-125483042I1534992J-684000D01*
G01*
X126134999Y-125484000D02*
G75*
G03*
X126280252Y-124771195I-1535000J683999D01*
G01*
X126279999Y-124800000D02*
G75*
G03*
X126134755Y-124116682I-1679999J0D01*
G01*
X125284000Y-123265000D02*
G75*
G03*
X123916958Y-123264574I-684000J-1535000D01*
G01*
X126280000Y-119800000D02*
G75*
G03*
X122920000Y-119800000I-1680000J0D01*
G01*
X122920000Y-119800000D02*
G75*
G03*
X126280000Y-119800000I1680000J0D01*
G01*
X126280000Y-114800000D02*
G75*
G03*
X122920000Y-114800000I-1680000J0D01*
G01*
X122920000Y-114800000D02*
G75*
G03*
X126280000Y-114800000I1680000J0D01*
G01*
%TO.C,D2*%
X105965000Y-77345000D02*
X105965000Y-74255000D01*
X100415001Y-75799538D02*
G75*
G03*
X105964999Y-77344830I2989999J-462D01*
G01*
X105965000Y-74255170D02*
G75*
G03*
X100415000Y-75800462I-2560000J-1544830D01*
G01*
X105905000Y-75800000D02*
G75*
G03*
X100905000Y-75800000I-2500000J0D01*
G01*
X100905000Y-75800000D02*
G75*
G03*
X105905000Y-75800000I2500000J0D01*
G01*
%TO.C,R4*%
X84760000Y-86000000D02*
X83990000Y-86000000D01*
X83990000Y-87370000D02*
X83990000Y-84630000D01*
X83990000Y-84630000D02*
X77450000Y-84630000D01*
X77450000Y-87370000D02*
X83990000Y-87370000D01*
X77450000Y-84630000D02*
X77450000Y-87370000D01*
X76680000Y-86000000D02*
X77450000Y-86000000D01*
%TO.C,U1*%
X67040000Y-83220000D02*
X67040000Y-57790000D01*
X67040000Y-83220000D02*
X69580000Y-83220000D01*
X69580000Y-83220000D02*
X69580000Y-90120000D01*
X69580000Y-90120000D02*
X92900000Y-90120000D01*
X90780000Y-55660000D02*
X69170000Y-55660000D01*
X92900000Y-90120000D02*
X92900000Y-57790000D01*
X69170000Y-55660000D02*
G75*
G03*
X67040000Y-57790000I2J-2130002D01*
G01*
X92900000Y-57790000D02*
G75*
G03*
X90770000Y-55660000I-2130000J0D01*
G01*
D12*
X66635000Y-64000000D02*
X66000000Y-64635000D01*
X66000000Y-63365000D01*
X66635000Y-64000000D01*
G36*
X66635000Y-64000000D02*
G01*
X66000000Y-64635000D01*
X66000000Y-63365000D01*
X66635000Y-64000000D01*
G37*
D14*
%TO.C,Q1*%
X78800000Y-69810000D02*
X82400000Y-69810000D01*
X80600000Y-65360000D02*
G75*
G03*
X78761522Y-69798478I0J-2600000D01*
G01*
X82438478Y-69798478D02*
G75*
G03*
X80600000Y-65360000I-1838478J1838478D01*
G01*
%TO.C,D1*%
X109800000Y-84620000D02*
X109800000Y-83600000D01*
X108330000Y-83600000D02*
X111270000Y-83600000D01*
X111270000Y-83600000D02*
X111270000Y-78160000D01*
X108330000Y-82820000D02*
X111270000Y-82820000D01*
X108330000Y-82700000D02*
X111270000Y-82700000D01*
X108330000Y-82580000D02*
X111270000Y-82580000D01*
X108330000Y-78160000D02*
X108330000Y-83600000D01*
X111270000Y-78160000D02*
X108330000Y-78160000D01*
X109800000Y-77140000D02*
X109800000Y-78160000D01*
%TO.C,K1*%
X95600000Y-71800000D02*
X102200000Y-71800000D01*
X95600000Y-71800000D02*
X95600000Y-52000000D01*
X104600000Y-71800000D02*
X111200000Y-71800000D01*
X103450000Y-67750000D02*
X103450000Y-68550000D01*
X103450000Y-67750000D02*
X107050000Y-67750000D01*
X109450000Y-66850000D02*
X109450000Y-64350000D01*
X101650000Y-66350000D02*
X101650000Y-62350000D01*
X105250000Y-66350000D02*
X101650000Y-66350000D01*
X97450000Y-64350000D02*
X97450000Y-66850000D01*
X97450000Y-64350000D02*
X101650000Y-64350000D01*
X105250000Y-64350000D02*
X109450000Y-64350000D01*
X101650000Y-62350000D02*
X105250000Y-62350000D01*
X105250000Y-62350000D02*
X101650000Y-66350000D01*
X105250000Y-62350000D02*
X105250000Y-66350000D01*
X103450000Y-60950000D02*
X107050000Y-60950000D01*
X103450000Y-60950000D02*
X103450000Y-59450000D01*
X107050000Y-60950000D02*
X107050000Y-67750000D01*
X103450000Y-59450000D02*
X100950000Y-54850000D01*
X99200000Y-56250000D02*
X101700000Y-56250000D01*
X107600000Y-56250000D02*
X105150000Y-56250000D01*
X95600000Y-52000000D02*
X111200000Y-52000000D01*
X111200000Y-52000000D02*
X111200000Y-71800000D01*
%TO.C,J3*%
X83850000Y-113750000D02*
X83850000Y-112500000D01*
X83560000Y-113460000D02*
X83560000Y-107490000D01*
X83560000Y-107490000D02*
X73440000Y-107490000D01*
X83550000Y-113450000D02*
X83550000Y-112700000D01*
X83550000Y-112700000D02*
X81750000Y-112700000D01*
X83550000Y-111200000D02*
X82800000Y-111200000D01*
X82800000Y-111200000D02*
X82800000Y-108250000D01*
X82800000Y-108250000D02*
X78500000Y-108250000D01*
X82600000Y-113750000D02*
X83850000Y-113750000D01*
X81750000Y-113450000D02*
X83550000Y-113450000D01*
X81750000Y-112700000D02*
X81750000Y-113450000D01*
X80250000Y-113450000D02*
X80250000Y-112700000D01*
X80250000Y-112700000D02*
X76750000Y-112700000D01*
X76750000Y-113450000D02*
X80250000Y-113450000D01*
X76750000Y-112700000D02*
X76750000Y-113450000D01*
X75250000Y-113450000D02*
X75250000Y-112700000D01*
X75250000Y-112700000D02*
X73450000Y-112700000D01*
X74200000Y-111200000D02*
X74200000Y-108250000D01*
X74200000Y-108250000D02*
X78500000Y-108250000D01*
X73450000Y-113450000D02*
X75250000Y-113450000D01*
X73450000Y-112700000D02*
X73450000Y-113450000D01*
X73450000Y-111200000D02*
X74200000Y-111200000D01*
X73440000Y-113460000D02*
X83560000Y-113460000D01*
X73440000Y-107490000D02*
X73440000Y-113460000D01*
%TD*%
M02*
