%TF.GenerationSoftware,KiCad,Pcbnew,7.0.10*%
%TF.CreationDate,2025-11-30T18:16:02+01:00*%
%TF.ProjectId,open_thermostat,6f70656e-5f74-4686-9572-6d6f73746174,rev?*%
%TF.SameCoordinates,Original*%
%TF.FileFunction,Copper,L2,Bot*%
%TF.FilePolarity,Positive*%
%FSLAX46Y46*%
G04 Gerber Fmt 4.6, Leading zero omitted, Abs format (unit mm)*
G04 Created by KiCad (PCBNEW 7.0.10) date 2025-11-30 18:16:02*
%MOMM*%
%LPD*%
G01*
G04 APERTURE LIST*
G04 Aperture macros list*
%AMRoundRect*
0 Rectangle with rounded corners*
0 $1 Rounding radius*
0 $2 $3 $4 $5 $6 $7 $8 $9 X,Y pos of 4 corners*
0 Add a 4 corners polygon primitive as box body*
4,1,4,$2,$3,$4,$5,$6,$7,$8,$9,$2,$3,0*
0 Add four circle primitives for the rounded corners*
1,1,$1+$1,$2,$3*
1,1,$1+$1,$4,$5*
1,1,$1+$1,$6,$7*
1,1,$1+$1,$8,$9*
0 Add four rect primitives between the rounded corners*
20,1,$1+$1,$2,$3,$4,$5,0*
20,1,$1+$1,$4,$5,$6,$7,0*
20,1,$1+$1,$6,$7,$8,$9,0*
20,1,$1+$1,$8,$9,$2,$3,0*%
G04 Aperture macros list end*
%TA.AperFunction,ComponentPad*%
%ADD10C,1.700000*%
%TD*%
%TA.AperFunction,ComponentPad*%
%ADD11C,2.500000*%
%TD*%
%TA.AperFunction,ComponentPad*%
%ADD12R,1.050000X1.500000*%
%TD*%
%TA.AperFunction,ComponentPad*%
%ADD13O,1.050000X1.500000*%
%TD*%
%TA.AperFunction,ComponentPad*%
%ADD14C,1.600000*%
%TD*%
%TA.AperFunction,ComponentPad*%
%ADD15O,1.600000X1.600000*%
%TD*%
%TA.AperFunction,ComponentPad*%
%ADD16RoundRect,0.250000X0.600000X0.725000X-0.600000X0.725000X-0.600000X-0.725000X0.600000X-0.725000X0*%
%TD*%
%TA.AperFunction,ComponentPad*%
%ADD17O,1.700000X1.950000*%
%TD*%
%TA.AperFunction,ComponentPad*%
%ADD18R,2.600000X2.600000*%
%TD*%
%TA.AperFunction,ComponentPad*%
%ADD19C,2.600000*%
%TD*%
%TA.AperFunction,ComponentPad*%
%ADD20R,1.800000X1.800000*%
%TD*%
%TA.AperFunction,ComponentPad*%
%ADD21C,1.800000*%
%TD*%
%TA.AperFunction,ComponentPad*%
%ADD22R,2.000000X2.000000*%
%TD*%
%TA.AperFunction,ComponentPad*%
%ADD23O,2.000000X1.600000*%
%TD*%
%TA.AperFunction,ComponentPad*%
%ADD24R,2.200000X2.200000*%
%TD*%
%TA.AperFunction,ComponentPad*%
%ADD25O,2.200000X2.200000*%
%TD*%
%TA.AperFunction,ComponentPad*%
%ADD26C,3.000000*%
%TD*%
%TA.AperFunction,ViaPad*%
%ADD27C,0.800000*%
%TD*%
%TA.AperFunction,Conductor*%
%ADD28C,0.250000*%
%TD*%
%TA.AperFunction,Conductor*%
%ADD29C,0.750000*%
%TD*%
G04 APERTURE END LIST*
D10*
%TO.P,PS1,*%
%TO.N,*%
X125380000Y-67900000D03*
D11*
%TO.P,PS1,1,AC/N*%
%TO.N,Net-(J4-Pin_2)*%
X115920000Y-94900000D03*
%TO.P,PS1,2,AC/L*%
%TO.N,Net-(J4-Pin_1)*%
X121000000Y-94900000D03*
%TO.P,PS1,3,-Vo*%
%TO.N,GND*%
X120300000Y-67900000D03*
%TO.P,PS1,4,+Vo*%
%TO.N,5V*%
X130460000Y-67900000D03*
%TD*%
D12*
%TO.P,U2,1,GND*%
%TO.N,GND*%
X101200000Y-146800000D03*
D13*
%TO.P,U2,2,DQ*%
%TO.N,TEMP*%
X99930000Y-146800000D03*
%TO.P,U2,3,V_{DD}*%
%TO.N,5V*%
X98660000Y-146800000D03*
%TD*%
D14*
%TO.P,R1,1*%
%TO.N,OUT*%
X75640000Y-74833334D03*
D15*
%TO.P,R1,2*%
%TO.N,Net-(Q1-B)*%
X85800000Y-74833334D03*
%TD*%
D16*
%TO.P,J2,1,Pin_1*%
%TO.N,SDA*%
X82250000Y-100475000D03*
D17*
%TO.P,J2,2,Pin_2*%
%TO.N,SCL*%
X79750000Y-100475000D03*
%TO.P,J2,3,Pin_3*%
%TO.N,5V*%
X77250000Y-100475000D03*
%TO.P,J2,4,Pin_4*%
%TO.N,GND*%
X74750000Y-100475000D03*
%TD*%
D14*
%TO.P,R2,1*%
%TO.N,Net-(Q1-B)*%
X75640000Y-80400000D03*
D15*
%TO.P,R2,2*%
%TO.N,GND*%
X85800000Y-80400000D03*
%TD*%
D18*
%TO.P,J4,1,Pin_1*%
%TO.N,Net-(J4-Pin_1)*%
X124800000Y-105400000D03*
D19*
%TO.P,J4,2,Pin_2*%
%TO.N,Net-(J4-Pin_2)*%
X124800000Y-100400000D03*
%TD*%
D18*
%TO.P,J1,1,Pin_1*%
%TO.N,Net-(J1-Pin_1)*%
X124600000Y-124800000D03*
D19*
%TO.P,J1,2,Pin_2*%
%TO.N,Net-(J1-Pin_2)*%
X124600000Y-119800000D03*
%TO.P,J1,3,Pin_3*%
%TO.N,Net-(J1-Pin_3)*%
X124600000Y-114800000D03*
%TD*%
D20*
%TO.P,D2,1,K*%
%TO.N,Net-(D1-A)*%
X104675000Y-75800000D03*
D21*
%TO.P,D2,2,A*%
%TO.N,Net-(D2-A)*%
X102135000Y-75800000D03*
%TD*%
D14*
%TO.P,R4,1*%
%TO.N,Net-(D2-A)*%
X85800000Y-86000000D03*
D15*
%TO.P,R4,2*%
%TO.N,5V*%
X75640000Y-86000000D03*
%TD*%
D22*
%TO.P,U1,1,~{RST}*%
%TO.N,unconnected-(U1-~{RST}-Pad1)*%
X68540000Y-64000000D03*
D23*
%TO.P,U1,2,A0*%
%TO.N,unconnected-(U1-A0-Pad2)*%
X68540000Y-66540000D03*
%TO.P,U1,3,D0*%
%TO.N,unconnected-(U1-D0-Pad3)*%
X68540000Y-69080000D03*
%TO.P,U1,4,SCK/D5*%
%TO.N,LED*%
X68540000Y-71620000D03*
%TO.P,U1,5,MISO/D6*%
%TO.N,OUT*%
X68540000Y-74160000D03*
%TO.P,U1,6,MOSI/D7*%
%TO.N,BTN*%
X68540000Y-76700000D03*
%TO.P,U1,7,CS/D8*%
%TO.N,TEMP*%
X68540000Y-79240000D03*
%TO.P,U1,8,3V3*%
%TO.N,unconnected-(U1-3V3-Pad8)*%
X68540000Y-81780000D03*
%TO.P,U1,9,5V*%
%TO.N,5V*%
X91400000Y-81780000D03*
%TO.P,U1,10,GND*%
%TO.N,GND*%
X91400000Y-79240000D03*
%TO.P,U1,11,D4*%
%TO.N,unconnected-(U1-D4-Pad11)*%
X91400000Y-76700000D03*
%TO.P,U1,12,D3*%
%TO.N,unconnected-(U1-D3-Pad12)*%
X91400000Y-74160000D03*
%TO.P,U1,13,SDA/D2*%
%TO.N,SDA*%
X91400000Y-71620000D03*
%TO.P,U1,14,SCL/D1*%
%TO.N,SCL*%
X91400000Y-69080000D03*
%TO.P,U1,15,RX*%
%TO.N,unconnected-(U1-RX-Pad15)*%
X91400000Y-66540000D03*
%TO.P,U1,16,TX*%
%TO.N,unconnected-(U1-TX-Pad16)*%
X91400000Y-64000000D03*
%TD*%
D12*
%TO.P,Q1,1,E*%
%TO.N,GND*%
X79330000Y-67960000D03*
D13*
%TO.P,Q1,2,B*%
%TO.N,Net-(Q1-B)*%
X80600000Y-67960000D03*
%TO.P,Q1,3,C*%
%TO.N,Net-(D1-A)*%
X81870000Y-67960000D03*
%TD*%
D24*
%TO.P,D1,1,K*%
%TO.N,5V*%
X109800000Y-85960000D03*
D25*
%TO.P,D1,2,A*%
%TO.N,Net-(D1-A)*%
X109800000Y-75800000D03*
%TD*%
D26*
%TO.P,K1,1*%
%TO.N,Net-(J1-Pin_2)*%
X103400000Y-70400000D03*
D11*
%TO.P,K1,2*%
%TO.N,Net-(D1-A)*%
X109450000Y-68450000D03*
D26*
%TO.P,K1,3*%
%TO.N,Net-(J1-Pin_3)*%
X109450000Y-56250000D03*
%TO.P,K1,4*%
%TO.N,Net-(J1-Pin_1)*%
X97400000Y-56200000D03*
D11*
%TO.P,K1,5*%
%TO.N,5V*%
X97450000Y-68450000D03*
%TD*%
D16*
%TO.P,J3,1,Pin_1*%
%TO.N,LED*%
X81000000Y-111000000D03*
D17*
%TO.P,J3,2,Pin_2*%
%TO.N,5V*%
X78500000Y-111000000D03*
%TO.P,J3,3,Pin_3*%
%TO.N,GND*%
X76000000Y-111000000D03*
%TD*%
D27*
%TO.N,GND*%
X80600000Y-124000000D03*
X124200000Y-64600000D03*
X104000000Y-118000000D03*
X96000000Y-118000000D03*
%TO.N,BTN*%
X80600000Y-122400000D03*
%TD*%
D28*
%TO.N,GND*%
X91400000Y-79240000D02*
X91400000Y-79400000D01*
X91360000Y-79200000D02*
X91400000Y-79240000D01*
%TO.N,LED*%
X70450000Y-100450000D02*
X81000000Y-111000000D01*
X70450000Y-73530000D02*
X70450000Y-100450000D01*
X68540000Y-71620000D02*
X70450000Y-73530000D01*
%TO.N,BTN*%
X80600000Y-122400000D02*
X70000000Y-111800000D01*
X70000000Y-111800000D02*
X70000000Y-78160000D01*
X70000000Y-78160000D02*
X68540000Y-76700000D01*
D29*
%TO.N,Net-(J1-Pin_3)*%
X148306498Y-108293502D02*
X148306498Y-90006498D01*
X109450000Y-56350000D02*
X109450000Y-56250000D01*
X113500000Y-60400000D02*
X109450000Y-56350000D01*
X148306498Y-90006498D02*
X142306498Y-84006498D01*
X128200000Y-60400000D02*
X113500000Y-60400000D01*
X141800000Y-114800000D02*
X148306498Y-108293502D01*
X124600000Y-114800000D02*
X141800000Y-114800000D01*
X142306498Y-74506498D02*
X128200000Y-60400000D01*
X142306498Y-84006498D02*
X142306498Y-74506498D01*
%TD*%
%TA.AperFunction,Conductor*%
%TO.N,GND*%
G36*
X100698783Y-51638970D02*
G01*
X102088553Y-51679037D01*
X102092124Y-51679191D01*
X102166112Y-51683460D01*
X103480242Y-51759296D01*
X103483734Y-51759548D01*
X104869023Y-51879627D01*
X104872471Y-51879976D01*
X106253696Y-52039924D01*
X106257184Y-52040379D01*
X107633253Y-52240068D01*
X107636714Y-52240622D01*
X109006346Y-52479865D01*
X109009853Y-52480529D01*
X110372090Y-52759156D01*
X110375542Y-52759914D01*
X111729137Y-53077672D01*
X111732549Y-53078524D01*
X113076533Y-53435186D01*
X113079880Y-53436127D01*
X114412943Y-53831346D01*
X114416343Y-53832408D01*
X115737445Y-54265873D01*
X115740824Y-54267036D01*
X117048878Y-54738391D01*
X117052222Y-54739651D01*
X117367095Y-54863478D01*
X118346157Y-55248508D01*
X118349418Y-55249845D01*
X119628183Y-55795793D01*
X119631435Y-55797237D01*
X120893919Y-56379801D01*
X120897083Y-56381317D01*
X121769964Y-56815037D01*
X122142238Y-57000014D01*
X122145414Y-57001649D01*
X123198633Y-57563387D01*
X123372239Y-57655980D01*
X123375359Y-57657703D01*
X124582812Y-58347114D01*
X124585862Y-58348915D01*
X125772957Y-59072842D01*
X125775913Y-59074703D01*
X126117148Y-59296537D01*
X126162626Y-59349580D01*
X126172207Y-59418790D01*
X126142849Y-59482193D01*
X126083874Y-59519659D01*
X126049563Y-59524500D01*
X113914006Y-59524500D01*
X113846967Y-59504815D01*
X113826325Y-59488181D01*
X111370632Y-57032488D01*
X111337147Y-56971165D01*
X111342130Y-56901478D01*
X111374369Y-56815046D01*
X111435196Y-56535428D01*
X111455610Y-56250000D01*
X111435196Y-55964572D01*
X111398480Y-55795793D01*
X111374371Y-55684962D01*
X111374370Y-55684960D01*
X111374369Y-55684954D01*
X111274367Y-55416839D01*
X111239672Y-55353301D01*
X111137229Y-55165690D01*
X111137224Y-55165682D01*
X110965745Y-54936612D01*
X110965729Y-54936594D01*
X110763405Y-54734270D01*
X110763387Y-54734254D01*
X110534317Y-54562775D01*
X110534309Y-54562770D01*
X110283166Y-54425635D01*
X110283167Y-54425635D01*
X110175915Y-54385632D01*
X110015046Y-54325631D01*
X110015043Y-54325630D01*
X110015037Y-54325628D01*
X109735433Y-54264804D01*
X109450001Y-54244390D01*
X109449999Y-54244390D01*
X109164566Y-54264804D01*
X108884962Y-54325628D01*
X108616833Y-54425635D01*
X108365690Y-54562770D01*
X108365682Y-54562775D01*
X108136612Y-54734254D01*
X108136594Y-54734270D01*
X107934270Y-54936594D01*
X107934254Y-54936612D01*
X107762775Y-55165682D01*
X107762770Y-55165690D01*
X107625635Y-55416833D01*
X107525628Y-55684962D01*
X107464804Y-55964566D01*
X107444390Y-56249998D01*
X107444390Y-56250001D01*
X107464804Y-56535433D01*
X107525628Y-56815037D01*
X107625635Y-57083166D01*
X107762770Y-57334309D01*
X107762775Y-57334317D01*
X107934254Y-57563387D01*
X107934270Y-57563405D01*
X108136594Y-57765729D01*
X108136612Y-57765745D01*
X108365682Y-57937224D01*
X108365690Y-57937229D01*
X108616833Y-58074364D01*
X108616832Y-58074364D01*
X108616836Y-58074365D01*
X108616839Y-58074367D01*
X108884954Y-58174369D01*
X108884960Y-58174370D01*
X108884962Y-58174371D01*
X109164566Y-58235195D01*
X109164568Y-58235195D01*
X109164572Y-58235196D01*
X109418220Y-58253337D01*
X109449999Y-58255610D01*
X109450000Y-58255610D01*
X109450001Y-58255610D01*
X109478595Y-58253564D01*
X109735428Y-58235196D01*
X109735433Y-58235195D01*
X109966280Y-58184978D01*
X110035972Y-58189962D01*
X110080319Y-58218463D01*
X112852199Y-60990343D01*
X112859026Y-60997749D01*
X112894361Y-61039350D01*
X112894368Y-61039355D01*
X112894369Y-61039357D01*
X112959428Y-61088813D01*
X112962012Y-61090832D01*
X112989099Y-61112606D01*
X113025702Y-61142030D01*
X113025872Y-61142114D01*
X113045814Y-61154483D01*
X113045971Y-61154602D01*
X113120143Y-61188917D01*
X113123120Y-61190344D01*
X113196307Y-61226641D01*
X113196481Y-61226684D01*
X113218626Y-61234480D01*
X113218803Y-61234562D01*
X113298579Y-61252121D01*
X113301827Y-61252882D01*
X113381111Y-61272600D01*
X113381284Y-61272604D01*
X113404602Y-61275460D01*
X113404784Y-61275500D01*
X113486463Y-61275500D01*
X113489821Y-61275545D01*
X113571473Y-61277757D01*
X113571655Y-61277721D01*
X113595023Y-61275500D01*
X127785994Y-61275500D01*
X127853033Y-61295185D01*
X127873675Y-61311819D01*
X141136561Y-74574705D01*
X141153806Y-74596306D01*
X141292471Y-74816486D01*
X141294331Y-74819537D01*
X141313568Y-74852129D01*
X141413784Y-75021920D01*
X141430998Y-75084948D01*
X141430998Y-83965876D01*
X141430589Y-83975940D01*
X141426158Y-84030343D01*
X141437186Y-84111288D01*
X141437594Y-84114618D01*
X141446425Y-84195814D01*
X141446427Y-84195825D01*
X141446488Y-84196004D01*
X141451838Y-84218829D01*
X141451864Y-84219023D01*
X141451867Y-84219035D01*
X141480038Y-84295717D01*
X141481153Y-84298883D01*
X141507229Y-84376274D01*
X141507232Y-84376280D01*
X141507330Y-84376443D01*
X141517467Y-84397597D01*
X141517534Y-84397781D01*
X141517538Y-84397788D01*
X141561544Y-84466637D01*
X141563313Y-84469488D01*
X141605410Y-84539453D01*
X141605540Y-84539590D01*
X141619990Y-84558073D01*
X141620098Y-84558242D01*
X141677893Y-84616037D01*
X141680200Y-84618408D01*
X141736364Y-84677701D01*
X141736366Y-84677702D01*
X141736369Y-84677705D01*
X141736526Y-84677812D01*
X141754619Y-84692763D01*
X147361603Y-90299747D01*
X147395088Y-90361070D01*
X147395752Y-90364333D01*
X147428828Y-90538811D01*
X147430998Y-90561906D01*
X147430998Y-107879496D01*
X147411313Y-107946535D01*
X147394679Y-107967177D01*
X143998175Y-111363681D01*
X143936852Y-111397166D01*
X143910494Y-111400000D01*
X136424000Y-111400000D01*
X136356961Y-111380315D01*
X136311206Y-111327511D01*
X136300000Y-111276000D01*
X136300000Y-99922903D01*
X138595793Y-99922903D01*
X138605672Y-100230970D01*
X138605672Y-100230975D01*
X138605673Y-100230978D01*
X138654867Y-100535261D01*
X138705781Y-100706805D01*
X138742571Y-100830763D01*
X138867333Y-101112601D01*
X138867337Y-101112609D01*
X139027123Y-101376193D01*
X139027127Y-101376198D01*
X139027133Y-101376207D01*
X139219297Y-101617174D01*
X139219299Y-101617176D01*
X139219303Y-101617180D01*
X139219304Y-101617181D01*
X139440724Y-101831614D01*
X139606933Y-101955659D01*
X139687741Y-102015968D01*
X139687743Y-102015969D01*
X139687747Y-102015972D01*
X139956318Y-102167228D01*
X140097057Y-102224207D01*
X140242018Y-102282897D01*
X140242023Y-102282898D01*
X140242025Y-102282899D01*
X140540179Y-102361084D01*
X140845883Y-102400500D01*
X140845890Y-102400500D01*
X141076971Y-102400500D01*
X141076974Y-102400500D01*
X141076978Y-102400499D01*
X141076996Y-102400499D01*
X141179700Y-102393904D01*
X141307601Y-102385693D01*
X141610151Y-102326772D01*
X141902683Y-102229644D01*
X141902689Y-102229640D01*
X141902693Y-102229640D01*
X142148028Y-102111493D01*
X142180393Y-102095907D01*
X142438720Y-101927754D01*
X142673424Y-101727948D01*
X142880650Y-101499769D01*
X143056996Y-101246963D01*
X143199567Y-100973683D01*
X143306020Y-100684415D01*
X143374609Y-100383908D01*
X143404206Y-100077098D01*
X143401733Y-99999992D01*
X143394327Y-99769029D01*
X143394327Y-99769022D01*
X143345133Y-99464739D01*
X143257431Y-99169244D01*
X143257429Y-99169239D01*
X143257428Y-99169236D01*
X143132666Y-98887398D01*
X143132663Y-98887391D01*
X142972877Y-98623807D01*
X142972870Y-98623799D01*
X142972866Y-98623792D01*
X142780702Y-98382825D01*
X142780700Y-98382823D01*
X142559279Y-98168389D01*
X142559276Y-98168386D01*
X142430450Y-98072241D01*
X142312258Y-97984031D01*
X142312253Y-97984028D01*
X142043682Y-97832772D01*
X142006383Y-97817671D01*
X141757981Y-97717102D01*
X141590660Y-97673226D01*
X141459821Y-97638916D01*
X141154117Y-97599500D01*
X140923026Y-97599500D01*
X140923003Y-97599500D01*
X140692406Y-97614306D01*
X140692389Y-97614308D01*
X140389854Y-97673226D01*
X140389849Y-97673228D01*
X140097310Y-97770358D01*
X140097306Y-97770359D01*
X139819613Y-97904089D01*
X139819605Y-97904094D01*
X139561286Y-98072241D01*
X139561276Y-98072248D01*
X139326581Y-98272046D01*
X139326571Y-98272056D01*
X139119354Y-98500225D01*
X139119350Y-98500229D01*
X138943005Y-98753033D01*
X138943003Y-98753037D01*
X138800432Y-99026319D01*
X138800429Y-99026326D01*
X138693981Y-99315580D01*
X138693979Y-99315590D01*
X138625391Y-99616089D01*
X138595794Y-99922902D01*
X138595793Y-99922903D01*
X136300000Y-99922903D01*
X136300000Y-88700000D01*
X105610020Y-88700000D01*
X105553107Y-88686167D01*
X105469317Y-88642880D01*
X105469283Y-88642864D01*
X105212547Y-88527982D01*
X105209393Y-88526517D01*
X105147433Y-88496678D01*
X105147401Y-88496664D01*
X105083821Y-88470327D01*
X105080629Y-88468952D01*
X104823901Y-88354074D01*
X104561100Y-88253757D01*
X104557868Y-88252471D01*
X104494311Y-88226145D01*
X104494312Y-88226145D01*
X104429385Y-88203426D01*
X104426119Y-88202232D01*
X104221354Y-88124070D01*
X104163319Y-88101917D01*
X103895281Y-88016485D01*
X103892036Y-88015401D01*
X103827080Y-87992672D01*
X103827056Y-87992665D01*
X103827050Y-87992663D01*
X103760984Y-87973629D01*
X103757658Y-87972620D01*
X103489661Y-87887202D01*
X103489652Y-87887200D01*
X103489639Y-87887196D01*
X103217258Y-87816934D01*
X103213924Y-87816024D01*
X103192948Y-87809981D01*
X103147803Y-87796975D01*
X103117571Y-87790074D01*
X103080724Y-87781664D01*
X103077347Y-87780843D01*
X102898812Y-87734790D01*
X102804979Y-87710586D01*
X102804969Y-87710584D01*
X102804963Y-87710582D01*
X102529103Y-87655710D01*
X102525703Y-87654984D01*
X102458633Y-87639676D01*
X102458613Y-87639672D01*
X102390771Y-87628145D01*
X102387352Y-87627514D01*
X102111533Y-87572650D01*
X102111470Y-87572639D01*
X101832983Y-87533323D01*
X101829548Y-87532789D01*
X101761720Y-87521265D01*
X101761664Y-87521257D01*
X101693328Y-87513558D01*
X101689878Y-87513120D01*
X101411378Y-87473802D01*
X101411374Y-87473801D01*
X101131074Y-87450159D01*
X101127612Y-87449818D01*
X101059258Y-87442116D01*
X101059249Y-87442115D01*
X101059245Y-87442115D01*
X101043950Y-87441256D01*
X100990529Y-87438255D01*
X100987063Y-87438011D01*
X100724037Y-87415826D01*
X100706798Y-87414372D01*
X100706784Y-87414371D01*
X100425654Y-87406482D01*
X100422184Y-87406336D01*
X100353458Y-87402478D01*
X100353452Y-87402478D01*
X100284614Y-87402478D01*
X100281136Y-87402429D01*
X100000007Y-87394541D01*
X99999993Y-87394541D01*
X99718864Y-87402429D01*
X99715386Y-87402478D01*
X99646541Y-87402478D01*
X99577814Y-87406336D01*
X99574344Y-87406482D01*
X99293215Y-87414371D01*
X99293194Y-87414373D01*
X99012935Y-87438011D01*
X99009469Y-87438255D01*
X98952326Y-87441465D01*
X98940755Y-87442115D01*
X98940751Y-87442115D01*
X98940741Y-87442116D01*
X98940732Y-87442117D01*
X98872388Y-87449817D01*
X98868928Y-87450158D01*
X98588625Y-87473801D01*
X98588621Y-87473802D01*
X98310120Y-87513120D01*
X98306670Y-87513558D01*
X98238335Y-87521257D01*
X98238279Y-87521265D01*
X98170451Y-87532789D01*
X98167016Y-87533323D01*
X97888529Y-87572639D01*
X97888466Y-87572650D01*
X97612646Y-87627514D01*
X97609227Y-87628145D01*
X97541389Y-87639671D01*
X97474301Y-87654983D01*
X97470903Y-87655708D01*
X97195030Y-87710584D01*
X97195021Y-87710586D01*
X96922650Y-87780843D01*
X96919274Y-87781664D01*
X96852203Y-87796973D01*
X96852173Y-87796981D01*
X96786081Y-87816021D01*
X96782729Y-87816936D01*
X96510382Y-87887190D01*
X96510338Y-87887202D01*
X96242340Y-87972620D01*
X96239015Y-87973629D01*
X96172940Y-87992665D01*
X96172899Y-87992679D01*
X96107978Y-88015395D01*
X96104681Y-88016497D01*
X95836689Y-88101914D01*
X95836673Y-88101919D01*
X95573888Y-88202228D01*
X95570625Y-88203422D01*
X95505679Y-88226148D01*
X95442097Y-88252484D01*
X95438868Y-88253769D01*
X95176091Y-88354077D01*
X94919338Y-88468965D01*
X94916148Y-88470340D01*
X94865130Y-88491473D01*
X94852590Y-88496668D01*
X94852586Y-88496670D01*
X94852566Y-88496678D01*
X94790589Y-88526524D01*
X94787438Y-88527988D01*
X94530689Y-88642876D01*
X94530682Y-88642880D01*
X94280784Y-88771981D01*
X94277673Y-88773534D01*
X94215691Y-88803383D01*
X94215668Y-88803395D01*
X94155490Y-88836653D01*
X94152426Y-88838291D01*
X93902498Y-88967408D01*
X93660228Y-89110318D01*
X93657212Y-89112041D01*
X93596984Y-89145330D01*
X93538728Y-89181934D01*
X93535759Y-89183742D01*
X93343759Y-89297000D01*
X93293491Y-89326653D01*
X93239957Y-89362423D01*
X93059606Y-89482929D01*
X93056690Y-89484819D01*
X92998422Y-89521432D01*
X92942316Y-89561241D01*
X92939453Y-89563213D01*
X92705584Y-89719480D01*
X92705570Y-89719489D01*
X92480856Y-89888604D01*
X92478049Y-89890656D01*
X92421912Y-89930487D01*
X92368127Y-89973379D01*
X92365380Y-89975508D01*
X92140611Y-90144665D01*
X92140610Y-90144666D01*
X91925713Y-90326131D01*
X91923026Y-90328336D01*
X91869232Y-90371236D01*
X91869216Y-90371249D01*
X91817924Y-90417086D01*
X91815301Y-90419365D01*
X91600390Y-90600843D01*
X91395983Y-90794093D01*
X91393422Y-90796447D01*
X91342127Y-90842286D01*
X91293518Y-90890895D01*
X91291026Y-90893318D01*
X91086595Y-91086592D01*
X91086592Y-91086595D01*
X90893318Y-91291026D01*
X90890895Y-91293518D01*
X90842286Y-91342127D01*
X90796447Y-91393422D01*
X90794093Y-91395983D01*
X90600843Y-91600390D01*
X90419365Y-91815301D01*
X90417086Y-91817924D01*
X90371249Y-91869216D01*
X90371236Y-91869232D01*
X90328336Y-91923026D01*
X90326131Y-91925713D01*
X90144666Y-92140610D01*
X90144665Y-92140611D01*
X89975508Y-92365380D01*
X89973379Y-92368127D01*
X89930487Y-92421912D01*
X89890656Y-92478049D01*
X89888604Y-92480856D01*
X89719489Y-92705570D01*
X89719480Y-92705584D01*
X89563213Y-92939453D01*
X89561241Y-92942316D01*
X89521432Y-92998422D01*
X89484819Y-93056690D01*
X89482929Y-93059606D01*
X89362423Y-93239957D01*
X89326653Y-93293491D01*
X89297000Y-93343759D01*
X89183742Y-93535759D01*
X89181934Y-93538728D01*
X89145330Y-93596984D01*
X89112041Y-93657212D01*
X89110318Y-93660228D01*
X88967408Y-93902498D01*
X88838291Y-94152426D01*
X88836653Y-94155490D01*
X88803395Y-94215668D01*
X88803383Y-94215691D01*
X88773534Y-94277673D01*
X88771981Y-94280784D01*
X88642880Y-94530682D01*
X88642876Y-94530689D01*
X88527988Y-94787438D01*
X88526524Y-94790589D01*
X88496678Y-94852566D01*
X88496670Y-94852586D01*
X88470340Y-94916148D01*
X88468965Y-94919338D01*
X88354077Y-95176091D01*
X88253769Y-95438868D01*
X88252484Y-95442097D01*
X88226148Y-95505679D01*
X88203422Y-95570625D01*
X88202228Y-95573888D01*
X88101919Y-95836673D01*
X88101914Y-95836689D01*
X88016497Y-96104681D01*
X88015395Y-96107978D01*
X87992679Y-96172899D01*
X87992665Y-96172940D01*
X87973629Y-96239015D01*
X87972620Y-96242340D01*
X87887202Y-96510338D01*
X87887190Y-96510382D01*
X87816936Y-96782729D01*
X87816021Y-96786081D01*
X87796981Y-96852173D01*
X87796973Y-96852203D01*
X87781664Y-96919274D01*
X87780843Y-96922650D01*
X87710586Y-97195021D01*
X87710584Y-97195030D01*
X87655708Y-97470903D01*
X87654983Y-97474301D01*
X87639671Y-97541389D01*
X87628145Y-97609227D01*
X87627514Y-97612646D01*
X87572650Y-97888466D01*
X87572639Y-97888529D01*
X87533323Y-98167016D01*
X87532789Y-98170451D01*
X87521265Y-98238279D01*
X87521257Y-98238335D01*
X87513558Y-98306670D01*
X87513120Y-98310120D01*
X87473802Y-98588621D01*
X87473801Y-98588625D01*
X87450158Y-98868928D01*
X87449817Y-98872388D01*
X87442117Y-98940732D01*
X87442116Y-98940741D01*
X87438255Y-99009469D01*
X87438011Y-99012935D01*
X87414373Y-99293194D01*
X87414371Y-99293215D01*
X87406482Y-99574344D01*
X87406336Y-99577814D01*
X87402478Y-99646541D01*
X87402478Y-99715386D01*
X87402429Y-99718864D01*
X87394541Y-99999992D01*
X87394541Y-100000007D01*
X87402429Y-100281134D01*
X87402478Y-100284612D01*
X87402478Y-100353458D01*
X87406336Y-100422184D01*
X87406482Y-100425654D01*
X87414371Y-100706784D01*
X87414373Y-100706805D01*
X87438011Y-100987063D01*
X87438255Y-100990529D01*
X87442116Y-101059258D01*
X87449818Y-101127612D01*
X87450159Y-101131074D01*
X87473801Y-101411374D01*
X87473802Y-101411378D01*
X87513120Y-101689878D01*
X87513558Y-101693328D01*
X87521257Y-101761664D01*
X87521265Y-101761720D01*
X87532789Y-101829548D01*
X87533323Y-101832983D01*
X87572639Y-102111470D01*
X87572650Y-102111533D01*
X87627514Y-102387352D01*
X87628145Y-102390771D01*
X87639672Y-102458613D01*
X87639676Y-102458633D01*
X87654984Y-102525703D01*
X87655710Y-102529103D01*
X87710582Y-102804963D01*
X87710584Y-102804969D01*
X87710586Y-102804979D01*
X87734790Y-102898812D01*
X87780843Y-103077347D01*
X87781664Y-103080724D01*
X87790074Y-103117571D01*
X87796975Y-103147803D01*
X87796976Y-103147805D01*
X87816024Y-103213924D01*
X87816934Y-103217258D01*
X87887196Y-103489639D01*
X87887200Y-103489651D01*
X87887202Y-103489661D01*
X87972620Y-103757658D01*
X87973629Y-103760984D01*
X87992663Y-103827050D01*
X87992672Y-103827080D01*
X88015401Y-103892036D01*
X88016491Y-103895297D01*
X88101914Y-104163310D01*
X88101915Y-104163313D01*
X88202232Y-104426119D01*
X88203426Y-104429385D01*
X88226145Y-104494311D01*
X88252471Y-104557868D01*
X88253757Y-104561100D01*
X88354074Y-104823901D01*
X88468952Y-105080629D01*
X88470327Y-105083821D01*
X88496664Y-105147401D01*
X88496678Y-105147433D01*
X88526517Y-105209393D01*
X88527982Y-105212547D01*
X88642864Y-105469283D01*
X88642873Y-105469302D01*
X88771987Y-105719227D01*
X88773540Y-105722340D01*
X88803383Y-105784309D01*
X88825025Y-105823469D01*
X88836661Y-105844522D01*
X88838299Y-105847588D01*
X88967408Y-106097501D01*
X89110326Y-106339784D01*
X89112050Y-106342802D01*
X89145329Y-106403014D01*
X89181911Y-106461235D01*
X89183720Y-106464204D01*
X89326654Y-106706511D01*
X89482922Y-106940382D01*
X89484813Y-106943300D01*
X89521423Y-107001563D01*
X89521424Y-107001565D01*
X89561235Y-107057673D01*
X89563208Y-107060538D01*
X89719480Y-107294416D01*
X89719489Y-107294429D01*
X89888599Y-107519136D01*
X89890651Y-107521943D01*
X89930487Y-107578086D01*
X89945939Y-107597462D01*
X89973406Y-107631906D01*
X89975534Y-107634653D01*
X90144665Y-107859388D01*
X90144669Y-107859392D01*
X90326143Y-108074300D01*
X90328316Y-108076948D01*
X90371235Y-108130766D01*
X90417102Y-108182091D01*
X90419349Y-108184678D01*
X90600835Y-108399601D01*
X90612927Y-108412391D01*
X90794130Y-108604057D01*
X90796438Y-108606568D01*
X90842279Y-108657864D01*
X90890894Y-108706479D01*
X90893319Y-108708972D01*
X91086594Y-108913406D01*
X91291026Y-109106679D01*
X91293519Y-109109104D01*
X91342136Y-109157721D01*
X91393437Y-109203566D01*
X91395936Y-109205863D01*
X91600396Y-109399162D01*
X91815339Y-109580665D01*
X91817888Y-109582880D01*
X91869234Y-109628765D01*
X91923066Y-109671695D01*
X91925688Y-109673847D01*
X91935686Y-109682289D01*
X92140607Y-109855331D01*
X92140628Y-109855347D01*
X92365366Y-110024480D01*
X92368094Y-110026593D01*
X92420558Y-110068432D01*
X92421919Y-110069517D01*
X92478055Y-110109347D01*
X92480863Y-110111400D01*
X92705570Y-110280510D01*
X92705600Y-110280531D01*
X92939459Y-110436790D01*
X92942288Y-110438738D01*
X92998438Y-110478578D01*
X92998448Y-110478584D01*
X92998455Y-110478589D01*
X93056696Y-110515184D01*
X93059588Y-110517058D01*
X93293491Y-110673347D01*
X93535762Y-110816259D01*
X93538732Y-110818068D01*
X93596986Y-110854671D01*
X93657194Y-110887947D01*
X93660214Y-110889672D01*
X93731471Y-110931705D01*
X93902501Y-111032593D01*
X94152434Y-111161711D01*
X94155451Y-111163323D01*
X94215691Y-111196617D01*
X94277730Y-111226493D01*
X94280727Y-111227989D01*
X94530696Y-111357126D01*
X94530714Y-111357134D01*
X94530716Y-111357135D01*
X94545345Y-111363681D01*
X94787456Y-111472019D01*
X94790549Y-111473454D01*
X94852590Y-111503332D01*
X94916186Y-111529674D01*
X94919310Y-111531019D01*
X95163795Y-111640420D01*
X95176100Y-111645926D01*
X95176112Y-111645931D01*
X95329634Y-111704533D01*
X95438903Y-111746243D01*
X95442077Y-111747505D01*
X95505685Y-111773853D01*
X95570687Y-111796598D01*
X95573845Y-111797753D01*
X95836681Y-111898083D01*
X96104739Y-111983520D01*
X96107942Y-111984591D01*
X96144556Y-111997403D01*
X96172908Y-112007324D01*
X96172911Y-112007324D01*
X96172920Y-112007328D01*
X96239083Y-112026389D01*
X96242298Y-112027364D01*
X96510361Y-112112804D01*
X96782819Y-112183085D01*
X96786003Y-112183955D01*
X96843710Y-112200580D01*
X96852193Y-112203024D01*
X96852195Y-112203024D01*
X96852197Y-112203025D01*
X96919292Y-112218339D01*
X96922602Y-112219142D01*
X97195021Y-112289414D01*
X97195026Y-112289415D01*
X97195030Y-112289416D01*
X97195036Y-112289417D01*
X97470919Y-112344293D01*
X97474243Y-112345003D01*
X97541378Y-112360326D01*
X97541386Y-112360327D01*
X97541389Y-112360328D01*
X97552719Y-112362253D01*
X97609264Y-112371860D01*
X97612571Y-112372470D01*
X97816377Y-112413009D01*
X97888470Y-112427350D01*
X97888479Y-112427351D01*
X97888507Y-112427357D01*
X98167145Y-112466694D01*
X98170361Y-112467194D01*
X98238295Y-112478737D01*
X98306780Y-112486453D01*
X98310032Y-112486866D01*
X98535354Y-112518676D01*
X98588627Y-112526198D01*
X98588631Y-112526198D01*
X98588636Y-112526199D01*
X98869004Y-112549847D01*
X98872288Y-112550170D01*
X98940755Y-112557885D01*
X99009510Y-112561746D01*
X99012892Y-112561984D01*
X99293206Y-112585628D01*
X99574403Y-112593517D01*
X99577748Y-112593658D01*
X99646548Y-112597522D01*
X99646565Y-112597522D01*
X99715386Y-112597522D01*
X99718864Y-112597571D01*
X99999993Y-112605459D01*
X100000000Y-112605459D01*
X100000007Y-112605459D01*
X100281136Y-112597571D01*
X100284614Y-112597522D01*
X100353435Y-112597522D01*
X100353452Y-112597522D01*
X100422260Y-112593657D01*
X100425589Y-112593517D01*
X100706794Y-112585628D01*
X100987117Y-112561983D01*
X100990484Y-112561746D01*
X101059245Y-112557885D01*
X101127725Y-112550169D01*
X101130982Y-112549848D01*
X101411364Y-112526199D01*
X101411371Y-112526198D01*
X101411373Y-112526198D01*
X101453311Y-112520277D01*
X101690011Y-112486860D01*
X101693179Y-112486457D01*
X101761705Y-112478737D01*
X101829629Y-112467196D01*
X101832930Y-112466683D01*
X102111493Y-112427357D01*
X102111524Y-112427350D01*
X102111529Y-112427350D01*
X102131803Y-112423317D01*
X102387509Y-112372453D01*
X102390614Y-112371881D01*
X102458622Y-112360326D01*
X102525799Y-112344993D01*
X102529050Y-112344299D01*
X102804979Y-112289414D01*
X103077451Y-112219129D01*
X103080619Y-112218359D01*
X103147803Y-112203025D01*
X103214049Y-112183939D01*
X103217141Y-112183095D01*
X103489639Y-112112804D01*
X103757740Y-112027352D01*
X103760896Y-112026395D01*
X103827080Y-112007328D01*
X103892120Y-111984569D01*
X103895195Y-111983541D01*
X104130923Y-111908408D01*
X104163301Y-111898089D01*
X104163303Y-111898087D01*
X104163319Y-111898083D01*
X104426137Y-111797759D01*
X104429329Y-111796592D01*
X104494315Y-111773853D01*
X104557960Y-111747490D01*
X104561057Y-111746258D01*
X104823900Y-111645926D01*
X105080719Y-111531006D01*
X105083750Y-111529700D01*
X105147410Y-111503332D01*
X105209504Y-111473428D01*
X105212428Y-111472070D01*
X105349324Y-111410813D01*
X105399968Y-111400000D01*
X107676000Y-111400000D01*
X107743039Y-111419685D01*
X107788794Y-111472489D01*
X107800000Y-111524000D01*
X107800000Y-124576000D01*
X107780315Y-124643039D01*
X107727511Y-124688794D01*
X107676000Y-124700000D01*
X58492884Y-124700000D01*
X58425845Y-124680315D01*
X58386097Y-124639029D01*
X58348895Y-124576000D01*
X57998939Y-123983085D01*
X57997174Y-123979994D01*
X57557861Y-123184151D01*
X57325227Y-122762720D01*
X57323558Y-122759589D01*
X57148854Y-122420347D01*
X56687003Y-121523519D01*
X56685413Y-121520319D01*
X56084717Y-120266364D01*
X56083220Y-120263119D01*
X55518927Y-118992411D01*
X55517524Y-118989125D01*
X54990078Y-117702667D01*
X54988770Y-117699341D01*
X54831347Y-117281459D01*
X54498610Y-116398203D01*
X54497422Y-116394907D01*
X54044937Y-115080113D01*
X54043845Y-115076783D01*
X53629458Y-113749558D01*
X53628445Y-113746142D01*
X53308070Y-112605459D01*
X53252471Y-112407502D01*
X53251559Y-112404061D01*
X53243664Y-112372483D01*
X52914328Y-111055182D01*
X52913535Y-111051805D01*
X52615295Y-109693680D01*
X52614594Y-109690252D01*
X52355625Y-108324127D01*
X52355022Y-108320675D01*
X52135531Y-106947676D01*
X52135030Y-106944228D01*
X51955189Y-105565404D01*
X51954787Y-105561938D01*
X51814757Y-104178518D01*
X51814456Y-104175045D01*
X51714354Y-102788193D01*
X51714155Y-102784743D01*
X51654060Y-101395581D01*
X51653958Y-101392025D01*
X51653393Y-101352795D01*
X51633921Y-100001734D01*
X51633921Y-99998265D01*
X51635007Y-99922903D01*
X56595793Y-99922903D01*
X56605672Y-100230970D01*
X56605672Y-100230975D01*
X56605673Y-100230978D01*
X56654867Y-100535261D01*
X56705781Y-100706805D01*
X56742571Y-100830763D01*
X56867333Y-101112601D01*
X56867337Y-101112609D01*
X57027123Y-101376193D01*
X57027127Y-101376198D01*
X57027133Y-101376207D01*
X57219297Y-101617174D01*
X57219299Y-101617176D01*
X57219303Y-101617180D01*
X57219304Y-101617181D01*
X57440724Y-101831614D01*
X57606933Y-101955659D01*
X57687741Y-102015968D01*
X57687743Y-102015969D01*
X57687747Y-102015972D01*
X57956318Y-102167228D01*
X58097057Y-102224207D01*
X58242018Y-102282897D01*
X58242023Y-102282898D01*
X58242025Y-102282899D01*
X58540179Y-102361084D01*
X58845883Y-102400500D01*
X58845890Y-102400500D01*
X59076971Y-102400500D01*
X59076974Y-102400500D01*
X59076978Y-102400499D01*
X59076996Y-102400499D01*
X59179700Y-102393904D01*
X59307601Y-102385693D01*
X59610151Y-102326772D01*
X59902683Y-102229644D01*
X59902689Y-102229640D01*
X59902693Y-102229640D01*
X60148028Y-102111493D01*
X60180393Y-102095907D01*
X60438720Y-101927754D01*
X60673424Y-101727948D01*
X60880650Y-101499769D01*
X61056996Y-101246963D01*
X61199567Y-100973683D01*
X61306020Y-100684415D01*
X61374609Y-100383908D01*
X61404206Y-100077098D01*
X61401733Y-99999992D01*
X61394327Y-99769029D01*
X61394327Y-99769022D01*
X61345133Y-99464739D01*
X61257431Y-99169244D01*
X61257429Y-99169239D01*
X61257428Y-99169236D01*
X61132666Y-98887398D01*
X61132663Y-98887391D01*
X60972877Y-98623807D01*
X60972870Y-98623799D01*
X60972866Y-98623792D01*
X60780702Y-98382825D01*
X60780700Y-98382823D01*
X60559279Y-98168389D01*
X60559276Y-98168386D01*
X60430450Y-98072241D01*
X60312258Y-97984031D01*
X60312253Y-97984028D01*
X60043682Y-97832772D01*
X60006383Y-97817671D01*
X59757981Y-97717102D01*
X59590660Y-97673226D01*
X59459821Y-97638916D01*
X59154117Y-97599500D01*
X58923026Y-97599500D01*
X58923003Y-97599500D01*
X58692406Y-97614306D01*
X58692389Y-97614308D01*
X58389854Y-97673226D01*
X58389849Y-97673228D01*
X58097310Y-97770358D01*
X58097306Y-97770359D01*
X57819613Y-97904089D01*
X57819605Y-97904094D01*
X57561286Y-98072241D01*
X57561276Y-98072248D01*
X57326581Y-98272046D01*
X57326571Y-98272056D01*
X57119354Y-98500225D01*
X57119350Y-98500229D01*
X56943005Y-98753033D01*
X56943003Y-98753037D01*
X56800432Y-99026319D01*
X56800429Y-99026326D01*
X56693981Y-99315580D01*
X56693979Y-99315590D01*
X56625391Y-99616089D01*
X56595794Y-99922902D01*
X56595793Y-99922903D01*
X51635007Y-99922903D01*
X51653958Y-98607955D01*
X51654061Y-98604402D01*
X51654744Y-98588621D01*
X51714155Y-97215252D01*
X51714354Y-97211810D01*
X51814457Y-95824947D01*
X51814756Y-95821487D01*
X51954788Y-94438053D01*
X51955188Y-94434602D01*
X52135031Y-93055762D01*
X52135530Y-93052333D01*
X52355024Y-91679312D01*
X52355622Y-91675884D01*
X52614597Y-90309734D01*
X52615292Y-90306333D01*
X52913538Y-88948179D01*
X52914324Y-88944832D01*
X53251567Y-87595905D01*
X53252466Y-87592514D01*
X53628453Y-86253828D01*
X53629452Y-86250460D01*
X54043851Y-84923196D01*
X54044930Y-84919907D01*
X54497429Y-83605070D01*
X54498602Y-83601818D01*
X54988773Y-82300650D01*
X54990078Y-82297332D01*
X55109238Y-82006697D01*
X55517536Y-81010844D01*
X55518914Y-81007617D01*
X56083245Y-79736825D01*
X56084692Y-79733688D01*
X56685426Y-78479652D01*
X56686989Y-78476507D01*
X57323585Y-77240358D01*
X57325211Y-77237307D01*
X57997197Y-76019962D01*
X57998921Y-76016943D01*
X58705717Y-74819453D01*
X58707508Y-74816518D01*
X59448508Y-73639914D01*
X59450405Y-73636997D01*
X60224982Y-72482267D01*
X60226959Y-72479409D01*
X61034516Y-71347447D01*
X61036598Y-71344617D01*
X61876404Y-70236447D01*
X61878533Y-70233720D01*
X62749941Y-69150191D01*
X62752211Y-69147451D01*
X62761106Y-69137021D01*
X63654464Y-68089506D01*
X63656775Y-68086874D01*
X64589109Y-67055405D01*
X64591541Y-67052791D01*
X64614711Y-67028597D01*
X65553243Y-66048585D01*
X65555742Y-66046051D01*
X65716833Y-65887265D01*
X66545990Y-65069970D01*
X66548500Y-65067567D01*
X66831038Y-64804688D01*
X66893523Y-64773436D01*
X66962990Y-64780927D01*
X67017379Y-64824786D01*
X67039422Y-64891088D01*
X67039500Y-64895472D01*
X67039500Y-65047869D01*
X67039501Y-65047876D01*
X67045908Y-65107483D01*
X67096202Y-65242328D01*
X67096206Y-65242335D01*
X67182452Y-65357544D01*
X67182455Y-65357547D01*
X67297664Y-65443793D01*
X67297669Y-65443796D01*
X67334913Y-65457687D01*
X67390846Y-65499556D01*
X67415265Y-65565020D01*
X67400414Y-65633293D01*
X67379263Y-65661549D01*
X67339954Y-65700858D01*
X67209432Y-65887265D01*
X67209431Y-65887267D01*
X67113261Y-66093502D01*
X67113258Y-66093511D01*
X67054366Y-66313302D01*
X67054364Y-66313313D01*
X67034532Y-66539998D01*
X67034532Y-66540001D01*
X67054364Y-66766686D01*
X67054366Y-66766697D01*
X67113258Y-66986488D01*
X67113261Y-66986497D01*
X67209431Y-67192732D01*
X67209432Y-67192734D01*
X67339954Y-67379141D01*
X67500858Y-67540045D01*
X67500861Y-67540047D01*
X67687266Y-67670568D01*
X67745275Y-67697618D01*
X67797714Y-67743791D01*
X67816866Y-67810984D01*
X67796650Y-67877865D01*
X67745275Y-67922382D01*
X67687267Y-67949431D01*
X67687265Y-67949432D01*
X67500858Y-68079954D01*
X67339954Y-68240858D01*
X67209432Y-68427265D01*
X67209431Y-68427267D01*
X67113261Y-68633502D01*
X67113258Y-68633511D01*
X67054366Y-68853302D01*
X67054364Y-68853313D01*
X67034532Y-69079998D01*
X67034532Y-69080001D01*
X67054364Y-69306686D01*
X67054366Y-69306697D01*
X67113258Y-69526488D01*
X67113261Y-69526497D01*
X67209431Y-69732732D01*
X67209432Y-69732734D01*
X67339954Y-69919141D01*
X67500858Y-70080045D01*
X67500861Y-70080047D01*
X67687266Y-70210568D01*
X67745275Y-70237618D01*
X67797714Y-70283791D01*
X67816866Y-70350984D01*
X67796650Y-70417865D01*
X67745275Y-70462382D01*
X67687267Y-70489431D01*
X67687265Y-70489432D01*
X67500858Y-70619954D01*
X67339954Y-70780858D01*
X67209432Y-70967265D01*
X67209431Y-70967267D01*
X67113261Y-71173502D01*
X67113258Y-71173511D01*
X67054366Y-71393302D01*
X67054364Y-71393313D01*
X67034532Y-71619998D01*
X67034532Y-71620001D01*
X67054364Y-71846686D01*
X67054366Y-71846697D01*
X67113258Y-72066488D01*
X67113261Y-72066497D01*
X67209431Y-72272732D01*
X67209432Y-72272734D01*
X67339954Y-72459141D01*
X67500858Y-72620045D01*
X67500861Y-72620047D01*
X67687266Y-72750568D01*
X67745275Y-72777618D01*
X67797714Y-72823791D01*
X67816866Y-72890984D01*
X67796650Y-72957865D01*
X67745275Y-73002382D01*
X67687267Y-73029431D01*
X67687265Y-73029432D01*
X67500858Y-73159954D01*
X67339954Y-73320858D01*
X67209432Y-73507265D01*
X67209431Y-73507267D01*
X67113261Y-73713502D01*
X67113258Y-73713511D01*
X67054366Y-73933302D01*
X67054364Y-73933313D01*
X67034532Y-74159998D01*
X67034532Y-74160001D01*
X67054364Y-74386686D01*
X67054366Y-74386697D01*
X67113258Y-74606488D01*
X67113261Y-74606497D01*
X67209431Y-74812732D01*
X67209432Y-74812734D01*
X67339954Y-74999141D01*
X67500858Y-75160045D01*
X67500861Y-75160047D01*
X67687266Y-75290568D01*
X67745275Y-75317618D01*
X67797714Y-75363791D01*
X67816866Y-75430984D01*
X67796650Y-75497865D01*
X67745275Y-75542382D01*
X67687267Y-75569431D01*
X67687265Y-75569432D01*
X67500858Y-75699954D01*
X67339954Y-75860858D01*
X67209432Y-76047265D01*
X67209431Y-76047267D01*
X67113261Y-76253502D01*
X67113258Y-76253511D01*
X67054366Y-76473302D01*
X67054364Y-76473313D01*
X67034532Y-76699998D01*
X67034532Y-76700001D01*
X67054364Y-76926686D01*
X67054366Y-76926697D01*
X67113258Y-77146488D01*
X67113261Y-77146497D01*
X67209431Y-77352732D01*
X67209432Y-77352734D01*
X67339954Y-77539141D01*
X67500858Y-77700045D01*
X67500861Y-77700047D01*
X67687266Y-77830568D01*
X67745275Y-77857618D01*
X67797714Y-77903791D01*
X67816866Y-77970984D01*
X67796650Y-78037865D01*
X67745275Y-78082382D01*
X67687267Y-78109431D01*
X67687265Y-78109432D01*
X67500858Y-78239954D01*
X67339954Y-78400858D01*
X67209432Y-78587265D01*
X67209431Y-78587267D01*
X67113261Y-78793502D01*
X67113258Y-78793511D01*
X67054366Y-79013302D01*
X67054364Y-79013313D01*
X67034532Y-79239998D01*
X67034532Y-79240001D01*
X67054364Y-79466686D01*
X67054366Y-79466697D01*
X67113258Y-79686488D01*
X67113261Y-79686497D01*
X67209431Y-79892732D01*
X67209432Y-79892734D01*
X67339954Y-80079141D01*
X67500858Y-80240045D01*
X67500861Y-80240047D01*
X67687266Y-80370568D01*
X67744681Y-80397341D01*
X67745275Y-80397618D01*
X67797714Y-80443791D01*
X67816866Y-80510984D01*
X67796650Y-80577865D01*
X67745275Y-80622382D01*
X67687267Y-80649431D01*
X67687265Y-80649432D01*
X67500858Y-80779954D01*
X67339954Y-80940858D01*
X67209432Y-81127265D01*
X67209431Y-81127267D01*
X67113261Y-81333502D01*
X67113258Y-81333511D01*
X67054366Y-81553302D01*
X67054364Y-81553313D01*
X67034532Y-81779998D01*
X67034532Y-81780001D01*
X67054364Y-82006686D01*
X67054366Y-82006697D01*
X67113258Y-82226488D01*
X67113261Y-82226497D01*
X67209431Y-82432732D01*
X67209432Y-82432734D01*
X67339954Y-82619141D01*
X67500858Y-82780045D01*
X67500861Y-82780047D01*
X67687266Y-82910568D01*
X67893504Y-83006739D01*
X68113308Y-83065635D01*
X68283214Y-83080499D01*
X68283215Y-83080500D01*
X68283216Y-83080500D01*
X68796785Y-83080500D01*
X68796785Y-83080499D01*
X68966692Y-83065635D01*
X69186496Y-83006739D01*
X69198095Y-83001329D01*
X69267172Y-82990838D01*
X69330956Y-83019357D01*
X69369196Y-83077834D01*
X69374500Y-83113712D01*
X69374500Y-111717255D01*
X69372775Y-111732872D01*
X69373061Y-111732899D01*
X69372326Y-111740665D01*
X69374439Y-111807872D01*
X69374500Y-111811767D01*
X69374500Y-111839357D01*
X69375003Y-111843335D01*
X69375918Y-111854967D01*
X69377290Y-111898624D01*
X69377291Y-111898627D01*
X69382880Y-111917867D01*
X69386824Y-111936911D01*
X69389336Y-111956792D01*
X69405414Y-111997403D01*
X69409197Y-112008452D01*
X69421381Y-112050388D01*
X69431580Y-112067634D01*
X69440138Y-112085103D01*
X69447514Y-112103732D01*
X69473181Y-112139060D01*
X69479593Y-112148821D01*
X69501828Y-112186417D01*
X69501833Y-112186424D01*
X69515990Y-112200580D01*
X69528628Y-112215376D01*
X69540405Y-112231586D01*
X69540406Y-112231587D01*
X69574057Y-112259425D01*
X69582698Y-112267288D01*
X79661038Y-122345628D01*
X79694523Y-122406951D01*
X79696678Y-122420347D01*
X79704139Y-122491338D01*
X79714326Y-122588256D01*
X79714327Y-122588259D01*
X79772818Y-122768277D01*
X79772821Y-122768284D01*
X79867467Y-122932216D01*
X79994129Y-123072888D01*
X80147265Y-123184148D01*
X80147270Y-123184151D01*
X80320192Y-123261142D01*
X80320197Y-123261144D01*
X80505354Y-123300500D01*
X80505355Y-123300500D01*
X80694644Y-123300500D01*
X80694646Y-123300500D01*
X80879803Y-123261144D01*
X81052730Y-123184151D01*
X81205871Y-123072888D01*
X81332533Y-122932216D01*
X81427179Y-122768284D01*
X81485674Y-122588256D01*
X81505460Y-122400000D01*
X81485674Y-122211744D01*
X81427179Y-122031716D01*
X81332533Y-121867784D01*
X81205871Y-121727112D01*
X81205870Y-121727111D01*
X81052734Y-121615851D01*
X81052729Y-121615848D01*
X80879807Y-121538857D01*
X80879802Y-121538855D01*
X80734001Y-121507865D01*
X80694646Y-121499500D01*
X80694645Y-121499500D01*
X80635452Y-121499500D01*
X80568413Y-121479815D01*
X80547771Y-121463181D01*
X70661819Y-111577228D01*
X70628334Y-111515905D01*
X70625500Y-111489547D01*
X70625500Y-101809452D01*
X70645185Y-101742413D01*
X70697989Y-101696658D01*
X70767147Y-101686714D01*
X70830703Y-101715739D01*
X70837181Y-101721771D01*
X78435876Y-109320467D01*
X78469361Y-109381790D01*
X78464377Y-109451482D01*
X78422505Y-109507415D01*
X78359004Y-109531676D01*
X78264596Y-109539936D01*
X78264586Y-109539938D01*
X78036344Y-109601094D01*
X78036335Y-109601098D01*
X77822171Y-109700964D01*
X77822169Y-109700965D01*
X77628597Y-109836505D01*
X77461508Y-110003594D01*
X77351269Y-110161032D01*
X77296692Y-110204656D01*
X77227193Y-110211849D01*
X77164839Y-110180327D01*
X77148119Y-110161031D01*
X77038113Y-110003926D01*
X77038108Y-110003920D01*
X76871082Y-109836894D01*
X76677578Y-109701399D01*
X76463492Y-109601570D01*
X76463486Y-109601567D01*
X76250000Y-109544364D01*
X76250000Y-110591981D01*
X76135199Y-110539554D01*
X76033975Y-110525000D01*
X75966025Y-110525000D01*
X75864801Y-110539554D01*
X75750000Y-110591981D01*
X75750000Y-109544364D01*
X75749999Y-109544364D01*
X75536513Y-109601567D01*
X75536507Y-109601570D01*
X75322422Y-109701399D01*
X75322420Y-109701400D01*
X75128926Y-109836886D01*
X75128920Y-109836891D01*
X74961891Y-110003920D01*
X74961886Y-110003926D01*
X74826400Y-110197420D01*
X74826399Y-110197422D01*
X74726570Y-110411507D01*
X74726566Y-110411516D01*
X74665432Y-110639673D01*
X74665430Y-110639683D01*
X74655779Y-110750000D01*
X75596031Y-110750000D01*
X75563481Y-110800649D01*
X75525000Y-110931705D01*
X75525000Y-111068295D01*
X75563481Y-111199351D01*
X75596031Y-111250000D01*
X74655779Y-111250000D01*
X74665430Y-111360316D01*
X74665432Y-111360326D01*
X74726566Y-111588483D01*
X74726570Y-111588492D01*
X74826399Y-111802577D01*
X74826400Y-111802579D01*
X74961886Y-111996073D01*
X74961891Y-111996079D01*
X75128917Y-112163105D01*
X75322421Y-112298600D01*
X75536507Y-112398429D01*
X75536516Y-112398433D01*
X75750000Y-112455634D01*
X75750000Y-111408018D01*
X75864801Y-111460446D01*
X75966025Y-111475000D01*
X76033975Y-111475000D01*
X76135199Y-111460446D01*
X76250000Y-111408018D01*
X76250000Y-112455633D01*
X76463483Y-112398433D01*
X76463492Y-112398429D01*
X76677577Y-112298600D01*
X76677579Y-112298599D01*
X76871073Y-112163113D01*
X76871079Y-112163108D01*
X77038108Y-111996079D01*
X77038113Y-111996073D01*
X77148119Y-111838967D01*
X77202695Y-111795342D01*
X77272194Y-111788148D01*
X77334549Y-111819670D01*
X77351269Y-111838967D01*
X77461505Y-111996402D01*
X77550207Y-112085103D01*
X77628599Y-112163495D01*
X77685054Y-112203025D01*
X77822165Y-112299032D01*
X77822167Y-112299033D01*
X77822170Y-112299035D01*
X78036337Y-112398903D01*
X78264592Y-112460063D01*
X78441034Y-112475500D01*
X78499999Y-112480659D01*
X78500000Y-112480659D01*
X78500001Y-112480659D01*
X78558966Y-112475500D01*
X78735408Y-112460063D01*
X78963663Y-112398903D01*
X79177829Y-112299035D01*
X79371401Y-112163495D01*
X79518602Y-112016293D01*
X79579924Y-111982810D01*
X79649615Y-111987794D01*
X79705549Y-112029665D01*
X79711821Y-112038879D01*
X79715186Y-112044334D01*
X79807288Y-112193656D01*
X79931344Y-112317712D01*
X80080666Y-112409814D01*
X80247203Y-112464999D01*
X80349991Y-112475500D01*
X81650008Y-112475499D01*
X81752797Y-112464999D01*
X81919334Y-112409814D01*
X82068656Y-112317712D01*
X82192712Y-112193656D01*
X82284814Y-112044334D01*
X82339999Y-111877797D01*
X82350500Y-111775009D01*
X82350499Y-110224992D01*
X82349156Y-110211849D01*
X82339999Y-110122203D01*
X82339998Y-110122200D01*
X82335739Y-110109347D01*
X82284814Y-109955666D01*
X82192712Y-109806344D01*
X82068656Y-109682288D01*
X81937786Y-109601567D01*
X81919336Y-109590187D01*
X81919331Y-109590185D01*
X81890508Y-109580634D01*
X81752797Y-109535001D01*
X81752795Y-109535000D01*
X81650016Y-109524500D01*
X81650009Y-109524500D01*
X80460453Y-109524500D01*
X80393414Y-109504815D01*
X80372772Y-109488181D01*
X71609591Y-100725000D01*
X73405779Y-100725000D01*
X73415430Y-100835316D01*
X73415432Y-100835326D01*
X73476566Y-101063483D01*
X73476570Y-101063492D01*
X73576399Y-101277577D01*
X73576400Y-101277579D01*
X73711886Y-101471073D01*
X73711891Y-101471079D01*
X73878917Y-101638105D01*
X74072421Y-101773600D01*
X74286507Y-101873429D01*
X74286516Y-101873433D01*
X74500000Y-101930634D01*
X74500000Y-100883018D01*
X74614801Y-100935446D01*
X74716025Y-100950000D01*
X74783975Y-100950000D01*
X74885199Y-100935446D01*
X75000000Y-100883018D01*
X75000000Y-101930633D01*
X75213483Y-101873433D01*
X75213492Y-101873429D01*
X75427577Y-101773600D01*
X75427579Y-101773599D01*
X75621073Y-101638113D01*
X75621079Y-101638108D01*
X75788108Y-101471079D01*
X75788113Y-101471073D01*
X75898119Y-101313967D01*
X75952695Y-101270342D01*
X76022194Y-101263148D01*
X76084549Y-101294670D01*
X76101269Y-101313967D01*
X76211505Y-101471402D01*
X76357278Y-101617174D01*
X76378599Y-101638495D01*
X76456909Y-101693328D01*
X76572165Y-101774032D01*
X76572167Y-101774033D01*
X76572170Y-101774035D01*
X76786337Y-101873903D01*
X77014592Y-101935063D01*
X77191034Y-101950500D01*
X77249999Y-101955659D01*
X77250000Y-101955659D01*
X77250001Y-101955659D01*
X77308966Y-101950500D01*
X77485408Y-101935063D01*
X77713663Y-101873903D01*
X77927829Y-101774035D01*
X78121401Y-101638495D01*
X78288495Y-101471401D01*
X78398426Y-101314401D01*
X78453001Y-101270778D01*
X78522500Y-101263584D01*
X78584855Y-101295106D01*
X78601571Y-101314398D01*
X78668999Y-101410696D01*
X78711506Y-101471403D01*
X78857278Y-101617174D01*
X78878599Y-101638495D01*
X78956909Y-101693328D01*
X79072165Y-101774032D01*
X79072167Y-101774033D01*
X79072170Y-101774035D01*
X79286337Y-101873903D01*
X79514592Y-101935063D01*
X79691034Y-101950500D01*
X79749999Y-101955659D01*
X79750000Y-101955659D01*
X79750001Y-101955659D01*
X79808966Y-101950500D01*
X79985408Y-101935063D01*
X80213663Y-101873903D01*
X80427829Y-101774035D01*
X80621401Y-101638495D01*
X80768602Y-101491293D01*
X80829924Y-101457810D01*
X80899615Y-101462794D01*
X80955549Y-101504665D01*
X80961821Y-101513879D01*
X80965186Y-101519334D01*
X81057288Y-101668656D01*
X81181344Y-101792712D01*
X81330666Y-101884814D01*
X81497203Y-101939999D01*
X81599991Y-101950500D01*
X82900008Y-101950499D01*
X83002797Y-101939999D01*
X83169334Y-101884814D01*
X83318656Y-101792712D01*
X83442712Y-101668656D01*
X83534814Y-101519334D01*
X83589999Y-101352797D01*
X83600500Y-101250009D01*
X83600499Y-99699992D01*
X83599156Y-99686849D01*
X83589999Y-99597203D01*
X83589998Y-99597200D01*
X83552104Y-99482845D01*
X83534814Y-99430666D01*
X83442712Y-99281344D01*
X83318656Y-99157288D01*
X83187786Y-99076567D01*
X83169336Y-99065187D01*
X83169331Y-99065185D01*
X83167862Y-99064698D01*
X83002797Y-99010001D01*
X83002795Y-99010000D01*
X82900010Y-98999500D01*
X81599998Y-98999500D01*
X81599981Y-98999501D01*
X81497203Y-99010000D01*
X81497200Y-99010001D01*
X81330668Y-99065185D01*
X81330663Y-99065187D01*
X81181342Y-99157289D01*
X81057289Y-99281342D01*
X80961821Y-99436121D01*
X80909873Y-99482845D01*
X80840910Y-99494068D01*
X80776828Y-99466224D01*
X80768601Y-99458705D01*
X80621402Y-99311506D01*
X80621395Y-99311501D01*
X80427834Y-99175967D01*
X80427830Y-99175965D01*
X80387777Y-99157288D01*
X80213663Y-99076097D01*
X80213659Y-99076096D01*
X80213655Y-99076094D01*
X79985413Y-99014938D01*
X79985403Y-99014936D01*
X79750001Y-98994341D01*
X79749999Y-98994341D01*
X79514596Y-99014936D01*
X79514586Y-99014938D01*
X79286344Y-99076094D01*
X79286335Y-99076098D01*
X79072171Y-99175964D01*
X79072169Y-99175965D01*
X78878597Y-99311505D01*
X78711505Y-99478597D01*
X78601575Y-99635595D01*
X78546998Y-99679220D01*
X78477500Y-99686414D01*
X78415145Y-99654891D01*
X78398425Y-99635595D01*
X78288494Y-99478597D01*
X78121402Y-99311506D01*
X78121395Y-99311501D01*
X77927834Y-99175967D01*
X77927830Y-99175965D01*
X77887777Y-99157288D01*
X77713663Y-99076097D01*
X77713659Y-99076096D01*
X77713655Y-99076094D01*
X77485413Y-99014938D01*
X77485403Y-99014936D01*
X77250001Y-98994341D01*
X77249999Y-98994341D01*
X77014596Y-99014936D01*
X77014586Y-99014938D01*
X76786344Y-99076094D01*
X76786335Y-99076098D01*
X76572171Y-99175964D01*
X76572169Y-99175965D01*
X76378597Y-99311505D01*
X76211508Y-99478594D01*
X76101269Y-99636032D01*
X76046692Y-99679656D01*
X75977193Y-99686849D01*
X75914839Y-99655327D01*
X75898119Y-99636031D01*
X75788113Y-99478926D01*
X75788108Y-99478920D01*
X75621082Y-99311894D01*
X75427578Y-99176399D01*
X75213492Y-99076570D01*
X75213486Y-99076567D01*
X75000000Y-99019364D01*
X75000000Y-100066981D01*
X74885199Y-100014554D01*
X74783975Y-100000000D01*
X74716025Y-100000000D01*
X74614801Y-100014554D01*
X74500000Y-100066981D01*
X74500000Y-99019364D01*
X74499999Y-99019364D01*
X74286513Y-99076567D01*
X74286507Y-99076570D01*
X74072422Y-99176399D01*
X74072420Y-99176400D01*
X73878926Y-99311886D01*
X73878920Y-99311891D01*
X73711891Y-99478920D01*
X73711886Y-99478926D01*
X73576400Y-99672420D01*
X73576399Y-99672422D01*
X73476570Y-99886507D01*
X73476566Y-99886516D01*
X73415432Y-100114673D01*
X73415430Y-100114683D01*
X73405779Y-100225000D01*
X74346031Y-100225000D01*
X74313481Y-100275649D01*
X74275000Y-100406705D01*
X74275000Y-100543295D01*
X74313481Y-100674351D01*
X74346031Y-100725000D01*
X73405779Y-100725000D01*
X71609591Y-100725000D01*
X71111819Y-100227228D01*
X71078334Y-100165905D01*
X71075500Y-100139547D01*
X71075500Y-86000001D01*
X74334532Y-86000001D01*
X74354364Y-86226686D01*
X74354366Y-86226697D01*
X74413258Y-86446488D01*
X74413261Y-86446497D01*
X74509431Y-86652732D01*
X74509432Y-86652734D01*
X74639954Y-86839141D01*
X74800858Y-87000045D01*
X74800861Y-87000047D01*
X74987266Y-87130568D01*
X75193504Y-87226739D01*
X75413308Y-87285635D01*
X75575230Y-87299801D01*
X75639998Y-87305468D01*
X75640000Y-87305468D01*
X75640002Y-87305468D01*
X75696673Y-87300509D01*
X75866692Y-87285635D01*
X76086496Y-87226739D01*
X76292734Y-87130568D01*
X76479139Y-87000047D01*
X76640047Y-86839139D01*
X76770568Y-86652734D01*
X76866739Y-86446496D01*
X76925635Y-86226692D01*
X76945468Y-86000001D01*
X84494532Y-86000001D01*
X84514364Y-86226686D01*
X84514366Y-86226697D01*
X84573258Y-86446488D01*
X84573261Y-86446497D01*
X84669431Y-86652732D01*
X84669432Y-86652734D01*
X84799954Y-86839141D01*
X84960858Y-87000045D01*
X84960861Y-87000047D01*
X85147266Y-87130568D01*
X85353504Y-87226739D01*
X85573308Y-87285635D01*
X85735230Y-87299801D01*
X85799998Y-87305468D01*
X85800000Y-87305468D01*
X85800002Y-87305468D01*
X85856673Y-87300509D01*
X86026692Y-87285635D01*
X86246496Y-87226739D01*
X86452734Y-87130568D01*
X86485150Y-87107870D01*
X108199500Y-87107870D01*
X108199501Y-87107876D01*
X108205908Y-87167483D01*
X108256202Y-87302328D01*
X108256206Y-87302335D01*
X108342452Y-87417544D01*
X108342455Y-87417547D01*
X108457664Y-87503793D01*
X108457671Y-87503797D01*
X108592517Y-87554091D01*
X108592516Y-87554091D01*
X108599444Y-87554835D01*
X108652127Y-87560500D01*
X110947872Y-87560499D01*
X111007483Y-87554091D01*
X111142331Y-87503796D01*
X111257546Y-87417546D01*
X111343796Y-87302331D01*
X111394091Y-87167483D01*
X111400500Y-87107873D01*
X111400499Y-84812128D01*
X111394091Y-84752517D01*
X111379861Y-84714365D01*
X111343797Y-84617671D01*
X111343793Y-84617664D01*
X111257547Y-84502455D01*
X111257544Y-84502452D01*
X111142335Y-84416206D01*
X111142328Y-84416202D01*
X111007482Y-84365908D01*
X111007483Y-84365908D01*
X110947883Y-84359501D01*
X110947881Y-84359500D01*
X110947873Y-84359500D01*
X110947864Y-84359500D01*
X108652129Y-84359500D01*
X108652123Y-84359501D01*
X108592516Y-84365908D01*
X108457671Y-84416202D01*
X108457664Y-84416206D01*
X108342455Y-84502452D01*
X108342452Y-84502455D01*
X108256206Y-84617664D01*
X108256202Y-84617671D01*
X108205908Y-84752517D01*
X108199501Y-84812116D01*
X108199501Y-84812123D01*
X108199500Y-84812135D01*
X108199500Y-87107870D01*
X86485150Y-87107870D01*
X86639139Y-87000047D01*
X86800047Y-86839139D01*
X86930568Y-86652734D01*
X87026739Y-86446496D01*
X87085635Y-86226692D01*
X87105468Y-86000000D01*
X87085635Y-85773308D01*
X87026739Y-85553504D01*
X86930568Y-85347266D01*
X86800047Y-85160861D01*
X86800045Y-85160858D01*
X86639141Y-84999954D01*
X86452734Y-84869432D01*
X86452732Y-84869431D01*
X86246497Y-84773261D01*
X86246488Y-84773258D01*
X86026697Y-84714366D01*
X86026693Y-84714365D01*
X86026692Y-84714365D01*
X86026691Y-84714364D01*
X86026686Y-84714364D01*
X85800002Y-84694532D01*
X85799998Y-84694532D01*
X85573313Y-84714364D01*
X85573302Y-84714366D01*
X85353511Y-84773258D01*
X85353502Y-84773261D01*
X85147267Y-84869431D01*
X85147265Y-84869432D01*
X84960858Y-84999954D01*
X84799954Y-85160858D01*
X84669432Y-85347265D01*
X84669431Y-85347267D01*
X84573261Y-85553502D01*
X84573258Y-85553511D01*
X84514366Y-85773302D01*
X84514364Y-85773313D01*
X84494532Y-85999998D01*
X84494532Y-86000001D01*
X76945468Y-86000001D01*
X76945468Y-86000000D01*
X76925635Y-85773308D01*
X76866739Y-85553504D01*
X76770568Y-85347266D01*
X76640047Y-85160861D01*
X76640045Y-85160858D01*
X76479141Y-84999954D01*
X76292734Y-84869432D01*
X76292732Y-84869431D01*
X76086497Y-84773261D01*
X76086488Y-84773258D01*
X75866697Y-84714366D01*
X75866693Y-84714365D01*
X75866692Y-84714365D01*
X75866691Y-84714364D01*
X75866686Y-84714364D01*
X75640002Y-84694532D01*
X75639998Y-84694532D01*
X75413313Y-84714364D01*
X75413302Y-84714366D01*
X75193511Y-84773258D01*
X75193502Y-84773261D01*
X74987267Y-84869431D01*
X74987265Y-84869432D01*
X74800858Y-84999954D01*
X74639954Y-85160858D01*
X74509432Y-85347265D01*
X74509431Y-85347267D01*
X74413261Y-85553502D01*
X74413258Y-85553511D01*
X74354366Y-85773302D01*
X74354364Y-85773313D01*
X74334532Y-85999998D01*
X74334532Y-86000001D01*
X71075500Y-86000001D01*
X71075500Y-80400001D01*
X74334532Y-80400001D01*
X74354364Y-80626686D01*
X74354366Y-80626697D01*
X74413258Y-80846488D01*
X74413261Y-80846497D01*
X74509431Y-81052732D01*
X74509432Y-81052734D01*
X74639954Y-81239141D01*
X74800858Y-81400045D01*
X74800861Y-81400047D01*
X74987266Y-81530568D01*
X75193504Y-81626739D01*
X75413308Y-81685635D01*
X75575230Y-81699801D01*
X75639998Y-81705468D01*
X75640000Y-81705468D01*
X75640002Y-81705468D01*
X75696673Y-81700509D01*
X75866692Y-81685635D01*
X76086496Y-81626739D01*
X76292734Y-81530568D01*
X76479139Y-81400047D01*
X76640047Y-81239139D01*
X76770568Y-81052734D01*
X76866739Y-80846496D01*
X76925635Y-80626692D01*
X76945468Y-80400000D01*
X76945235Y-80397342D01*
X76931474Y-80240047D01*
X76925635Y-80173308D01*
X76919389Y-80149999D01*
X84521127Y-80149999D01*
X84521128Y-80150000D01*
X85484314Y-80150000D01*
X85472359Y-80161955D01*
X85414835Y-80274852D01*
X85395014Y-80400000D01*
X85414835Y-80525148D01*
X85472359Y-80638045D01*
X85484314Y-80650000D01*
X84521128Y-80650000D01*
X84573730Y-80846317D01*
X84573734Y-80846326D01*
X84669865Y-81052482D01*
X84800342Y-81238820D01*
X84961179Y-81399657D01*
X85147517Y-81530134D01*
X85353673Y-81626265D01*
X85353682Y-81626269D01*
X85549999Y-81678872D01*
X85550000Y-81678871D01*
X85550000Y-80715686D01*
X85561955Y-80727641D01*
X85674852Y-80785165D01*
X85768519Y-80800000D01*
X85831481Y-80800000D01*
X85925148Y-80785165D01*
X86038045Y-80727641D01*
X86050000Y-80715686D01*
X86050000Y-81678872D01*
X86246317Y-81626269D01*
X86246326Y-81626265D01*
X86452482Y-81530134D01*
X86638820Y-81399657D01*
X86799657Y-81238820D01*
X86930134Y-81052482D01*
X87026265Y-80846326D01*
X87026269Y-80846317D01*
X87078872Y-80650000D01*
X86115686Y-80650000D01*
X86127641Y-80638045D01*
X86185165Y-80525148D01*
X86204986Y-80400000D01*
X86185165Y-80274852D01*
X86127641Y-80161955D01*
X86115686Y-80150000D01*
X87078872Y-80150000D01*
X87078872Y-80149999D01*
X87026269Y-79953682D01*
X87026265Y-79953673D01*
X86930134Y-79747517D01*
X86799657Y-79561179D01*
X86638820Y-79400342D01*
X86452482Y-79269865D01*
X86246328Y-79173734D01*
X86050000Y-79121127D01*
X86050000Y-80084314D01*
X86038045Y-80072359D01*
X85925148Y-80014835D01*
X85831481Y-80000000D01*
X85768519Y-80000000D01*
X85674852Y-80014835D01*
X85561955Y-80072359D01*
X85550000Y-80084314D01*
X85550000Y-79121127D01*
X85353671Y-79173734D01*
X85147517Y-79269865D01*
X84961179Y-79400342D01*
X84800342Y-79561179D01*
X84669865Y-79747517D01*
X84573734Y-79953673D01*
X84573730Y-79953682D01*
X84521127Y-80149999D01*
X76919389Y-80149999D01*
X76866739Y-79953504D01*
X76770568Y-79747266D01*
X76640047Y-79560861D01*
X76640045Y-79560858D01*
X76479141Y-79399954D01*
X76292734Y-79269432D01*
X76292732Y-79269431D01*
X76086497Y-79173261D01*
X76086488Y-79173258D01*
X75866697Y-79114366D01*
X75866693Y-79114365D01*
X75866692Y-79114365D01*
X75866691Y-79114364D01*
X75866686Y-79114364D01*
X75640002Y-79094532D01*
X75639998Y-79094532D01*
X75413313Y-79114364D01*
X75413302Y-79114366D01*
X75193511Y-79173258D01*
X75193502Y-79173261D01*
X74987267Y-79269431D01*
X74987265Y-79269432D01*
X74800858Y-79399954D01*
X74639954Y-79560858D01*
X74509432Y-79747265D01*
X74509431Y-79747267D01*
X74413261Y-79953502D01*
X74413258Y-79953511D01*
X74354366Y-80173302D01*
X74354364Y-80173313D01*
X74334532Y-80399998D01*
X74334532Y-80400001D01*
X71075500Y-80400001D01*
X71075500Y-74833335D01*
X74334532Y-74833335D01*
X74354364Y-75060020D01*
X74354366Y-75060031D01*
X74413258Y-75279822D01*
X74413261Y-75279831D01*
X74509431Y-75486066D01*
X74509432Y-75486068D01*
X74639954Y-75672475D01*
X74800858Y-75833379D01*
X74800861Y-75833381D01*
X74987266Y-75963902D01*
X75193504Y-76060073D01*
X75413308Y-76118969D01*
X75575230Y-76133135D01*
X75639998Y-76138802D01*
X75640000Y-76138802D01*
X75640002Y-76138802D01*
X75696673Y-76133843D01*
X75866692Y-76118969D01*
X76086496Y-76060073D01*
X76292734Y-75963902D01*
X76479139Y-75833381D01*
X76640047Y-75672473D01*
X76770568Y-75486068D01*
X76866739Y-75279830D01*
X76925635Y-75060026D01*
X76945468Y-74833335D01*
X84494532Y-74833335D01*
X84514364Y-75060020D01*
X84514366Y-75060031D01*
X84573258Y-75279822D01*
X84573261Y-75279831D01*
X84669431Y-75486066D01*
X84669432Y-75486068D01*
X84799954Y-75672475D01*
X84960858Y-75833379D01*
X84960861Y-75833381D01*
X85147266Y-75963902D01*
X85353504Y-76060073D01*
X85573308Y-76118969D01*
X85735230Y-76133135D01*
X85799998Y-76138802D01*
X85800000Y-76138802D01*
X85800002Y-76138802D01*
X85856673Y-76133843D01*
X86026692Y-76118969D01*
X86246496Y-76060073D01*
X86452734Y-75963902D01*
X86639139Y-75833381D01*
X86800047Y-75672473D01*
X86930568Y-75486068D01*
X87026739Y-75279830D01*
X87085635Y-75060026D01*
X87105468Y-74833334D01*
X87085635Y-74606642D01*
X87030132Y-74399500D01*
X87026741Y-74386845D01*
X87026738Y-74386836D01*
X87018669Y-74369533D01*
X86930568Y-74180600D01*
X86800047Y-73994195D01*
X86800045Y-73994192D01*
X86639141Y-73833288D01*
X86452734Y-73702766D01*
X86452732Y-73702765D01*
X86246497Y-73606595D01*
X86246488Y-73606592D01*
X86026697Y-73547700D01*
X86026693Y-73547699D01*
X86026692Y-73547699D01*
X86026691Y-73547698D01*
X86026686Y-73547698D01*
X85800002Y-73527866D01*
X85799998Y-73527866D01*
X85573313Y-73547698D01*
X85573302Y-73547700D01*
X85353511Y-73606592D01*
X85353502Y-73606595D01*
X85147267Y-73702765D01*
X85147265Y-73702766D01*
X84960858Y-73833288D01*
X84799954Y-73994192D01*
X84669432Y-74180599D01*
X84669431Y-74180601D01*
X84573261Y-74386836D01*
X84573258Y-74386845D01*
X84514366Y-74606636D01*
X84514364Y-74606647D01*
X84494532Y-74833332D01*
X84494532Y-74833335D01*
X76945468Y-74833335D01*
X76945468Y-74833334D01*
X76925635Y-74606642D01*
X76870132Y-74399500D01*
X76866741Y-74386845D01*
X76866738Y-74386836D01*
X76858669Y-74369533D01*
X76770568Y-74180600D01*
X76640047Y-73994195D01*
X76640045Y-73994192D01*
X76479141Y-73833288D01*
X76292734Y-73702766D01*
X76292732Y-73702765D01*
X76086497Y-73606595D01*
X76086488Y-73606592D01*
X75866697Y-73547700D01*
X75866693Y-73547699D01*
X75866692Y-73547699D01*
X75866691Y-73547698D01*
X75866686Y-73547698D01*
X75640002Y-73527866D01*
X75639998Y-73527866D01*
X75413313Y-73547698D01*
X75413302Y-73547700D01*
X75193511Y-73606592D01*
X75193502Y-73606595D01*
X74987267Y-73702765D01*
X74987265Y-73702766D01*
X74800858Y-73833288D01*
X74639954Y-73994192D01*
X74509432Y-74180599D01*
X74509431Y-74180601D01*
X74413261Y-74386836D01*
X74413258Y-74386845D01*
X74354366Y-74606636D01*
X74354364Y-74606647D01*
X74334532Y-74833332D01*
X74334532Y-74833335D01*
X71075500Y-74833335D01*
X71075500Y-73612742D01*
X71077224Y-73597122D01*
X71076939Y-73597096D01*
X71077671Y-73589340D01*
X71077673Y-73589333D01*
X71075561Y-73522126D01*
X71075500Y-73518231D01*
X71075500Y-73490654D01*
X71075500Y-73490650D01*
X71074996Y-73486665D01*
X71074080Y-73475021D01*
X71072709Y-73431373D01*
X71067122Y-73412144D01*
X71063174Y-73393084D01*
X71060663Y-73373204D01*
X71044588Y-73332604D01*
X71040804Y-73321552D01*
X71028618Y-73279609D01*
X71028616Y-73279606D01*
X71018423Y-73262371D01*
X71009861Y-73244894D01*
X71002487Y-73226269D01*
X70976816Y-73190937D01*
X70970405Y-73181177D01*
X70948170Y-73143580D01*
X70948168Y-73143578D01*
X70948165Y-73143574D01*
X70934006Y-73129415D01*
X70921368Y-73114619D01*
X70909594Y-73098413D01*
X70875940Y-73070572D01*
X70867299Y-73062709D01*
X69997073Y-72192483D01*
X69963588Y-72131160D01*
X69967566Y-72072322D01*
X69965337Y-72071725D01*
X69966736Y-72066500D01*
X69966739Y-72066496D01*
X70025635Y-71846692D01*
X70045468Y-71620000D01*
X70025635Y-71393308D01*
X69966739Y-71173504D01*
X69870568Y-70967266D01*
X69740047Y-70780861D01*
X69740045Y-70780858D01*
X69579141Y-70619954D01*
X69392734Y-70489432D01*
X69392728Y-70489429D01*
X69334725Y-70462382D01*
X69282285Y-70416210D01*
X69263133Y-70349017D01*
X69283348Y-70282135D01*
X69334725Y-70237618D01*
X69392734Y-70210568D01*
X69579139Y-70080047D01*
X69740047Y-69919139D01*
X69870568Y-69732734D01*
X69966739Y-69526496D01*
X70025635Y-69306692D01*
X70042634Y-69112384D01*
X70045468Y-69080001D01*
X70045468Y-69079998D01*
X70037638Y-68990500D01*
X70025635Y-68853308D01*
X70000056Y-68757844D01*
X78305000Y-68757844D01*
X78311401Y-68817372D01*
X78311403Y-68817379D01*
X78361645Y-68952086D01*
X78361649Y-68952093D01*
X78447809Y-69067187D01*
X78447812Y-69067190D01*
X78562906Y-69153350D01*
X78562913Y-69153354D01*
X78697620Y-69203596D01*
X78697627Y-69203598D01*
X78757155Y-69209999D01*
X78757172Y-69210000D01*
X79080000Y-69210000D01*
X79080000Y-68240617D01*
X79149052Y-68294363D01*
X79267424Y-68335000D01*
X79361073Y-68335000D01*
X79453446Y-68319586D01*
X79563514Y-68260019D01*
X79575630Y-68246856D01*
X79579403Y-68285160D01*
X79580000Y-68297314D01*
X79580000Y-69210000D01*
X79902828Y-69210000D01*
X79902844Y-69209999D01*
X79962372Y-69203598D01*
X79962376Y-69203597D01*
X80097093Y-69153350D01*
X80104876Y-69149101D01*
X80106071Y-69151289D01*
X80159109Y-69131492D01*
X80203982Y-69136513D01*
X80205653Y-69137020D01*
X80205659Y-69137023D01*
X80398967Y-69195662D01*
X80600000Y-69215462D01*
X80801033Y-69195662D01*
X80994341Y-69137023D01*
X81172494Y-69041798D01*
X81172498Y-69041794D01*
X81176546Y-69039631D01*
X81244949Y-69025389D01*
X81293454Y-69039631D01*
X81297502Y-69041794D01*
X81297506Y-69041798D01*
X81475659Y-69137023D01*
X81668967Y-69195662D01*
X81870000Y-69215462D01*
X82071033Y-69195662D01*
X82264341Y-69137023D01*
X82442494Y-69041798D01*
X82598647Y-68913647D01*
X82726798Y-68757494D01*
X82816690Y-68589319D01*
X82822021Y-68579345D01*
X82822021Y-68579344D01*
X82822023Y-68579341D01*
X82880662Y-68386033D01*
X82895500Y-68235380D01*
X82895500Y-67684620D01*
X82880662Y-67533967D01*
X82822023Y-67340659D01*
X82822021Y-67340656D01*
X82822021Y-67340654D01*
X82726801Y-67162511D01*
X82726799Y-67162509D01*
X82726798Y-67162506D01*
X82616904Y-67028599D01*
X82598647Y-67006352D01*
X82442495Y-66878203D01*
X82442488Y-66878198D01*
X82264345Y-66782978D01*
X82071031Y-66724337D01*
X81870000Y-66704538D01*
X81668968Y-66724337D01*
X81475654Y-66782978D01*
X81293453Y-66880367D01*
X81225050Y-66894609D01*
X81176547Y-66880367D01*
X80994345Y-66782978D01*
X80801031Y-66724337D01*
X80600000Y-66704538D01*
X80398968Y-66724337D01*
X80261371Y-66766076D01*
X80205659Y-66782977D01*
X80205657Y-66782977D01*
X80203982Y-66783486D01*
X80134115Y-66784109D01*
X80105414Y-66769902D01*
X80104872Y-66770897D01*
X80097086Y-66766645D01*
X79962379Y-66716403D01*
X79962372Y-66716401D01*
X79902844Y-66710000D01*
X79580000Y-66710000D01*
X79580000Y-67622684D01*
X79579403Y-67634837D01*
X79575370Y-67675779D01*
X79510948Y-67625637D01*
X79392576Y-67585000D01*
X79298927Y-67585000D01*
X79206554Y-67600414D01*
X79096486Y-67659981D01*
X79080000Y-67677889D01*
X79080000Y-66710000D01*
X78757155Y-66710000D01*
X78697627Y-66716401D01*
X78697620Y-66716403D01*
X78562913Y-66766645D01*
X78562906Y-66766649D01*
X78447812Y-66852809D01*
X78447809Y-66852812D01*
X78361649Y-66967906D01*
X78361645Y-66967913D01*
X78311403Y-67102620D01*
X78311401Y-67102627D01*
X78305000Y-67162155D01*
X78305000Y-67710000D01*
X79050440Y-67710000D01*
X79011722Y-67752059D01*
X78961449Y-67866670D01*
X78951114Y-67991395D01*
X78981837Y-68112719D01*
X79045394Y-68210000D01*
X78305000Y-68210000D01*
X78305000Y-68757844D01*
X70000056Y-68757844D01*
X69966739Y-68633504D01*
X69870568Y-68427266D01*
X69771065Y-68285160D01*
X69740045Y-68240858D01*
X69579141Y-68079954D01*
X69392734Y-67949432D01*
X69392728Y-67949429D01*
X69356631Y-67932597D01*
X69334724Y-67922381D01*
X69282285Y-67876210D01*
X69263133Y-67809017D01*
X69283348Y-67742135D01*
X69334725Y-67697618D01*
X69392734Y-67670568D01*
X69579139Y-67540047D01*
X69740047Y-67379139D01*
X69870568Y-67192734D01*
X69966739Y-66986496D01*
X70025635Y-66766692D01*
X70045468Y-66540000D01*
X70025635Y-66313308D01*
X69966739Y-66093504D01*
X69870568Y-65887266D01*
X69740047Y-65700861D01*
X69740045Y-65700858D01*
X69700737Y-65661550D01*
X69667252Y-65600227D01*
X69672236Y-65530535D01*
X69714108Y-65474602D01*
X69745083Y-65457688D01*
X69782331Y-65443796D01*
X69897546Y-65357546D01*
X69983796Y-65242331D01*
X70034091Y-65107483D01*
X70040500Y-65047873D01*
X70040499Y-62952128D01*
X70034091Y-62892517D01*
X70025481Y-62869432D01*
X69987401Y-62767333D01*
X69982417Y-62697641D01*
X70015902Y-62636318D01*
X70077226Y-62602834D01*
X70103583Y-62600000D01*
X90565737Y-62600000D01*
X90632776Y-62619685D01*
X90678531Y-62672489D01*
X90688475Y-62741647D01*
X90659450Y-62805203D01*
X90618142Y-62836381D01*
X90596034Y-62846690D01*
X90547267Y-62869431D01*
X90547265Y-62869432D01*
X90360858Y-62999954D01*
X90199954Y-63160858D01*
X90069432Y-63347265D01*
X90069431Y-63347267D01*
X89973261Y-63553502D01*
X89973258Y-63553511D01*
X89914366Y-63773302D01*
X89914364Y-63773313D01*
X89894532Y-63999998D01*
X89894532Y-64000001D01*
X89914364Y-64226686D01*
X89914366Y-64226697D01*
X89973258Y-64446488D01*
X89973261Y-64446497D01*
X90069431Y-64652732D01*
X90069432Y-64652734D01*
X90199954Y-64839141D01*
X90360858Y-65000045D01*
X90360861Y-65000047D01*
X90547266Y-65130568D01*
X90605275Y-65157618D01*
X90657714Y-65203791D01*
X90676866Y-65270984D01*
X90656650Y-65337865D01*
X90605275Y-65382382D01*
X90547267Y-65409431D01*
X90547265Y-65409432D01*
X90360858Y-65539954D01*
X90199954Y-65700858D01*
X90069432Y-65887265D01*
X90069431Y-65887267D01*
X89973261Y-66093502D01*
X89973258Y-66093511D01*
X89914366Y-66313302D01*
X89914364Y-66313313D01*
X89894532Y-66539998D01*
X89894532Y-66540001D01*
X89914364Y-66766686D01*
X89914366Y-66766697D01*
X89973258Y-66986488D01*
X89973261Y-66986497D01*
X90069431Y-67192732D01*
X90069432Y-67192734D01*
X90199954Y-67379141D01*
X90360858Y-67540045D01*
X90360861Y-67540047D01*
X90547266Y-67670568D01*
X90605275Y-67697618D01*
X90657714Y-67743791D01*
X90676866Y-67810984D01*
X90656650Y-67877865D01*
X90605275Y-67922382D01*
X90547267Y-67949431D01*
X90547265Y-67949432D01*
X90360858Y-68079954D01*
X90199954Y-68240858D01*
X90069432Y-68427265D01*
X90069431Y-68427267D01*
X89973261Y-68633502D01*
X89973258Y-68633511D01*
X89914366Y-68853302D01*
X89914364Y-68853313D01*
X89894532Y-69079998D01*
X89894532Y-69080001D01*
X89914364Y-69306686D01*
X89914366Y-69306697D01*
X89973258Y-69526488D01*
X89973261Y-69526497D01*
X90069431Y-69732732D01*
X90069432Y-69732734D01*
X90199954Y-69919141D01*
X90360858Y-70080045D01*
X90360861Y-70080047D01*
X90547266Y-70210568D01*
X90605275Y-70237618D01*
X90657714Y-70283791D01*
X90676866Y-70350984D01*
X90656650Y-70417865D01*
X90605275Y-70462382D01*
X90547267Y-70489431D01*
X90547265Y-70489432D01*
X90360858Y-70619954D01*
X90199954Y-70780858D01*
X90069432Y-70967265D01*
X90069431Y-70967267D01*
X89973261Y-71173502D01*
X89973258Y-71173511D01*
X89914366Y-71393302D01*
X89914364Y-71393313D01*
X89894532Y-71619998D01*
X89894532Y-71620001D01*
X89914364Y-71846686D01*
X89914366Y-71846697D01*
X89973258Y-72066488D01*
X89973261Y-72066497D01*
X90069431Y-72272732D01*
X90069432Y-72272734D01*
X90199954Y-72459141D01*
X90360858Y-72620045D01*
X90360861Y-72620047D01*
X90547266Y-72750568D01*
X90605275Y-72777618D01*
X90657714Y-72823791D01*
X90676866Y-72890984D01*
X90656650Y-72957865D01*
X90605275Y-73002382D01*
X90547267Y-73029431D01*
X90547265Y-73029432D01*
X90360858Y-73159954D01*
X90199954Y-73320858D01*
X90069432Y-73507265D01*
X90069431Y-73507267D01*
X89973261Y-73713502D01*
X89973258Y-73713511D01*
X89914366Y-73933302D01*
X89914364Y-73933313D01*
X89894532Y-74159998D01*
X89894532Y-74160001D01*
X89914364Y-74386686D01*
X89914366Y-74386697D01*
X89973258Y-74606488D01*
X89973261Y-74606497D01*
X90069431Y-74812732D01*
X90069432Y-74812734D01*
X90199954Y-74999141D01*
X90360858Y-75160045D01*
X90360861Y-75160047D01*
X90547266Y-75290568D01*
X90605275Y-75317618D01*
X90657714Y-75363791D01*
X90676866Y-75430984D01*
X90656650Y-75497865D01*
X90605275Y-75542382D01*
X90547267Y-75569431D01*
X90547265Y-75569432D01*
X90360858Y-75699954D01*
X90199954Y-75860858D01*
X90069432Y-76047265D01*
X90069431Y-76047267D01*
X89973261Y-76253502D01*
X89973258Y-76253511D01*
X89914366Y-76473302D01*
X89914364Y-76473313D01*
X89894532Y-76699998D01*
X89894532Y-76700001D01*
X89914364Y-76926686D01*
X89914366Y-76926697D01*
X89973258Y-77146488D01*
X89973261Y-77146497D01*
X90069431Y-77352732D01*
X90069432Y-77352734D01*
X90199954Y-77539141D01*
X90360858Y-77700045D01*
X90360861Y-77700047D01*
X90547266Y-77830568D01*
X90605865Y-77857893D01*
X90658305Y-77904065D01*
X90677457Y-77971258D01*
X90657242Y-78038139D01*
X90605867Y-78082657D01*
X90547515Y-78109867D01*
X90361179Y-78240342D01*
X90200342Y-78401179D01*
X90069865Y-78587517D01*
X89973734Y-78793673D01*
X89973730Y-78793682D01*
X89921127Y-78989999D01*
X89921128Y-78990000D01*
X90966314Y-78990000D01*
X90940507Y-79030156D01*
X90900000Y-79168111D01*
X90900000Y-79311889D01*
X90940507Y-79449844D01*
X90966314Y-79490000D01*
X89921128Y-79490000D01*
X89973730Y-79686317D01*
X89973734Y-79686326D01*
X90069865Y-79892482D01*
X90200342Y-80078820D01*
X90361179Y-80239657D01*
X90547518Y-80370134D01*
X90547520Y-80370135D01*
X90605865Y-80397342D01*
X90658305Y-80443514D01*
X90677457Y-80510707D01*
X90657242Y-80577589D01*
X90605867Y-80622105D01*
X90565501Y-80640929D01*
X90547264Y-80649433D01*
X90360858Y-80779954D01*
X90199954Y-80940858D01*
X90069432Y-81127265D01*
X90069431Y-81127267D01*
X89973261Y-81333502D01*
X89973258Y-81333511D01*
X89914366Y-81553302D01*
X89914364Y-81553313D01*
X89894532Y-81779998D01*
X89894532Y-81780001D01*
X89914364Y-82006686D01*
X89914366Y-82006697D01*
X89973258Y-82226488D01*
X89973261Y-82226497D01*
X90069431Y-82432732D01*
X90069432Y-82432734D01*
X90199954Y-82619141D01*
X90360858Y-82780045D01*
X90360861Y-82780047D01*
X90547266Y-82910568D01*
X90753504Y-83006739D01*
X90973308Y-83065635D01*
X91143214Y-83080499D01*
X91143215Y-83080500D01*
X91143216Y-83080500D01*
X91656785Y-83080500D01*
X91656785Y-83080499D01*
X91826692Y-83065635D01*
X92046496Y-83006739D01*
X92252734Y-82910568D01*
X92439139Y-82780047D01*
X92600047Y-82619139D01*
X92730568Y-82432734D01*
X92826739Y-82226496D01*
X92885635Y-82006692D01*
X92905468Y-81780000D01*
X92885635Y-81553308D01*
X92826739Y-81333504D01*
X92730568Y-81127266D01*
X92600047Y-80940861D01*
X92600045Y-80940858D01*
X92439141Y-80779954D01*
X92252734Y-80649432D01*
X92252732Y-80649431D01*
X92234499Y-80640929D01*
X92194132Y-80622105D01*
X92141694Y-80575934D01*
X92122542Y-80508740D01*
X92142758Y-80441859D01*
X92194134Y-80397341D01*
X92252484Y-80370132D01*
X92438820Y-80239657D01*
X92599657Y-80078820D01*
X92730134Y-79892482D01*
X92826265Y-79686326D01*
X92826269Y-79686317D01*
X92878872Y-79490000D01*
X91833686Y-79490000D01*
X91859493Y-79449844D01*
X91900000Y-79311889D01*
X91900000Y-79168111D01*
X91859493Y-79030156D01*
X91833686Y-78990000D01*
X92878872Y-78990000D01*
X92878872Y-78989999D01*
X92826269Y-78793682D01*
X92826265Y-78793673D01*
X92730134Y-78587517D01*
X92599657Y-78401179D01*
X92438820Y-78240342D01*
X92252482Y-78109865D01*
X92194133Y-78082657D01*
X92141694Y-78036484D01*
X92122542Y-77969291D01*
X92142758Y-77902410D01*
X92194129Y-77857895D01*
X92252734Y-77830568D01*
X92439139Y-77700047D01*
X92600047Y-77539139D01*
X92730568Y-77352734D01*
X92826739Y-77146496D01*
X92885635Y-76926692D01*
X92905468Y-76700000D01*
X92885635Y-76473308D01*
X92826739Y-76253504D01*
X92730568Y-76047266D01*
X92600047Y-75860861D01*
X92600045Y-75860858D01*
X92539193Y-75800006D01*
X100729700Y-75800006D01*
X100748864Y-76031297D01*
X100748866Y-76031308D01*
X100805842Y-76256300D01*
X100899075Y-76468848D01*
X101026016Y-76663147D01*
X101026019Y-76663151D01*
X101026021Y-76663153D01*
X101183216Y-76833913D01*
X101183219Y-76833915D01*
X101183222Y-76833918D01*
X101366365Y-76976464D01*
X101366371Y-76976468D01*
X101366374Y-76976470D01*
X101570497Y-77086936D01*
X101684487Y-77126068D01*
X101790015Y-77162297D01*
X101790017Y-77162297D01*
X101790019Y-77162298D01*
X102018951Y-77200500D01*
X102018952Y-77200500D01*
X102251048Y-77200500D01*
X102251049Y-77200500D01*
X102479981Y-77162298D01*
X102699503Y-77086936D01*
X102903626Y-76976470D01*
X103086784Y-76833913D01*
X103095130Y-76824846D01*
X103155010Y-76788854D01*
X103224849Y-76790949D01*
X103282468Y-76830469D01*
X103302544Y-76865491D01*
X103331203Y-76942330D01*
X103331206Y-76942335D01*
X103417452Y-77057544D01*
X103417455Y-77057547D01*
X103532664Y-77143793D01*
X103532671Y-77143797D01*
X103667517Y-77194091D01*
X103667516Y-77194091D01*
X103674444Y-77194835D01*
X103727127Y-77200500D01*
X105622872Y-77200499D01*
X105682483Y-77194091D01*
X105817331Y-77143796D01*
X105932546Y-77057546D01*
X106018796Y-76942331D01*
X106069091Y-76807483D01*
X106075500Y-76747873D01*
X106075499Y-75800000D01*
X108194551Y-75800000D01*
X108214317Y-76051151D01*
X108273126Y-76296110D01*
X108369533Y-76528859D01*
X108501160Y-76743653D01*
X108501161Y-76743656D01*
X108539764Y-76788854D01*
X108664776Y-76935224D01*
X108807994Y-77057544D01*
X108856343Y-77098838D01*
X108856346Y-77098839D01*
X109071140Y-77230466D01*
X109095022Y-77240358D01*
X109303889Y-77326873D01*
X109548852Y-77385683D01*
X109800000Y-77405449D01*
X110051148Y-77385683D01*
X110296111Y-77326873D01*
X110528859Y-77230466D01*
X110743659Y-77098836D01*
X110935224Y-76935224D01*
X111098836Y-76743659D01*
X111230466Y-76528859D01*
X111326873Y-76296111D01*
X111385683Y-76051148D01*
X111405449Y-75800000D01*
X111385683Y-75548852D01*
X111326873Y-75303889D01*
X111316908Y-75279831D01*
X111230466Y-75071140D01*
X111098839Y-74856346D01*
X111098838Y-74856343D01*
X111042552Y-74790441D01*
X110935224Y-74664776D01*
X110792001Y-74542452D01*
X110743656Y-74501161D01*
X110743653Y-74501160D01*
X110528859Y-74369533D01*
X110296110Y-74273126D01*
X110051151Y-74214317D01*
X109800000Y-74194551D01*
X109548848Y-74214317D01*
X109303889Y-74273126D01*
X109071140Y-74369533D01*
X108856346Y-74501160D01*
X108856343Y-74501161D01*
X108664776Y-74664776D01*
X108501161Y-74856343D01*
X108501160Y-74856346D01*
X108369533Y-75071140D01*
X108273126Y-75303889D01*
X108214317Y-75548848D01*
X108194551Y-75800000D01*
X106075499Y-75800000D01*
X106075499Y-74852128D01*
X106069091Y-74792517D01*
X106059233Y-74766087D01*
X106018797Y-74657671D01*
X106018793Y-74657664D01*
X105932547Y-74542455D01*
X105932544Y-74542452D01*
X105817335Y-74456206D01*
X105817328Y-74456202D01*
X105682482Y-74405908D01*
X105682483Y-74405908D01*
X105622883Y-74399501D01*
X105622881Y-74399500D01*
X105622873Y-74399500D01*
X105622864Y-74399500D01*
X103727129Y-74399500D01*
X103727123Y-74399501D01*
X103667516Y-74405908D01*
X103532671Y-74456202D01*
X103532664Y-74456206D01*
X103417455Y-74542452D01*
X103417452Y-74542455D01*
X103331206Y-74657664D01*
X103331203Y-74657670D01*
X103302544Y-74734508D01*
X103260672Y-74790441D01*
X103195208Y-74814858D01*
X103126935Y-74800006D01*
X103095135Y-74775158D01*
X103086784Y-74766087D01*
X103086778Y-74766082D01*
X103086777Y-74766081D01*
X102903634Y-74623535D01*
X102903628Y-74623531D01*
X102699504Y-74513064D01*
X102699495Y-74513061D01*
X102479984Y-74437702D01*
X102289450Y-74405908D01*
X102251049Y-74399500D01*
X102018951Y-74399500D01*
X101980550Y-74405908D01*
X101790015Y-74437702D01*
X101570504Y-74513061D01*
X101570495Y-74513064D01*
X101366371Y-74623531D01*
X101366365Y-74623535D01*
X101183222Y-74766081D01*
X101183219Y-74766084D01*
X101183216Y-74766086D01*
X101183216Y-74766087D01*
X101149764Y-74802426D01*
X101026016Y-74936852D01*
X100899075Y-75131151D01*
X100805842Y-75343699D01*
X100748866Y-75568691D01*
X100748864Y-75568702D01*
X100729700Y-75799993D01*
X100729700Y-75800006D01*
X92539193Y-75800006D01*
X92439141Y-75699954D01*
X92252734Y-75569432D01*
X92252728Y-75569429D01*
X92194725Y-75542382D01*
X92142285Y-75496210D01*
X92123133Y-75429017D01*
X92143348Y-75362135D01*
X92194725Y-75317618D01*
X92252734Y-75290568D01*
X92439139Y-75160047D01*
X92600047Y-74999139D01*
X92730568Y-74812734D01*
X92826739Y-74606496D01*
X92885635Y-74386692D01*
X92905468Y-74160000D01*
X92885635Y-73933308D01*
X92826739Y-73713504D01*
X92730568Y-73507266D01*
X92632839Y-73367693D01*
X92600045Y-73320858D01*
X92439141Y-73159954D01*
X92252734Y-73029432D01*
X92252728Y-73029429D01*
X92194725Y-73002382D01*
X92142285Y-72956210D01*
X92123133Y-72889017D01*
X92143348Y-72822135D01*
X92194725Y-72777618D01*
X92252734Y-72750568D01*
X92439139Y-72620047D01*
X92600047Y-72459139D01*
X92730568Y-72272734D01*
X92826739Y-72066496D01*
X92885635Y-71846692D01*
X92905468Y-71620000D01*
X92885635Y-71393308D01*
X92826739Y-71173504D01*
X92730568Y-70967266D01*
X92600047Y-70780861D01*
X92600045Y-70780858D01*
X92439141Y-70619954D01*
X92252734Y-70489432D01*
X92252728Y-70489429D01*
X92194725Y-70462382D01*
X92142285Y-70416210D01*
X92137665Y-70400001D01*
X101394390Y-70400001D01*
X101414804Y-70685433D01*
X101475628Y-70965037D01*
X101475630Y-70965043D01*
X101475631Y-70965046D01*
X101553381Y-71173502D01*
X101575635Y-71233166D01*
X101712770Y-71484309D01*
X101712775Y-71484317D01*
X101884254Y-71713387D01*
X101884270Y-71713405D01*
X102086594Y-71915729D01*
X102086612Y-71915745D01*
X102315682Y-72087224D01*
X102315690Y-72087229D01*
X102566833Y-72224364D01*
X102566832Y-72224364D01*
X102566836Y-72224365D01*
X102566839Y-72224367D01*
X102834954Y-72324369D01*
X102834960Y-72324370D01*
X102834962Y-72324371D01*
X103114566Y-72385195D01*
X103114568Y-72385195D01*
X103114572Y-72385196D01*
X103368220Y-72403337D01*
X103399999Y-72405610D01*
X103400000Y-72405610D01*
X103400001Y-72405610D01*
X103428595Y-72403564D01*
X103685428Y-72385196D01*
X103965046Y-72324369D01*
X104233161Y-72224367D01*
X104484315Y-72087226D01*
X104713395Y-71915739D01*
X104915739Y-71713395D01*
X105087226Y-71484315D01*
X105224367Y-71233161D01*
X105324369Y-70965046D01*
X105385196Y-70685428D01*
X105405610Y-70400000D01*
X105385196Y-70114572D01*
X105342682Y-69919139D01*
X105324371Y-69834962D01*
X105324370Y-69834960D01*
X105324369Y-69834954D01*
X105224367Y-69566839D01*
X105206214Y-69533595D01*
X105087229Y-69315690D01*
X105087224Y-69315682D01*
X104915745Y-69086612D01*
X104915729Y-69086594D01*
X104713405Y-68884270D01*
X104713387Y-68884254D01*
X104484317Y-68712775D01*
X104484309Y-68712770D01*
X104233166Y-68575635D01*
X104233167Y-68575635D01*
X104125915Y-68535632D01*
X103965046Y-68475631D01*
X103965043Y-68475630D01*
X103965037Y-68475628D01*
X103847245Y-68450004D01*
X107694592Y-68450004D01*
X107714196Y-68711620D01*
X107714197Y-68711625D01*
X107772576Y-68967402D01*
X107772578Y-68967411D01*
X107772580Y-68967416D01*
X107868432Y-69211643D01*
X107999614Y-69438857D01*
X108101676Y-69566839D01*
X108163198Y-69643985D01*
X108258848Y-69732734D01*
X108355521Y-69822433D01*
X108572296Y-69970228D01*
X108572301Y-69970230D01*
X108572302Y-69970231D01*
X108572303Y-69970232D01*
X108697843Y-70030688D01*
X108808673Y-70084061D01*
X108808674Y-70084061D01*
X108808677Y-70084063D01*
X109059385Y-70161396D01*
X109318818Y-70200500D01*
X109581182Y-70200500D01*
X109840615Y-70161396D01*
X110091323Y-70084063D01*
X110327704Y-69970228D01*
X110544479Y-69822433D01*
X110729779Y-69650500D01*
X110736801Y-69643985D01*
X110736801Y-69643983D01*
X110736805Y-69643981D01*
X110900386Y-69438857D01*
X111031568Y-69211643D01*
X111127420Y-68967416D01*
X111185802Y-68711630D01*
X111194968Y-68589319D01*
X111205408Y-68450004D01*
X111205408Y-68449995D01*
X111185803Y-68188379D01*
X111185802Y-68188374D01*
X111185802Y-68188370D01*
X111127420Y-67932584D01*
X111114633Y-67900004D01*
X118545093Y-67900004D01*
X118564692Y-68161545D01*
X118564693Y-68161550D01*
X118623058Y-68417270D01*
X118718883Y-68661426D01*
X118718882Y-68661426D01*
X118850027Y-68888573D01*
X118897874Y-68948571D01*
X119816922Y-68029523D01*
X119840507Y-68109844D01*
X119918239Y-68230798D01*
X120026900Y-68324952D01*
X120157685Y-68384680D01*
X120167466Y-68386086D01*
X119250830Y-69302720D01*
X119422546Y-69419793D01*
X119422550Y-69419795D01*
X119658854Y-69533594D01*
X119658858Y-69533595D01*
X119909494Y-69610907D01*
X119909500Y-69610909D01*
X120168848Y-69649999D01*
X120168857Y-69650000D01*
X120431143Y-69650000D01*
X120431151Y-69649999D01*
X120690499Y-69610909D01*
X120690505Y-69610907D01*
X120941143Y-69533595D01*
X121177445Y-69419798D01*
X121177447Y-69419797D01*
X121349168Y-69302720D01*
X120432533Y-68386086D01*
X120442315Y-68384680D01*
X120573100Y-68324952D01*
X120681761Y-68230798D01*
X120759493Y-68109844D01*
X120783076Y-68029523D01*
X121702125Y-68948572D01*
X121749971Y-68888573D01*
X121881116Y-68661426D01*
X121976941Y-68417270D01*
X122035306Y-68161550D01*
X122035307Y-68161545D01*
X122054907Y-67900004D01*
X122054907Y-67900000D01*
X124024341Y-67900000D01*
X124044936Y-68135403D01*
X124044938Y-68135413D01*
X124106094Y-68363655D01*
X124106096Y-68363659D01*
X124106097Y-68363663D01*
X124158309Y-68475631D01*
X124205965Y-68577830D01*
X124205967Y-68577834D01*
X124314281Y-68732521D01*
X124341505Y-68771401D01*
X124508599Y-68938495D01*
X124549910Y-68967421D01*
X124702165Y-69074032D01*
X124702167Y-69074033D01*
X124702170Y-69074035D01*
X124916337Y-69173903D01*
X125144592Y-69235063D01*
X125332918Y-69251539D01*
X125379999Y-69255659D01*
X125380000Y-69255659D01*
X125380001Y-69255659D01*
X125419234Y-69252226D01*
X125615408Y-69235063D01*
X125843663Y-69173903D01*
X126057830Y-69074035D01*
X126251401Y-68938495D01*
X126418495Y-68771401D01*
X126554035Y-68577830D01*
X126653903Y-68363663D01*
X126715063Y-68135408D01*
X126735659Y-67900004D01*
X128704592Y-67900004D01*
X128724196Y-68161620D01*
X128724197Y-68161625D01*
X128724197Y-68161629D01*
X128724198Y-68161630D01*
X128730301Y-68188370D01*
X128782576Y-68417402D01*
X128782578Y-68417411D01*
X128782580Y-68417416D01*
X128878432Y-68661643D01*
X129009614Y-68888857D01*
X129072252Y-68967402D01*
X129173198Y-69093985D01*
X129347443Y-69255659D01*
X129365521Y-69272433D01*
X129582296Y-69420228D01*
X129582301Y-69420230D01*
X129582302Y-69420231D01*
X129582303Y-69420232D01*
X129707843Y-69480688D01*
X129818673Y-69534061D01*
X129818674Y-69534061D01*
X129818677Y-69534063D01*
X130069385Y-69611396D01*
X130328818Y-69650500D01*
X130591182Y-69650500D01*
X130850615Y-69611396D01*
X131101323Y-69534063D01*
X131288111Y-69444110D01*
X131337696Y-69420232D01*
X131337696Y-69420231D01*
X131337704Y-69420228D01*
X131554479Y-69272433D01*
X131746805Y-69093981D01*
X131910386Y-68888857D01*
X132041568Y-68661643D01*
X132137420Y-68417416D01*
X132195802Y-68161630D01*
X132195808Y-68161550D01*
X132215408Y-67900004D01*
X132215408Y-67899995D01*
X132195803Y-67638379D01*
X132195802Y-67638374D01*
X132195802Y-67638370D01*
X132137420Y-67382584D01*
X132041568Y-67138357D01*
X131910386Y-66911143D01*
X131746805Y-66706019D01*
X131746804Y-66706018D01*
X131746801Y-66706014D01*
X131554479Y-66527567D01*
X131423368Y-66438177D01*
X131337704Y-66379772D01*
X131337700Y-66379770D01*
X131337697Y-66379768D01*
X131337696Y-66379767D01*
X131101325Y-66265938D01*
X131101327Y-66265938D01*
X130850623Y-66188606D01*
X130850619Y-66188605D01*
X130850615Y-66188604D01*
X130725823Y-66169794D01*
X130591187Y-66149500D01*
X130591182Y-66149500D01*
X130328818Y-66149500D01*
X130328812Y-66149500D01*
X130167247Y-66173853D01*
X130069385Y-66188604D01*
X130069382Y-66188605D01*
X130069376Y-66188606D01*
X129818673Y-66265938D01*
X129582303Y-66379767D01*
X129582302Y-66379768D01*
X129582296Y-66379771D01*
X129582296Y-66379772D01*
X129581654Y-66380210D01*
X129365520Y-66527567D01*
X129173198Y-66706014D01*
X129009614Y-66911143D01*
X128878432Y-67138356D01*
X128782582Y-67382578D01*
X128782576Y-67382597D01*
X128724197Y-67638374D01*
X128724196Y-67638379D01*
X128704592Y-67899995D01*
X128704592Y-67900004D01*
X126735659Y-67900004D01*
X126735659Y-67900000D01*
X126715063Y-67664592D01*
X126653903Y-67436337D01*
X126554035Y-67222171D01*
X126512258Y-67162506D01*
X126418494Y-67028597D01*
X126251402Y-66861506D01*
X126251395Y-66861501D01*
X126057834Y-66725967D01*
X126057830Y-66725965D01*
X126011880Y-66704538D01*
X125843663Y-66626097D01*
X125843659Y-66626096D01*
X125843655Y-66626094D01*
X125615413Y-66564938D01*
X125615403Y-66564936D01*
X125380001Y-66544341D01*
X125379999Y-66544341D01*
X125144596Y-66564936D01*
X125144586Y-66564938D01*
X124916344Y-66626094D01*
X124916335Y-66626098D01*
X124702171Y-66725964D01*
X124702169Y-66725965D01*
X124508597Y-66861505D01*
X124341505Y-67028597D01*
X124205965Y-67222169D01*
X124205964Y-67222171D01*
X124106098Y-67436335D01*
X124106094Y-67436344D01*
X124044938Y-67664586D01*
X124044936Y-67664596D01*
X124024341Y-67899999D01*
X124024341Y-67900000D01*
X122054907Y-67900000D01*
X122054907Y-67899995D01*
X122035307Y-67638454D01*
X122035306Y-67638449D01*
X121976941Y-67382729D01*
X121881116Y-67138573D01*
X121881117Y-67138573D01*
X121749972Y-66911426D01*
X121702124Y-66851427D01*
X120783076Y-67770475D01*
X120759493Y-67690156D01*
X120681761Y-67569202D01*
X120573100Y-67475048D01*
X120442315Y-67415320D01*
X120432534Y-67413913D01*
X121349168Y-66497278D01*
X121177454Y-66380206D01*
X121177445Y-66380201D01*
X120941142Y-66266404D01*
X120941144Y-66266404D01*
X120690505Y-66189092D01*
X120690499Y-66189090D01*
X120431151Y-66150000D01*
X120168848Y-66150000D01*
X119909500Y-66189090D01*
X119909494Y-66189092D01*
X119658858Y-66266404D01*
X119658854Y-66266405D01*
X119422547Y-66380205D01*
X119422539Y-66380210D01*
X119250830Y-66497277D01*
X120167466Y-67413913D01*
X120157685Y-67415320D01*
X120026900Y-67475048D01*
X119918239Y-67569202D01*
X119840507Y-67690156D01*
X119816923Y-67770475D01*
X118897874Y-66851427D01*
X118850028Y-66911425D01*
X118718883Y-67138573D01*
X118623058Y-67382729D01*
X118564693Y-67638449D01*
X118564692Y-67638454D01*
X118545093Y-67899995D01*
X118545093Y-67900004D01*
X111114633Y-67900004D01*
X111031568Y-67688357D01*
X110900386Y-67461143D01*
X110736805Y-67256019D01*
X110736804Y-67256018D01*
X110736801Y-67256014D01*
X110544479Y-67077567D01*
X110440027Y-67006353D01*
X110327704Y-66929772D01*
X110327700Y-66929770D01*
X110327697Y-66929768D01*
X110327696Y-66929767D01*
X110091325Y-66815938D01*
X110091327Y-66815938D01*
X109840623Y-66738606D01*
X109840619Y-66738605D01*
X109840615Y-66738604D01*
X109715823Y-66719794D01*
X109581187Y-66699500D01*
X109581182Y-66699500D01*
X109318818Y-66699500D01*
X109318812Y-66699500D01*
X109157247Y-66723853D01*
X109059385Y-66738604D01*
X109059382Y-66738605D01*
X109059376Y-66738606D01*
X108808673Y-66815938D01*
X108572303Y-66929767D01*
X108572302Y-66929768D01*
X108355520Y-67077567D01*
X108163198Y-67256014D01*
X107999614Y-67461143D01*
X107868432Y-67688356D01*
X107772582Y-67932578D01*
X107772576Y-67932597D01*
X107714197Y-68188374D01*
X107714196Y-68188379D01*
X107694592Y-68449995D01*
X107694592Y-68450004D01*
X103847245Y-68450004D01*
X103685433Y-68414804D01*
X103400001Y-68394390D01*
X103399999Y-68394390D01*
X103114566Y-68414804D01*
X102834962Y-68475628D01*
X102566833Y-68575635D01*
X102315690Y-68712770D01*
X102315682Y-68712775D01*
X102086612Y-68884254D01*
X102086594Y-68884270D01*
X101884270Y-69086594D01*
X101884254Y-69086612D01*
X101712775Y-69315682D01*
X101712770Y-69315690D01*
X101575635Y-69566833D01*
X101475628Y-69834962D01*
X101414804Y-70114566D01*
X101394390Y-70399998D01*
X101394390Y-70400001D01*
X92137665Y-70400001D01*
X92123133Y-70349017D01*
X92143348Y-70282135D01*
X92194725Y-70237618D01*
X92252734Y-70210568D01*
X92439139Y-70080047D01*
X92600047Y-69919139D01*
X92730568Y-69732734D01*
X92826739Y-69526496D01*
X92885635Y-69306692D01*
X92902634Y-69112384D01*
X92905468Y-69080001D01*
X92905468Y-69079998D01*
X92897638Y-68990500D01*
X92885635Y-68853308D01*
X92826739Y-68633504D01*
X92741171Y-68450004D01*
X95694592Y-68450004D01*
X95714196Y-68711620D01*
X95714197Y-68711625D01*
X95772576Y-68967402D01*
X95772578Y-68967411D01*
X95772580Y-68967416D01*
X95868432Y-69211643D01*
X95999614Y-69438857D01*
X96101676Y-69566839D01*
X96163198Y-69643985D01*
X96258848Y-69732734D01*
X96355521Y-69822433D01*
X96572296Y-69970228D01*
X96572301Y-69970230D01*
X96572302Y-69970231D01*
X96572303Y-69970232D01*
X96697843Y-70030688D01*
X96808673Y-70084061D01*
X96808674Y-70084061D01*
X96808677Y-70084063D01*
X97059385Y-70161396D01*
X97318818Y-70200500D01*
X97581182Y-70200500D01*
X97840615Y-70161396D01*
X98091323Y-70084063D01*
X98327704Y-69970228D01*
X98544479Y-69822433D01*
X98729779Y-69650500D01*
X98736801Y-69643985D01*
X98736801Y-69643983D01*
X98736805Y-69643981D01*
X98900386Y-69438857D01*
X99031568Y-69211643D01*
X99127420Y-68967416D01*
X99185802Y-68711630D01*
X99194968Y-68589319D01*
X99205408Y-68450004D01*
X99205408Y-68449995D01*
X99185803Y-68188379D01*
X99185802Y-68188374D01*
X99185802Y-68188370D01*
X99127420Y-67932584D01*
X99031568Y-67688357D01*
X98900386Y-67461143D01*
X98736805Y-67256019D01*
X98736804Y-67256018D01*
X98736801Y-67256014D01*
X98544479Y-67077567D01*
X98440027Y-67006353D01*
X98327704Y-66929772D01*
X98327700Y-66929770D01*
X98327697Y-66929768D01*
X98327696Y-66929767D01*
X98091325Y-66815938D01*
X98091327Y-66815938D01*
X97840623Y-66738606D01*
X97840619Y-66738605D01*
X97840615Y-66738604D01*
X97715823Y-66719794D01*
X97581187Y-66699500D01*
X97581182Y-66699500D01*
X97318818Y-66699500D01*
X97318812Y-66699500D01*
X97157247Y-66723853D01*
X97059385Y-66738604D01*
X97059382Y-66738605D01*
X97059376Y-66738606D01*
X96808673Y-66815938D01*
X96572303Y-66929767D01*
X96572302Y-66929768D01*
X96355520Y-67077567D01*
X96163198Y-67256014D01*
X95999614Y-67461143D01*
X95868432Y-67688356D01*
X95772582Y-67932578D01*
X95772576Y-67932597D01*
X95714197Y-68188374D01*
X95714196Y-68188379D01*
X95694592Y-68449995D01*
X95694592Y-68450004D01*
X92741171Y-68450004D01*
X92730568Y-68427266D01*
X92631065Y-68285160D01*
X92600045Y-68240858D01*
X92439141Y-68079954D01*
X92252734Y-67949432D01*
X92252728Y-67949429D01*
X92216631Y-67932597D01*
X92194724Y-67922381D01*
X92142285Y-67876210D01*
X92123133Y-67809017D01*
X92143348Y-67742135D01*
X92194725Y-67697618D01*
X92252734Y-67670568D01*
X92439139Y-67540047D01*
X92600047Y-67379139D01*
X92730568Y-67192734D01*
X92826739Y-66986496D01*
X92885635Y-66766692D01*
X92905468Y-66540000D01*
X92885635Y-66313308D01*
X92826739Y-66093504D01*
X92730568Y-65887266D01*
X92600047Y-65700861D01*
X92600045Y-65700858D01*
X92439141Y-65539954D01*
X92252734Y-65409432D01*
X92252728Y-65409429D01*
X92194725Y-65382382D01*
X92142285Y-65336210D01*
X92123133Y-65269017D01*
X92143348Y-65202135D01*
X92194725Y-65157618D01*
X92252734Y-65130568D01*
X92439139Y-65000047D01*
X92600047Y-64839139D01*
X92730568Y-64652734D01*
X92826739Y-64446496D01*
X92885635Y-64226692D01*
X92905468Y-64000000D01*
X92885635Y-63773308D01*
X92826739Y-63553504D01*
X92730568Y-63347266D01*
X92600047Y-63160861D01*
X92600045Y-63160858D01*
X92439141Y-62999954D01*
X92252734Y-62869432D01*
X92252732Y-62869431D01*
X92237293Y-62862231D01*
X92181857Y-62836381D01*
X92129419Y-62790209D01*
X92110267Y-62723016D01*
X92130483Y-62656135D01*
X92183648Y-62610800D01*
X92234263Y-62600000D01*
X94400000Y-62600000D01*
X94400000Y-56200001D01*
X95394390Y-56200001D01*
X95414804Y-56485433D01*
X95475628Y-56765037D01*
X95575635Y-57033166D01*
X95712770Y-57284309D01*
X95712775Y-57284317D01*
X95884254Y-57513387D01*
X95884270Y-57513405D01*
X96086594Y-57715729D01*
X96086612Y-57715745D01*
X96315682Y-57887224D01*
X96315690Y-57887229D01*
X96566833Y-58024364D01*
X96566832Y-58024364D01*
X96566836Y-58024365D01*
X96566839Y-58024367D01*
X96834954Y-58124369D01*
X96834960Y-58124370D01*
X96834962Y-58124371D01*
X97114566Y-58185195D01*
X97114568Y-58185195D01*
X97114572Y-58185196D01*
X97368220Y-58203337D01*
X97399999Y-58205610D01*
X97400000Y-58205610D01*
X97400001Y-58205610D01*
X97428595Y-58203564D01*
X97685428Y-58185196D01*
X97686431Y-58184978D01*
X97965037Y-58124371D01*
X97965037Y-58124370D01*
X97965046Y-58124369D01*
X98233161Y-58024367D01*
X98484315Y-57887226D01*
X98713395Y-57715739D01*
X98915739Y-57513395D01*
X99087226Y-57284315D01*
X99224367Y-57033161D01*
X99324369Y-56765046D01*
X99385196Y-56485428D01*
X99405610Y-56200000D01*
X99385196Y-55914572D01*
X99359671Y-55797237D01*
X99324371Y-55634962D01*
X99324370Y-55634960D01*
X99324369Y-55634954D01*
X99224367Y-55366839D01*
X99217445Y-55354163D01*
X99087229Y-55115690D01*
X99087224Y-55115682D01*
X98915745Y-54886612D01*
X98915729Y-54886594D01*
X98713405Y-54684270D01*
X98713387Y-54684254D01*
X98484317Y-54512775D01*
X98484309Y-54512770D01*
X98233166Y-54375635D01*
X98233167Y-54375635D01*
X98099093Y-54325628D01*
X97965046Y-54275631D01*
X97965043Y-54275630D01*
X97965037Y-54275628D01*
X97685433Y-54214804D01*
X97400001Y-54194390D01*
X97399999Y-54194390D01*
X97114566Y-54214804D01*
X96834962Y-54275628D01*
X96566833Y-54375635D01*
X96315690Y-54512770D01*
X96315682Y-54512775D01*
X96086612Y-54684254D01*
X96086594Y-54684270D01*
X95884270Y-54886594D01*
X95884254Y-54886612D01*
X95712775Y-55115682D01*
X95712770Y-55115690D01*
X95575635Y-55366833D01*
X95475628Y-55634962D01*
X95414804Y-55914566D01*
X95394390Y-56199998D01*
X95394390Y-56200001D01*
X94400000Y-56200001D01*
X94400000Y-52074694D01*
X94419685Y-52007655D01*
X94472489Y-51961900D01*
X94509730Y-51951518D01*
X95127535Y-51879975D01*
X95130969Y-51879628D01*
X96516270Y-51759548D01*
X96519752Y-51759296D01*
X97907876Y-51679190D01*
X97911444Y-51679037D01*
X99301217Y-51638969D01*
X99304790Y-51638918D01*
X100695210Y-51638918D01*
X100698783Y-51638970D01*
G37*
%TD.AperFunction*%
%TD*%
M02*
