%TF.GenerationSoftware,KiCad,Pcbnew,7.0.10*%
%TF.CreationDate,2025-11-30T18:16:02+01:00*%
%TF.ProjectId,open_thermostat,6f70656e-5f74-4686-9572-6d6f73746174,rev?*%
%TF.SameCoordinates,Original*%
%TF.FileFunction,Copper,L1,Top*%
%TF.FilePolarity,Positive*%
%FSLAX46Y46*%
G04 Gerber Fmt 4.6, Leading zero omitted, Abs format (unit mm)*
G04 Created by KiCad (PCBNEW 7.0.10) date 2025-11-30 18:16:02*
%MOMM*%
%LPD*%
G01*
G04 APERTURE LIST*
G04 Aperture macros list*
%AMRoundRect*
0 Rectangle with rounded corners*
0 $1 Rounding radius*
0 $2 $3 $4 $5 $6 $7 $8 $9 X,Y pos of 4 corners*
0 Add a 4 corners polygon primitive as box body*
4,1,4,$2,$3,$4,$5,$6,$7,$8,$9,$2,$3,0*
0 Add four circle primitives for the rounded corners*
1,1,$1+$1,$2,$3*
1,1,$1+$1,$4,$5*
1,1,$1+$1,$6,$7*
1,1,$1+$1,$8,$9*
0 Add four rect primitives between the rounded corners*
20,1,$1+$1,$2,$3,$4,$5,0*
20,1,$1+$1,$4,$5,$6,$7,0*
20,1,$1+$1,$6,$7,$8,$9,0*
20,1,$1+$1,$8,$9,$2,$3,0*%
G04 Aperture macros list end*
%TA.AperFunction,SMDPad,CuDef*%
%ADD10R,1.550000X1.300000*%
%TD*%
%TA.AperFunction,ComponentPad*%
%ADD11C,1.700000*%
%TD*%
%TA.AperFunction,ComponentPad*%
%ADD12C,2.500000*%
%TD*%
%TA.AperFunction,SMDPad,CuDef*%
%ADD13RoundRect,0.250000X-0.412500X-0.650000X0.412500X-0.650000X0.412500X0.650000X-0.412500X0.650000X0*%
%TD*%
%TA.AperFunction,ComponentPad*%
%ADD14R,1.050000X1.500000*%
%TD*%
%TA.AperFunction,ComponentPad*%
%ADD15O,1.050000X1.500000*%
%TD*%
%TA.AperFunction,ComponentPad*%
%ADD16C,1.600000*%
%TD*%
%TA.AperFunction,ComponentPad*%
%ADD17O,1.600000X1.600000*%
%TD*%
%TA.AperFunction,ComponentPad*%
%ADD18RoundRect,0.250000X0.600000X0.725000X-0.600000X0.725000X-0.600000X-0.725000X0.600000X-0.725000X0*%
%TD*%
%TA.AperFunction,ComponentPad*%
%ADD19O,1.700000X1.950000*%
%TD*%
%TA.AperFunction,ComponentPad*%
%ADD20R,2.600000X2.600000*%
%TD*%
%TA.AperFunction,ComponentPad*%
%ADD21C,2.600000*%
%TD*%
%TA.AperFunction,ComponentPad*%
%ADD22R,1.800000X1.800000*%
%TD*%
%TA.AperFunction,ComponentPad*%
%ADD23C,1.800000*%
%TD*%
%TA.AperFunction,ComponentPad*%
%ADD24R,2.000000X2.000000*%
%TD*%
%TA.AperFunction,ComponentPad*%
%ADD25O,2.000000X1.600000*%
%TD*%
%TA.AperFunction,ComponentPad*%
%ADD26R,2.200000X2.200000*%
%TD*%
%TA.AperFunction,ComponentPad*%
%ADD27O,2.200000X2.200000*%
%TD*%
%TA.AperFunction,ComponentPad*%
%ADD28C,3.000000*%
%TD*%
%TA.AperFunction,ViaPad*%
%ADD29C,0.800000*%
%TD*%
%TA.AperFunction,Conductor*%
%ADD30C,0.250000*%
%TD*%
%TA.AperFunction,Conductor*%
%ADD31C,0.500000*%
%TD*%
%TA.AperFunction,Conductor*%
%ADD32C,2.000000*%
%TD*%
%TA.AperFunction,Conductor*%
%ADD33C,0.750000*%
%TD*%
G04 APERTURE END LIST*
D10*
%TO.P,SW1,1,1*%
%TO.N,GND*%
X96050000Y-117900000D03*
X104000000Y-117900000D03*
%TO.P,SW1,2,2*%
%TO.N,BTN*%
X96050000Y-122400000D03*
X104000000Y-122400000D03*
%TD*%
D11*
%TO.P,PS1,*%
%TO.N,*%
X125380000Y-67900000D03*
D12*
%TO.P,PS1,1,AC/N*%
%TO.N,Net-(J4-Pin_2)*%
X115920000Y-94900000D03*
%TO.P,PS1,2,AC/L*%
%TO.N,Net-(J4-Pin_1)*%
X121000000Y-94900000D03*
%TO.P,PS1,3,-Vo*%
%TO.N,GND*%
X120300000Y-67900000D03*
%TO.P,PS1,4,+Vo*%
%TO.N,5V*%
X130460000Y-67900000D03*
%TD*%
D13*
%TO.P,C1,1*%
%TO.N,GND*%
X124137500Y-64600000D03*
%TO.P,C1,2*%
%TO.N,5V*%
X127262500Y-64600000D03*
%TD*%
D14*
%TO.P,U2,1,GND*%
%TO.N,GND*%
X101200000Y-146800000D03*
D15*
%TO.P,U2,2,DQ*%
%TO.N,TEMP*%
X99930000Y-146800000D03*
%TO.P,U2,3,V_{DD}*%
%TO.N,5V*%
X98660000Y-146800000D03*
%TD*%
D16*
%TO.P,R1,1*%
%TO.N,OUT*%
X75640000Y-74833334D03*
D17*
%TO.P,R1,2*%
%TO.N,Net-(Q1-B)*%
X85800000Y-74833334D03*
%TD*%
D18*
%TO.P,J2,1,Pin_1*%
%TO.N,SDA*%
X82250000Y-100475000D03*
D19*
%TO.P,J2,2,Pin_2*%
%TO.N,SCL*%
X79750000Y-100475000D03*
%TO.P,J2,3,Pin_3*%
%TO.N,5V*%
X77250000Y-100475000D03*
%TO.P,J2,4,Pin_4*%
%TO.N,GND*%
X74750000Y-100475000D03*
%TD*%
D16*
%TO.P,R2,1*%
%TO.N,Net-(Q1-B)*%
X75640000Y-80400000D03*
D17*
%TO.P,R2,2*%
%TO.N,GND*%
X85800000Y-80400000D03*
%TD*%
D20*
%TO.P,J4,1,Pin_1*%
%TO.N,Net-(J4-Pin_1)*%
X124800000Y-105400000D03*
D21*
%TO.P,J4,2,Pin_2*%
%TO.N,Net-(J4-Pin_2)*%
X124800000Y-100400000D03*
%TD*%
D20*
%TO.P,J1,1,Pin_1*%
%TO.N,Net-(J1-Pin_1)*%
X124600000Y-124800000D03*
D21*
%TO.P,J1,2,Pin_2*%
%TO.N,Net-(J1-Pin_2)*%
X124600000Y-119800000D03*
%TO.P,J1,3,Pin_3*%
%TO.N,Net-(J1-Pin_3)*%
X124600000Y-114800000D03*
%TD*%
D22*
%TO.P,D2,1,K*%
%TO.N,Net-(D1-A)*%
X104675000Y-75800000D03*
D23*
%TO.P,D2,2,A*%
%TO.N,Net-(D2-A)*%
X102135000Y-75800000D03*
%TD*%
D16*
%TO.P,R4,1*%
%TO.N,Net-(D2-A)*%
X85800000Y-86000000D03*
D17*
%TO.P,R4,2*%
%TO.N,5V*%
X75640000Y-86000000D03*
%TD*%
D24*
%TO.P,U1,1,~{RST}*%
%TO.N,unconnected-(U1-~{RST}-Pad1)*%
X68540000Y-64000000D03*
D25*
%TO.P,U1,2,A0*%
%TO.N,unconnected-(U1-A0-Pad2)*%
X68540000Y-66540000D03*
%TO.P,U1,3,D0*%
%TO.N,unconnected-(U1-D0-Pad3)*%
X68540000Y-69080000D03*
%TO.P,U1,4,SCK/D5*%
%TO.N,LED*%
X68540000Y-71620000D03*
%TO.P,U1,5,MISO/D6*%
%TO.N,OUT*%
X68540000Y-74160000D03*
%TO.P,U1,6,MOSI/D7*%
%TO.N,BTN*%
X68540000Y-76700000D03*
%TO.P,U1,7,CS/D8*%
%TO.N,TEMP*%
X68540000Y-79240000D03*
%TO.P,U1,8,3V3*%
%TO.N,unconnected-(U1-3V3-Pad8)*%
X68540000Y-81780000D03*
%TO.P,U1,9,5V*%
%TO.N,5V*%
X91400000Y-81780000D03*
%TO.P,U1,10,GND*%
%TO.N,GND*%
X91400000Y-79240000D03*
%TO.P,U1,11,D4*%
%TO.N,unconnected-(U1-D4-Pad11)*%
X91400000Y-76700000D03*
%TO.P,U1,12,D3*%
%TO.N,unconnected-(U1-D3-Pad12)*%
X91400000Y-74160000D03*
%TO.P,U1,13,SDA/D2*%
%TO.N,SDA*%
X91400000Y-71620000D03*
%TO.P,U1,14,SCL/D1*%
%TO.N,SCL*%
X91400000Y-69080000D03*
%TO.P,U1,15,RX*%
%TO.N,unconnected-(U1-RX-Pad15)*%
X91400000Y-66540000D03*
%TO.P,U1,16,TX*%
%TO.N,unconnected-(U1-TX-Pad16)*%
X91400000Y-64000000D03*
%TD*%
D14*
%TO.P,Q1,1,E*%
%TO.N,GND*%
X79330000Y-67960000D03*
D15*
%TO.P,Q1,2,B*%
%TO.N,Net-(Q1-B)*%
X80600000Y-67960000D03*
%TO.P,Q1,3,C*%
%TO.N,Net-(D1-A)*%
X81870000Y-67960000D03*
%TD*%
D26*
%TO.P,D1,1,K*%
%TO.N,5V*%
X109800000Y-85960000D03*
D27*
%TO.P,D1,2,A*%
%TO.N,Net-(D1-A)*%
X109800000Y-75800000D03*
%TD*%
D28*
%TO.P,K1,1*%
%TO.N,Net-(J1-Pin_2)*%
X103400000Y-70400000D03*
D12*
%TO.P,K1,2*%
%TO.N,Net-(D1-A)*%
X109450000Y-68450000D03*
D28*
%TO.P,K1,3*%
%TO.N,Net-(J1-Pin_3)*%
X109450000Y-56250000D03*
%TO.P,K1,4*%
%TO.N,Net-(J1-Pin_1)*%
X97400000Y-56200000D03*
D12*
%TO.P,K1,5*%
%TO.N,5V*%
X97450000Y-68450000D03*
%TD*%
D18*
%TO.P,J3,1,Pin_1*%
%TO.N,LED*%
X81000000Y-111000000D03*
D19*
%TO.P,J3,2,Pin_2*%
%TO.N,5V*%
X78500000Y-111000000D03*
%TO.P,J3,3,Pin_3*%
%TO.N,GND*%
X76000000Y-111000000D03*
%TD*%
D29*
%TO.N,GND*%
X80600000Y-124000000D03*
X124200000Y-64600000D03*
X104000000Y-118000000D03*
X96000000Y-118000000D03*
%TO.N,BTN*%
X80600000Y-122400000D03*
%TD*%
D30*
%TO.N,GND*%
X80600000Y-124000000D02*
X80600000Y-136727208D01*
X80600000Y-136727208D02*
X91372792Y-147500000D01*
X91372792Y-147500000D02*
X96366459Y-147500000D01*
X96366459Y-147500000D02*
X98466459Y-145400000D01*
X101200000Y-146642918D02*
X101200000Y-146800000D01*
X98466459Y-145400000D02*
X99957082Y-145400000D01*
X99957082Y-145400000D02*
X101200000Y-146642918D01*
%TO.N,5V*%
X77250000Y-109750000D02*
X78500000Y-111000000D01*
X84000000Y-101400000D02*
X84000000Y-97497792D01*
X84000000Y-97497792D02*
X91400000Y-90097792D01*
X97450000Y-75730000D02*
X91400000Y-81780000D01*
X77250000Y-87610000D02*
X75640000Y-86000000D01*
D31*
X112400000Y-85960000D02*
X130460000Y-67900000D01*
D30*
X91186396Y-147950000D02*
X97510000Y-147950000D01*
X97510000Y-147950000D02*
X98660000Y-146800000D01*
X83200000Y-102200000D02*
X84000000Y-101400000D01*
X77250000Y-100475000D02*
X78975000Y-102200000D01*
X78500000Y-111000000D02*
X78500000Y-135263604D01*
X78500000Y-135263604D02*
X91186396Y-147950000D01*
X91400000Y-90097792D02*
X91400000Y-81780000D01*
D31*
X95580000Y-85960000D02*
X112400000Y-85960000D01*
X130460000Y-67797500D02*
X127262500Y-64600000D01*
D30*
X77250000Y-100475000D02*
X77250000Y-87610000D01*
X77250000Y-100475000D02*
X77250000Y-109750000D01*
X97450000Y-68450000D02*
X97450000Y-75730000D01*
X78975000Y-102200000D02*
X83200000Y-102200000D01*
D31*
X91400000Y-81780000D02*
X95580000Y-85960000D01*
X130460000Y-67900000D02*
X130460000Y-67797500D01*
D30*
%TO.N,GND*%
X95750000Y-117600000D02*
X96000000Y-117850000D01*
X96150000Y-118000000D02*
X96050000Y-117900000D01*
X96000000Y-118000000D02*
X96150000Y-118000000D01*
X96000000Y-117850000D02*
X96000000Y-118000000D01*
X104000000Y-118000000D02*
X104000000Y-117900000D01*
X104100000Y-117900000D02*
X104000000Y-118000000D01*
%TO.N,SCL*%
X91400000Y-69080000D02*
X88050000Y-72430000D01*
X88050000Y-92175000D02*
X79750000Y-100475000D01*
X88050000Y-72430000D02*
X88050000Y-92175000D01*
%TO.N,SDA*%
X91400000Y-71620000D02*
X88500000Y-74520000D01*
X82250000Y-98611396D02*
X82250000Y-100475000D01*
X88500000Y-74520000D02*
X88500000Y-92361396D01*
X88500000Y-92361396D02*
X82250000Y-98611396D01*
D32*
%TO.N,Net-(J4-Pin_1)*%
X127000000Y-105400000D02*
X124800000Y-105400000D01*
X121000000Y-94900000D02*
X126100000Y-94900000D01*
X126100000Y-94900000D02*
X129200000Y-98000000D01*
X129200000Y-98000000D02*
X129200000Y-103200000D01*
X129200000Y-103200000D02*
X127000000Y-105400000D01*
%TO.N,Net-(J4-Pin_2)*%
X115920000Y-94900000D02*
X115920000Y-96520000D01*
X115920000Y-96520000D02*
X119800000Y-100400000D01*
X119800000Y-100400000D02*
X124800000Y-100400000D01*
D30*
%TO.N,OUT*%
X68540000Y-74160000D02*
X74966666Y-74160000D01*
X74966666Y-74160000D02*
X75640000Y-74833334D01*
%TO.N,BTN*%
X96050000Y-122400000D02*
X80600000Y-122400000D01*
X104000000Y-122400000D02*
X96050000Y-122400000D01*
%TO.N,TEMP*%
X99930000Y-147350000D02*
X98880000Y-148400000D01*
X66400000Y-81380000D02*
X68540000Y-79240000D01*
X91000000Y-148400000D02*
X66400000Y-123800000D01*
X99930000Y-146800000D02*
X99930000Y-147350000D01*
X98880000Y-148400000D02*
X91000000Y-148400000D01*
X66400000Y-123800000D02*
X66400000Y-81380000D01*
%TO.N,Net-(D1-A)*%
X95800000Y-61600000D02*
X101200000Y-67000000D01*
X101200000Y-67000000D02*
X101200000Y-72325000D01*
X104675000Y-75800000D02*
X109800000Y-75800000D01*
X101200000Y-72325000D02*
X104675000Y-75800000D01*
X81870000Y-67960000D02*
X88230000Y-61600000D01*
X88230000Y-61600000D02*
X95800000Y-61600000D01*
D31*
X109450000Y-68450000D02*
X109800000Y-68800000D01*
X109800000Y-68800000D02*
X109800000Y-75800000D01*
D30*
%TO.N,Net-(D2-A)*%
X89750000Y-62050000D02*
X87600000Y-64200000D01*
X102135000Y-75800000D02*
X100750000Y-74415000D01*
X95613604Y-62050000D02*
X89750000Y-62050000D01*
X100750000Y-74415000D02*
X100750000Y-67186396D01*
X100750000Y-67186396D02*
X95613604Y-62050000D01*
X87600000Y-64200000D02*
X87600000Y-84200000D01*
X87600000Y-84200000D02*
X85800000Y-86000000D01*
D33*
%TO.N,Net-(J1-Pin_1)*%
X142300000Y-84050000D02*
X148300000Y-90050000D01*
X101600000Y-60400000D02*
X128200000Y-60400000D01*
X148300000Y-108300000D02*
X131800000Y-124800000D01*
X131800000Y-124800000D02*
X124600000Y-124800000D01*
X148300000Y-90050000D02*
X148300000Y-108300000D01*
X142300000Y-74500000D02*
X142300000Y-84050000D01*
X97400000Y-56200000D02*
X101600000Y-60400000D01*
X128200000Y-60400000D02*
X142300000Y-74500000D01*
%TO.N,Net-(J1-Pin_2)*%
X112000000Y-61800000D02*
X127600000Y-61800000D01*
X134700000Y-119800000D02*
X124600000Y-119800000D01*
X146800000Y-107700000D02*
X134700000Y-119800000D01*
X140800000Y-84600000D02*
X146800000Y-90600000D01*
X103400000Y-70400000D02*
X112000000Y-61800000D01*
X146800000Y-90600000D02*
X146800000Y-107700000D01*
X140800000Y-75000000D02*
X140800000Y-84600000D01*
X127600000Y-61800000D02*
X140800000Y-75000000D01*
D30*
%TO.N,Net-(Q1-B)*%
X80600000Y-69633334D02*
X85800000Y-74833334D01*
X75640000Y-80400000D02*
X80233334Y-80400000D01*
X80233334Y-80400000D02*
X85800000Y-74833334D01*
X80600000Y-67960000D02*
X80600000Y-69633334D01*
%TD*%
M02*
